%TF.GenerationSoftware,KiCad,Pcbnew,9.0.6*%
%TF.CreationDate,2025-12-03T13:03:29+01:00*%
%TF.ProjectId,nTerm2-S FT231,6e546572-6d32-42d5-9320-46543233312e,0.11*%
%TF.SameCoordinates,Original*%
%TF.FileFunction,Soldermask,Top*%
%TF.FilePolarity,Negative*%
%FSLAX46Y46*%
G04 Gerber Fmt 4.6, Leading zero omitted, Abs format (unit mm)*
G04 Created by KiCad (PCBNEW 9.0.6) date 2025-12-03 13:03:29*
%MOMM*%
%LPD*%
G01*
G04 APERTURE LIST*
G04 Aperture macros list*
%AMRoundRect*
0 Rectangle with rounded corners*
0 $1 Rounding radius*
0 $2 $3 $4 $5 $6 $7 $8 $9 X,Y pos of 4 corners*
0 Add a 4 corners polygon primitive as box body*
4,1,4,$2,$3,$4,$5,$6,$7,$8,$9,$2,$3,0*
0 Add four circle primitives for the rounded corners*
1,1,$1+$1,$2,$3*
1,1,$1+$1,$4,$5*
1,1,$1+$1,$6,$7*
1,1,$1+$1,$8,$9*
0 Add four rect primitives between the rounded corners*
20,1,$1+$1,$2,$3,$4,$5,0*
20,1,$1+$1,$4,$5,$6,$7,0*
20,1,$1+$1,$6,$7,$8,$9,0*
20,1,$1+$1,$8,$9,$2,$3,0*%
%AMFreePoly0*
4,1,23,0.550000,-0.750000,0.000000,-0.750000,0.000000,-0.745722,-0.065263,-0.745722,-0.191342,-0.711940,-0.304381,-0.646677,-0.396677,-0.554381,-0.461940,-0.441342,-0.495722,-0.315263,-0.495722,-0.250000,-0.500000,-0.250000,-0.500000,0.250000,-0.495722,0.250000,-0.495722,0.315263,-0.461940,0.441342,-0.396677,0.554381,-0.304381,0.646677,-0.191342,0.711940,-0.065263,0.745722,0.000000,0.745722,
0.000000,0.750000,0.550000,0.750000,0.550000,-0.750000,0.550000,-0.750000,$1*%
%AMFreePoly1*
4,1,23,0.000000,0.745722,0.065263,0.745722,0.191342,0.711940,0.304381,0.646677,0.396677,0.554381,0.461940,0.441342,0.495722,0.315263,0.495722,0.250000,0.500000,0.250000,0.500000,-0.250000,0.495722,-0.250000,0.495722,-0.315263,0.461940,-0.441342,0.396677,-0.554381,0.304381,-0.646677,0.191342,-0.711940,0.065263,-0.745722,0.000000,-0.745722,0.000000,-0.750000,-0.550000,-0.750000,
-0.550000,0.750000,0.000000,0.750000,0.000000,0.745722,0.000000,0.745722,$1*%
G04 Aperture macros list end*
%ADD10RoundRect,0.250000X0.425000X-0.537500X0.425000X0.537500X-0.425000X0.537500X-0.425000X-0.537500X0*%
%ADD11RoundRect,0.237500X-0.237500X0.250000X-0.237500X-0.250000X0.237500X-0.250000X0.237500X0.250000X0*%
%ADD12C,3.200000*%
%ADD13RoundRect,0.237500X-0.250000X-0.237500X0.250000X-0.237500X0.250000X0.237500X-0.250000X0.237500X0*%
%ADD14FreePoly0,90.000000*%
%ADD15R,1.500000X1.000000*%
%ADD16FreePoly1,90.000000*%
%ADD17RoundRect,0.132500X0.132500X-0.532500X0.132500X0.532500X-0.132500X0.532500X-0.132500X-0.532500X0*%
%ADD18RoundRect,0.225000X-0.225000X-0.375000X0.225000X-0.375000X0.225000X0.375000X-0.225000X0.375000X0*%
%ADD19R,0.700000X2.000000*%
%ADD20C,1.750000*%
%ADD21C,2.100000*%
%ADD22R,1.700000X1.700000*%
%ADD23O,1.700000X1.700000*%
%ADD24R,1.500000X0.900000*%
%ADD25R,0.900000X1.500000*%
%ADD26C,0.600000*%
%ADD27R,4.200000X4.200000*%
%ADD28RoundRect,0.237500X0.237500X-0.250000X0.237500X0.250000X-0.237500X0.250000X-0.237500X-0.250000X0*%
%ADD29RoundRect,0.237500X-0.237500X0.300000X-0.237500X-0.300000X0.237500X-0.300000X0.237500X0.300000X0*%
%ADD30R,1.600000X1.600000*%
%ADD31C,1.600000*%
%ADD32O,2.000000X3.500000*%
%ADD33O,4.000000X2.000000*%
%ADD34RoundRect,0.250000X0.550000X-1.500000X0.550000X1.500000X-0.550000X1.500000X-0.550000X-1.500000X0*%
%ADD35RoundRect,0.237500X0.237500X-0.300000X0.237500X0.300000X-0.237500X0.300000X-0.237500X-0.300000X0*%
%ADD36R,1.800000X1.800000*%
%ADD37C,1.800000*%
%ADD38RoundRect,0.150000X-0.825000X-0.150000X0.825000X-0.150000X0.825000X0.150000X-0.825000X0.150000X0*%
%ADD39RoundRect,0.237500X0.250000X0.237500X-0.250000X0.237500X-0.250000X-0.237500X0.250000X-0.237500X0*%
%ADD40RoundRect,0.250000X-0.425000X0.537500X-0.425000X-0.537500X0.425000X-0.537500X0.425000X0.537500X0*%
%ADD41FreePoly0,0.000000*%
%ADD42R,1.000000X1.500000*%
%ADD43FreePoly1,0.000000*%
%ADD44RoundRect,0.237500X0.300000X0.237500X-0.300000X0.237500X-0.300000X-0.237500X0.300000X-0.237500X0*%
%ADD45RoundRect,0.225000X0.225000X0.375000X-0.225000X0.375000X-0.225000X-0.375000X0.225000X-0.375000X0*%
%ADD46RoundRect,0.375000X-0.375000X0.625000X-0.375000X-0.625000X0.375000X-0.625000X0.375000X0.625000X0*%
%ADD47RoundRect,0.500000X-1.400000X0.500000X-1.400000X-0.500000X1.400000X-0.500000X1.400000X0.500000X0*%
%ADD48RoundRect,0.250000X0.875000X0.925000X-0.875000X0.925000X-0.875000X-0.925000X0.875000X-0.925000X0*%
%ADD49RoundRect,0.250000X1.025000X-0.875000X1.025000X0.875000X-1.025000X0.875000X-1.025000X-0.875000X0*%
%ADD50RoundRect,0.150000X-0.587500X-0.150000X0.587500X-0.150000X0.587500X0.150000X-0.587500X0.150000X0*%
%ADD51RoundRect,0.237500X-0.300000X-0.237500X0.300000X-0.237500X0.300000X0.237500X-0.300000X0.237500X0*%
%ADD52RoundRect,0.150000X-0.150000X0.587500X-0.150000X-0.587500X0.150000X-0.587500X0.150000X0.587500X0*%
%ADD53RoundRect,0.150000X0.587500X0.150000X-0.587500X0.150000X-0.587500X-0.150000X0.587500X-0.150000X0*%
%ADD54C,0.700000*%
%ADD55O,1.300000X3.200000*%
%ADD56O,1.300000X2.500000*%
%ADD57RoundRect,0.250001X0.924999X-0.499999X0.924999X0.499999X-0.924999X0.499999X-0.924999X-0.499999X0*%
%ADD58C,2.200000*%
%ADD59RoundRect,0.150000X0.150000X-0.512500X0.150000X0.512500X-0.150000X0.512500X-0.150000X-0.512500X0*%
%ADD60C,4.000000*%
%ADD61RoundRect,0.250000X-1.250000X-0.550000X1.250000X-0.550000X1.250000X0.550000X-1.250000X0.550000X0*%
%ADD62RoundRect,0.250000X-1.500000X-0.550000X1.500000X-0.550000X1.500000X0.550000X-1.500000X0.550000X0*%
%ADD63C,1.700000*%
%ADD64RoundRect,0.250000X-0.337500X-0.475000X0.337500X-0.475000X0.337500X0.475000X-0.337500X0.475000X0*%
%ADD65RoundRect,0.250000X0.537500X0.425000X-0.537500X0.425000X-0.537500X-0.425000X0.537500X-0.425000X0*%
%ADD66O,2.200000X4.000000*%
%ADD67O,4.000000X2.200000*%
%ADD68R,2.200000X4.000000*%
%ADD69C,1.000000*%
%ADD70RoundRect,0.250000X0.925000X-0.875000X0.925000X0.875000X-0.925000X0.875000X-0.925000X-0.875000X0*%
%ADD71R,1.200000X0.400000*%
%ADD72R,1.200000X1.200000*%
G04 APERTURE END LIST*
D10*
%TO.C,C14*%
X87045800Y-85796400D03*
X87045800Y-88671400D03*
%TD*%
D11*
%TO.C,R42*%
X90297000Y-94027000D03*
X90297000Y-92202000D03*
%TD*%
%TO.C,R41*%
X88392000Y-94027000D03*
X88392000Y-92202000D03*
%TD*%
%TO.C,R28*%
X84266000Y-107528500D03*
X84266000Y-109353500D03*
%TD*%
D12*
%TO.C,H4*%
X215076000Y-121498500D03*
%TD*%
D13*
%TO.C,R2*%
X138956000Y-84668500D03*
X140781000Y-84668500D03*
%TD*%
D11*
%TO.C,R26*%
X96901000Y-88596000D03*
X96901000Y-90421000D03*
%TD*%
D13*
%TO.C,R33*%
X176792500Y-118999000D03*
X178617500Y-118999000D03*
%TD*%
D12*
%TO.C,H1*%
X80456000Y-78318500D03*
%TD*%
D14*
%TO.C,OPT1*%
X171856400Y-93644100D03*
D15*
X171856400Y-92344100D03*
D16*
X171856400Y-91044100D03*
%TD*%
D17*
%TO.C,U4*%
X103820000Y-103632000D03*
X105090000Y-103632000D03*
X106360000Y-103632000D03*
X106360000Y-100582000D03*
X105090000Y-100582000D03*
X103820000Y-100582000D03*
%TD*%
D11*
%TO.C,R18*%
X177088800Y-92140900D03*
X177088800Y-93965900D03*
%TD*%
D18*
%TO.C,D10*%
X179992000Y-123571000D03*
X183292000Y-123571000D03*
%TD*%
D19*
%TO.C,K1*%
X200471000Y-109268500D03*
X197271000Y-109268500D03*
X195071000Y-109268500D03*
X192871000Y-109268500D03*
X192871000Y-115268500D03*
X195071000Y-115268500D03*
X197271000Y-115268500D03*
X200471000Y-115268500D03*
%TD*%
D20*
%TO.C,SW2*%
X99506000Y-125172000D03*
X95006000Y-125172000D03*
D21*
X100756000Y-122682000D03*
X93746000Y-122682000D03*
%TD*%
D22*
%TO.C,J7*%
X188295200Y-84582000D03*
D23*
X185755200Y-84582000D03*
%TD*%
D11*
%TO.C,R17*%
X174436000Y-102997000D03*
X174436000Y-104822000D03*
%TD*%
D24*
%TO.C,U1*%
X113616000Y-80096500D03*
X113616000Y-81366500D03*
X113616000Y-82636500D03*
X113616000Y-83906500D03*
X113616000Y-85176500D03*
X113616000Y-86446500D03*
X113616000Y-87716500D03*
X113616000Y-88986500D03*
X113616000Y-90256500D03*
X113616000Y-91526500D03*
X113616000Y-92796500D03*
X113616000Y-94066500D03*
X113616000Y-95336500D03*
X113616000Y-96606500D03*
D25*
X116656000Y-97856500D03*
X117926000Y-97856500D03*
X119196000Y-97856500D03*
X120466000Y-97856500D03*
X121736000Y-97856500D03*
X123006000Y-97856500D03*
X124276000Y-97856500D03*
X125546000Y-97856500D03*
X126816000Y-97856500D03*
X128086000Y-97856500D03*
D24*
X131116000Y-96606500D03*
X131116000Y-95336500D03*
X131116000Y-94066500D03*
X131116000Y-92796500D03*
X131116000Y-91526500D03*
X131116000Y-90256500D03*
X131116000Y-88986500D03*
X131116000Y-87716500D03*
X131116000Y-86446500D03*
X131116000Y-85176500D03*
X131116000Y-83906500D03*
X131116000Y-82636500D03*
X131116000Y-81366500D03*
X131116000Y-80096500D03*
D26*
X120161000Y-86674000D03*
X120161000Y-88199000D03*
X120923500Y-85911500D03*
X120923500Y-87436500D03*
X120923500Y-88961500D03*
X121686000Y-86674000D03*
D27*
X121686000Y-87436500D03*
D26*
X121686000Y-88199000D03*
X122448500Y-85911500D03*
X122448500Y-87436500D03*
X122448500Y-88961500D03*
X123211000Y-86674000D03*
X123211000Y-88199000D03*
%TD*%
D28*
%TO.C,R14*%
X127635000Y-112188000D03*
X127635000Y-110363000D03*
%TD*%
D20*
%TO.C,SW1*%
X110936000Y-125172000D03*
X106436000Y-125172000D03*
D21*
X112186000Y-122682000D03*
X105176000Y-122682000D03*
%TD*%
D13*
%TO.C,R34*%
X192128500Y-100203000D03*
X193953500Y-100203000D03*
%TD*%
D29*
%TO.C,C6*%
X176976000Y-103047000D03*
X176976000Y-104772000D03*
%TD*%
D30*
%TO.C,J2*%
X126616000Y-118958500D03*
D31*
X124016000Y-118958500D03*
X128716000Y-118958500D03*
X121916000Y-118958500D03*
X128716000Y-116158500D03*
X121916000Y-116158500D03*
D32*
X118466000Y-121808500D03*
D33*
X125316000Y-122608500D03*
D32*
X132166000Y-121808500D03*
%TD*%
D34*
%TO.C,C25*%
X205740000Y-123096000D03*
X205740000Y-117696000D03*
%TD*%
D13*
%TO.C,R4*%
X138956000Y-88224500D03*
X140781000Y-88224500D03*
%TD*%
D35*
%TO.C,C30*%
X90043000Y-88212000D03*
X90043000Y-86487000D03*
%TD*%
D13*
%TO.C,R32*%
X194287500Y-118999000D03*
X196112500Y-118999000D03*
%TD*%
D35*
%TO.C,C29*%
X92075000Y-88212000D03*
X92075000Y-86487000D03*
%TD*%
D34*
%TO.C,C26*%
X188279000Y-123096000D03*
X188279000Y-117696000D03*
%TD*%
D36*
%TO.C,D11*%
X162498000Y-120988500D03*
D37*
X165038000Y-120988500D03*
D36*
X162498000Y-123528500D03*
D37*
X165038000Y-123528500D03*
%TD*%
D11*
%TO.C,R38*%
X170499000Y-113878500D03*
X170499000Y-115703500D03*
%TD*%
D38*
%TO.C,U2*%
X171778499Y-96520000D03*
X171778499Y-97790000D03*
X171778499Y-99060000D03*
X171778499Y-100330000D03*
X176728499Y-100330000D03*
X176728499Y-99060000D03*
X176728499Y-97790000D03*
X176728499Y-96520000D03*
%TD*%
D39*
%TO.C,R8*%
X140781000Y-80858500D03*
X138956000Y-80858500D03*
%TD*%
D29*
%TO.C,C24*%
X85344000Y-93093200D03*
X85344000Y-94818200D03*
%TD*%
D28*
%TO.C,R12*%
X121539000Y-112188000D03*
X121539000Y-110363000D03*
%TD*%
D40*
%TO.C,C10*%
X147574000Y-105369500D03*
X147574000Y-108244500D03*
%TD*%
D41*
%TO.C,OPT3*%
X203775000Y-113665000D03*
D42*
X205075000Y-113665000D03*
D43*
X206375000Y-113665000D03*
%TD*%
D28*
%TO.C,R40*%
X92202000Y-107743000D03*
X92202000Y-105918000D03*
%TD*%
D36*
%TO.C,D12*%
X168848000Y-120988500D03*
D37*
X171388000Y-120988500D03*
D36*
X168848000Y-123528500D03*
D37*
X171388000Y-123528500D03*
%TD*%
D11*
%TO.C,R29*%
X94869000Y-88596000D03*
X94869000Y-90421000D03*
%TD*%
D41*
%TO.C,OPT2*%
X203775000Y-109474000D03*
D42*
X205075000Y-109474000D03*
D43*
X206375000Y-109474000D03*
%TD*%
D30*
%TO.C,J3*%
X151217000Y-118958500D03*
D31*
X148617000Y-118958500D03*
X153317000Y-118958500D03*
X146517000Y-118958500D03*
X153317000Y-116158500D03*
X146517000Y-116158500D03*
D32*
X143067000Y-121808500D03*
D33*
X149917000Y-122608500D03*
D32*
X156767000Y-121808500D03*
%TD*%
D44*
%TO.C,C16*%
X90424000Y-118491000D03*
X88699000Y-118491000D03*
%TD*%
D45*
%TO.C,D9*%
X107694000Y-116586000D03*
X104394000Y-116586000D03*
%TD*%
D46*
%TO.C,U5*%
X81637500Y-94817800D03*
X79337500Y-94817800D03*
D47*
X79337500Y-101117800D03*
D46*
X77037500Y-94817800D03*
%TD*%
D48*
%TO.C,C18*%
X104498050Y-81788000D03*
X99398050Y-81788000D03*
%TD*%
D13*
%TO.C,R25*%
X88646000Y-115570000D03*
X90471000Y-115570000D03*
%TD*%
D35*
%TO.C,C31*%
X108265000Y-98298000D03*
X108265000Y-96573000D03*
%TD*%
D13*
%TO.C,R20*%
X166143000Y-96052500D03*
X167968000Y-96052500D03*
%TD*%
D38*
%TO.C,U3*%
X152276000Y-99527500D03*
X152276000Y-100797500D03*
X152276000Y-102067500D03*
X152276000Y-103337500D03*
X152276000Y-104607500D03*
X152276000Y-105877500D03*
X152276000Y-107147500D03*
X152276000Y-108417500D03*
X157226000Y-108417500D03*
X157226000Y-107147500D03*
X157226000Y-105877500D03*
X157226000Y-104607500D03*
X157226000Y-103337500D03*
X157226000Y-102067500D03*
X157226000Y-100797500D03*
X157226000Y-99527500D03*
%TD*%
D12*
%TO.C,H3*%
X80456000Y-121498500D03*
%TD*%
D41*
%TO.C,OPT5*%
X186757000Y-113665000D03*
D42*
X188057000Y-113665000D03*
D43*
X189357000Y-113665000D03*
%TD*%
D12*
%TO.C,H6*%
X137606000Y-121498500D03*
%TD*%
D49*
%TO.C,C23*%
X77901800Y-89966800D03*
X77901800Y-83566800D03*
%TD*%
D40*
%TO.C,C9*%
X144526000Y-105369500D03*
X144526000Y-108244500D03*
%TD*%
D50*
%TO.C,Q5*%
X196438000Y-100183000D03*
X196438000Y-102083000D03*
X198313000Y-101133000D03*
%TD*%
D51*
%TO.C,C15*%
X99949000Y-117475000D03*
X101674000Y-117475000D03*
%TD*%
D19*
%TO.C,K2*%
X183250500Y-109268500D03*
X180050500Y-109268500D03*
X177850500Y-109268500D03*
X175650500Y-109268500D03*
X175650500Y-115268500D03*
X177850500Y-115268500D03*
X180050500Y-115268500D03*
X183250500Y-115268500D03*
%TD*%
D10*
%TO.C,C21*%
X88823800Y-102874800D03*
X88823800Y-99999800D03*
%TD*%
D52*
%TO.C,Q6*%
X195261000Y-121871500D03*
X193361000Y-121871500D03*
X194311000Y-123746500D03*
%TD*%
D53*
%TO.C,Q2*%
X97506000Y-117409000D03*
X97506000Y-115509000D03*
X95631000Y-116459000D03*
%TD*%
D54*
%TO.C,J6*%
X93176000Y-79588500D03*
X92326000Y-79588500D03*
X91476000Y-79588500D03*
X90626000Y-79588500D03*
X89776000Y-79588500D03*
X88926000Y-79588500D03*
X88076000Y-79588500D03*
X87226000Y-79588500D03*
X87226000Y-78238500D03*
X88076000Y-78238500D03*
X88926000Y-78238500D03*
X89776000Y-78238500D03*
X90626000Y-78238500D03*
X91476000Y-78238500D03*
X92326000Y-78238500D03*
X93176000Y-78238500D03*
D55*
X94521000Y-79088500D03*
D56*
X94516000Y-74783500D03*
D55*
X85881000Y-79088500D03*
D56*
X85881000Y-74788500D03*
%TD*%
D28*
%TO.C,R31*%
X100965000Y-90421000D03*
X100965000Y-88596000D03*
%TD*%
D52*
%TO.C,Q7*%
X177766000Y-121871500D03*
X175866000Y-121871500D03*
X176816000Y-123746500D03*
%TD*%
D40*
%TO.C,C12*%
X161355000Y-100503000D03*
X161355000Y-103378000D03*
%TD*%
D29*
%TO.C,C33*%
X108331000Y-101780000D03*
X108331000Y-103505000D03*
%TD*%
D41*
%TO.C,OPT4*%
X186757000Y-109474000D03*
D42*
X188057000Y-109474000D03*
D43*
X189357000Y-109474000D03*
%TD*%
D57*
%TO.C,C20*%
X85293200Y-102919600D03*
X85293200Y-99669600D03*
%TD*%
D20*
%TO.C,SW3*%
X77916000Y-113298500D03*
X77916000Y-108798500D03*
D21*
X80406000Y-114548500D03*
X80406000Y-107538500D03*
%TD*%
D11*
%TO.C,R39*%
X90170000Y-105918000D03*
X90170000Y-107743000D03*
%TD*%
D35*
%TO.C,C5*%
X174675800Y-93865900D03*
X174675800Y-92140900D03*
%TD*%
D13*
%TO.C,R5*%
X138956000Y-93558500D03*
X140781000Y-93558500D03*
%TD*%
D58*
%TO.C,BAT1*%
X111379000Y-111760000D03*
X106379000Y-108160000D03*
X101379000Y-111760000D03*
%TD*%
D36*
%TO.C,D4*%
X86824750Y-123598500D03*
D37*
X89364750Y-123598500D03*
%TD*%
D59*
%TO.C,U6*%
X94300000Y-85460000D03*
X95250000Y-85460000D03*
X96200000Y-85460000D03*
X96200000Y-83185000D03*
X95250000Y-83185000D03*
X94300000Y-83185000D03*
%TD*%
D60*
%TO.C,J5*%
X211940000Y-111948500D03*
X211940000Y-86948500D03*
D30*
X210520000Y-104988500D03*
D31*
X210520000Y-102218500D03*
X210520000Y-99448500D03*
X210520000Y-96678500D03*
X210520000Y-93908500D03*
X213360000Y-103603500D03*
X213360000Y-100833500D03*
X213360000Y-98063500D03*
X213360000Y-95293500D03*
%TD*%
D61*
%TO.C,C2*%
X181767499Y-101178500D03*
X186167499Y-101178500D03*
%TD*%
D13*
%TO.C,R3*%
X138956000Y-90002500D03*
X140781000Y-90002500D03*
%TD*%
D62*
%TO.C,C1*%
X181267499Y-92923500D03*
X186667499Y-92923500D03*
%TD*%
D40*
%TO.C,C8*%
X144526000Y-99781500D03*
X144526000Y-102656500D03*
%TD*%
D12*
%TO.C,H2*%
X215076000Y-78318500D03*
%TD*%
D60*
%TO.C,J1*%
X178478000Y-83312000D03*
X153478000Y-83312000D03*
D30*
X161663000Y-85852000D03*
D31*
X163953000Y-85852000D03*
X166243000Y-85852000D03*
X168533000Y-85852000D03*
X170823000Y-85852000D03*
X160518000Y-83312000D03*
X162808000Y-83312000D03*
X165098000Y-83312000D03*
X167388000Y-83312000D03*
X169678000Y-83312000D03*
X161663000Y-80772000D03*
X163953000Y-80772000D03*
X166243000Y-80772000D03*
X168533000Y-80772000D03*
X170823000Y-80772000D03*
%TD*%
D39*
%TO.C,R21*%
X167977500Y-93857185D03*
X166152500Y-93857185D03*
%TD*%
D11*
%TO.C,R37*%
X167959000Y-113878500D03*
X167959000Y-115703500D03*
%TD*%
%TO.C,R36*%
X164149000Y-113878500D03*
X164149000Y-115703500D03*
%TD*%
D22*
%TO.C,J8*%
X164084000Y-106426000D03*
D63*
X166624000Y-106426000D03*
X169164000Y-106426000D03*
%TD*%
D28*
%TO.C,R22*%
X93599000Y-112649000D03*
X93599000Y-110824000D03*
%TD*%
D34*
%TO.C,C27*%
X203581000Y-104046000D03*
X203581000Y-98646000D03*
%TD*%
D28*
%TO.C,R15*%
X129667000Y-112188000D03*
X129667000Y-110363000D03*
%TD*%
D51*
%TO.C,C7*%
X166243000Y-98211500D03*
X167968000Y-98211500D03*
%TD*%
D28*
%TO.C,R9*%
X119507000Y-112188000D03*
X119507000Y-110363000D03*
%TD*%
D19*
%TO.C,K3*%
X199604750Y-90225500D03*
X196404750Y-90225500D03*
X194204750Y-90225500D03*
X192004750Y-90225500D03*
X192004750Y-96225500D03*
X194204750Y-96225500D03*
X196404750Y-96225500D03*
X199604750Y-96225500D03*
%TD*%
D35*
%TO.C,C28*%
X99822000Y-103579000D03*
X99822000Y-101854000D03*
%TD*%
D40*
%TO.C,C11*%
X147574000Y-99781500D03*
X147574000Y-102656500D03*
%TD*%
D18*
%TO.C,D6*%
X197487000Y-123571000D03*
X200787000Y-123571000D03*
%TD*%
D64*
%TO.C,C3*%
X166116000Y-100457000D03*
X168191000Y-100457000D03*
%TD*%
D28*
%TO.C,R13*%
X131699000Y-112188000D03*
X131699000Y-110363000D03*
%TD*%
D65*
%TO.C,C19*%
X110617000Y-81788000D03*
X107742000Y-81788000D03*
%TD*%
D66*
%TO.C,J4*%
X205036000Y-81793000D03*
X202336000Y-80593000D03*
D67*
X199836000Y-73793000D03*
D68*
X195236000Y-77693000D03*
D67*
X195736000Y-84993000D03*
%TD*%
D53*
%TO.C,Q1*%
X90521000Y-112649000D03*
X90521000Y-110749000D03*
X88646000Y-111699000D03*
%TD*%
D35*
%TO.C,C4*%
X171896000Y-104772000D03*
X171896000Y-103047000D03*
%TD*%
D69*
%TO.C,Y1*%
X106106000Y-98298000D03*
X104206000Y-98298000D03*
%TD*%
D70*
%TO.C,C13*%
X82996000Y-88656000D03*
X82996000Y-83556000D03*
%TD*%
D71*
%TO.C,U7*%
X97536000Y-102616000D03*
X97536000Y-101981000D03*
X97536000Y-101346000D03*
X97536000Y-100711000D03*
X97536000Y-100076000D03*
X97536000Y-99441000D03*
X97536000Y-98806000D03*
X97536000Y-98171000D03*
X97536000Y-97536000D03*
X97536000Y-96901000D03*
X92336000Y-96901000D03*
X92336000Y-97536000D03*
X92336000Y-98171000D03*
X92336000Y-98806000D03*
X92336000Y-99441000D03*
X92336000Y-100076000D03*
X92336000Y-100711000D03*
X92336000Y-101346000D03*
X92336000Y-101981000D03*
X92336000Y-102616000D03*
%TD*%
D29*
%TO.C,C22*%
X84266000Y-112608500D03*
X84266000Y-114333500D03*
%TD*%
D50*
%TO.C,Q3*%
X198645500Y-118983500D03*
X198645500Y-120883500D03*
X200520500Y-119933500D03*
%TD*%
D28*
%TO.C,R23*%
X93599000Y-117475000D03*
X93599000Y-115650000D03*
%TD*%
D13*
%TO.C,R6*%
X138956000Y-91780500D03*
X140781000Y-91780500D03*
%TD*%
D28*
%TO.C,R43*%
X98933000Y-90421000D03*
X98933000Y-88596000D03*
%TD*%
%TO.C,R27*%
X135701000Y-98558500D03*
X135701000Y-96733500D03*
%TD*%
D11*
%TO.C,R35*%
X161609000Y-113878500D03*
X161609000Y-115703500D03*
%TD*%
D28*
%TO.C,R16*%
X133731000Y-112188000D03*
X133731000Y-110363000D03*
%TD*%
%TO.C,R10*%
X123571000Y-112188000D03*
X123571000Y-110363000D03*
%TD*%
D39*
%TO.C,R7*%
X140781000Y-82763500D03*
X138956000Y-82763500D03*
%TD*%
D72*
%TO.C,D3*%
X89795000Y-83185000D03*
X86995000Y-83185000D03*
%TD*%
D13*
%TO.C,R1*%
X138956000Y-86446500D03*
X140781000Y-86446500D03*
%TD*%
D11*
%TO.C,R30*%
X84963000Y-117047000D03*
X84963000Y-118872000D03*
%TD*%
D13*
%TO.C,R19*%
X166243000Y-102616000D03*
X168068000Y-102616000D03*
%TD*%
D65*
%TO.C,C17*%
X102108000Y-85852000D03*
X99233000Y-85852000D03*
%TD*%
D35*
%TO.C,C32*%
X102042000Y-98298000D03*
X102042000Y-96573000D03*
%TD*%
D52*
%TO.C,Q8*%
X193102000Y-103075500D03*
X191202000Y-103075500D03*
X192152000Y-104950500D03*
%TD*%
D12*
%TO.C,H5*%
X187136000Y-78318500D03*
%TD*%
D13*
%TO.C,R24*%
X99849000Y-115443000D03*
X101674000Y-115443000D03*
%TD*%
D18*
%TO.C,D8*%
X195328000Y-104775000D03*
X198628000Y-104775000D03*
%TD*%
D28*
%TO.C,R11*%
X125603000Y-112188000D03*
X125603000Y-110363000D03*
%TD*%
D18*
%TO.C,D1*%
X109984000Y-116586000D03*
X113284000Y-116586000D03*
%TD*%
D50*
%TO.C,Q4*%
X181102000Y-118958500D03*
X181102000Y-120858500D03*
X182977000Y-119908500D03*
%TD*%
M02*
