%TF.GenerationSoftware,KiCad,Pcbnew,9.0.6*%
%TF.CreationDate,2025-12-03T13:03:29+01:00*%
%TF.ProjectId,nTerm2-S FT231,6e546572-6d32-42d5-9320-46543233312e,0.11*%
%TF.SameCoordinates,Original*%
%TF.FileFunction,Soldermask,Bot*%
%TF.FilePolarity,Negative*%
%FSLAX46Y46*%
G04 Gerber Fmt 4.6, Leading zero omitted, Abs format (unit mm)*
G04 Created by KiCad (PCBNEW 9.0.6) date 2025-12-03 13:03:29*
%MOMM*%
%LPD*%
G01*
G04 APERTURE LIST*
%ADD10C,3.200000*%
%ADD11C,1.750000*%
%ADD12C,2.100000*%
%ADD13R,1.700000X1.700000*%
%ADD14O,1.700000X1.700000*%
%ADD15R,1.600000X1.600000*%
%ADD16C,1.600000*%
%ADD17O,2.000000X3.500000*%
%ADD18O,4.000000X2.000000*%
%ADD19R,1.800000X1.800000*%
%ADD20C,1.800000*%
%ADD21C,0.700000*%
%ADD22O,1.300000X3.200000*%
%ADD23O,1.300000X2.500000*%
%ADD24C,2.200000*%
%ADD25C,4.000000*%
%ADD26C,1.700000*%
%ADD27O,2.200000X4.000000*%
%ADD28O,4.000000X2.200000*%
%ADD29R,2.200000X4.000000*%
%ADD30C,1.000000*%
G04 APERTURE END LIST*
D10*
%TO.C,H4*%
X215076000Y-121498500D03*
%TD*%
%TO.C,H1*%
X80456000Y-78318500D03*
%TD*%
D11*
%TO.C,SW2*%
X99506000Y-125172000D03*
X95006000Y-125172000D03*
D12*
X100756000Y-122682000D03*
X93746000Y-122682000D03*
%TD*%
D13*
%TO.C,J7*%
X188295200Y-84582000D03*
D14*
X185755200Y-84582000D03*
%TD*%
D11*
%TO.C,SW1*%
X110936000Y-125172000D03*
X106436000Y-125172000D03*
D12*
X112186000Y-122682000D03*
X105176000Y-122682000D03*
%TD*%
D15*
%TO.C,J2*%
X126616000Y-118958500D03*
D16*
X124016000Y-118958500D03*
X128716000Y-118958500D03*
X121916000Y-118958500D03*
X128716000Y-116158500D03*
X121916000Y-116158500D03*
D17*
X118466000Y-121808500D03*
D18*
X125316000Y-122608500D03*
D17*
X132166000Y-121808500D03*
%TD*%
D19*
%TO.C,D11*%
X162498000Y-120988500D03*
D20*
X165038000Y-120988500D03*
D19*
X162498000Y-123528500D03*
D20*
X165038000Y-123528500D03*
%TD*%
D19*
%TO.C,D12*%
X168848000Y-120988500D03*
D20*
X171388000Y-120988500D03*
D19*
X168848000Y-123528500D03*
D20*
X171388000Y-123528500D03*
%TD*%
D15*
%TO.C,J3*%
X151217000Y-118958500D03*
D16*
X148617000Y-118958500D03*
X153317000Y-118958500D03*
X146517000Y-118958500D03*
X153317000Y-116158500D03*
X146517000Y-116158500D03*
D17*
X143067000Y-121808500D03*
D18*
X149917000Y-122608500D03*
D17*
X156767000Y-121808500D03*
%TD*%
D10*
%TO.C,H3*%
X80456000Y-121498500D03*
%TD*%
%TO.C,H6*%
X137606000Y-121498500D03*
%TD*%
D21*
%TO.C,J6*%
X93176000Y-79588500D03*
X92326000Y-79588500D03*
X91476000Y-79588500D03*
X90626000Y-79588500D03*
X89776000Y-79588500D03*
X88926000Y-79588500D03*
X88076000Y-79588500D03*
X87226000Y-79588500D03*
X87226000Y-78238500D03*
X88076000Y-78238500D03*
X88926000Y-78238500D03*
X89776000Y-78238500D03*
X90626000Y-78238500D03*
X91476000Y-78238500D03*
X92326000Y-78238500D03*
X93176000Y-78238500D03*
D22*
X94521000Y-79088500D03*
D23*
X94516000Y-74783500D03*
D22*
X85881000Y-79088500D03*
D23*
X85881000Y-74788500D03*
%TD*%
D11*
%TO.C,SW3*%
X77916000Y-113298500D03*
X77916000Y-108798500D03*
D12*
X80406000Y-114548500D03*
X80406000Y-107538500D03*
%TD*%
D24*
%TO.C,BAT1*%
X111379000Y-111760000D03*
X106379000Y-108160000D03*
X101379000Y-111760000D03*
%TD*%
D19*
%TO.C,D4*%
X86824750Y-123598500D03*
D20*
X89364750Y-123598500D03*
%TD*%
D25*
%TO.C,J5*%
X211940000Y-111948500D03*
X211940000Y-86948500D03*
D15*
X210520000Y-104988500D03*
D16*
X210520000Y-102218500D03*
X210520000Y-99448500D03*
X210520000Y-96678500D03*
X210520000Y-93908500D03*
X213360000Y-103603500D03*
X213360000Y-100833500D03*
X213360000Y-98063500D03*
X213360000Y-95293500D03*
%TD*%
D10*
%TO.C,H2*%
X215076000Y-78318500D03*
%TD*%
D25*
%TO.C,J1*%
X178478000Y-83312000D03*
X153478000Y-83312000D03*
D15*
X161663000Y-85852000D03*
D16*
X163953000Y-85852000D03*
X166243000Y-85852000D03*
X168533000Y-85852000D03*
X170823000Y-85852000D03*
X160518000Y-83312000D03*
X162808000Y-83312000D03*
X165098000Y-83312000D03*
X167388000Y-83312000D03*
X169678000Y-83312000D03*
X161663000Y-80772000D03*
X163953000Y-80772000D03*
X166243000Y-80772000D03*
X168533000Y-80772000D03*
X170823000Y-80772000D03*
%TD*%
D13*
%TO.C,J8*%
X164084000Y-106426000D03*
D26*
X166624000Y-106426000D03*
X169164000Y-106426000D03*
%TD*%
D27*
%TO.C,J4*%
X205036000Y-81793000D03*
X202336000Y-80593000D03*
D28*
X199836000Y-73793000D03*
D29*
X195236000Y-77693000D03*
D28*
X195736000Y-84993000D03*
%TD*%
D30*
%TO.C,Y1*%
X106106000Y-98298000D03*
X104206000Y-98298000D03*
%TD*%
D10*
%TO.C,H5*%
X187136000Y-78318500D03*
%TD*%
M02*
