%TF.GenerationSoftware,KiCad,Pcbnew,9.0.6*%
%TF.CreationDate,2026-02-27T14:47:49+01:00*%
%TF.ProjectId,nTerm2-S FT231,6e546572-6d32-42d5-9320-46543233312e,0.12*%
%TF.SameCoordinates,Original*%
%TF.FileFunction,Legend,Bot*%
%TF.FilePolarity,Positive*%
%FSLAX46Y46*%
G04 Gerber Fmt 4.6, Leading zero omitted, Abs format (unit mm)*
G04 Created by KiCad (PCBNEW 9.0.6) date 2026-02-27 14:47:49*
%MOMM*%
%LPD*%
G01*
G04 APERTURE LIST*
%ADD10C,0.600000*%
%ADD11C,0.500000*%
%ADD12C,0.300000*%
%ADD13C,0.200000*%
%ADD14C,0.100000*%
G04 APERTURE END LIST*
D10*
X155069264Y-101281228D02*
X155212121Y-101424085D01*
X155212121Y-101424085D02*
X155354978Y-101852657D01*
X155354978Y-101852657D02*
X155497835Y-102566942D01*
X155497835Y-102566942D02*
X155497835Y-103138371D01*
X155497835Y-103138371D02*
X155354978Y-103852657D01*
X155354978Y-103852657D02*
X155212121Y-104281228D01*
X155212121Y-104281228D02*
X155069264Y-104424085D01*
X154354978Y-100138371D02*
X153783550Y-99709800D01*
X153783550Y-99709800D02*
X153212121Y-100138371D01*
X151354978Y-101424085D02*
X151354978Y-101995514D01*
X151212121Y-101995514D02*
X151212121Y-101424085D01*
X151069264Y-101281228D02*
X151069264Y-102138371D01*
X150926407Y-101995514D02*
X150926407Y-101424085D01*
X150783549Y-101424085D02*
X150783549Y-101995514D01*
X151354978Y-101852657D02*
X151069264Y-102138371D01*
X151069264Y-102138371D02*
X150783549Y-101852657D01*
X151354978Y-101566942D02*
X151069264Y-101281228D01*
X151069264Y-101281228D02*
X150783549Y-101566942D01*
X151354978Y-101424085D02*
X151069264Y-101281228D01*
X151069264Y-101281228D02*
X150783549Y-101424085D01*
X150783549Y-101424085D02*
X150640692Y-101709800D01*
X150640692Y-101709800D02*
X150783549Y-101995514D01*
X150783549Y-101995514D02*
X151069264Y-102138371D01*
X151069264Y-102138371D02*
X151354978Y-101995514D01*
X151354978Y-101995514D02*
X151497835Y-101709800D01*
X151497835Y-101709800D02*
X151354978Y-101424085D01*
X149212121Y-103138371D02*
X146926406Y-103138371D01*
X145354978Y-101424085D02*
X145354978Y-101995514D01*
X145212121Y-101995514D02*
X145212121Y-101424085D01*
X145069264Y-101281228D02*
X145069264Y-102138371D01*
X144926407Y-101995514D02*
X144926407Y-101424085D01*
X144783549Y-101424085D02*
X144783549Y-101995514D01*
X145354978Y-101852657D02*
X145069264Y-102138371D01*
X145069264Y-102138371D02*
X144783549Y-101852657D01*
X145354978Y-101566942D02*
X145069264Y-101281228D01*
X145069264Y-101281228D02*
X144783549Y-101566942D01*
X145354978Y-101424085D02*
X145069264Y-101281228D01*
X145069264Y-101281228D02*
X144783549Y-101424085D01*
X144783549Y-101424085D02*
X144640692Y-101709800D01*
X144640692Y-101709800D02*
X144783549Y-101995514D01*
X144783549Y-101995514D02*
X145069264Y-102138371D01*
X145069264Y-102138371D02*
X145354978Y-101995514D01*
X145354978Y-101995514D02*
X145497835Y-101709800D01*
X145497835Y-101709800D02*
X145354978Y-101424085D01*
X142926406Y-100138371D02*
X142354978Y-99709800D01*
X142354978Y-99709800D02*
X141783549Y-100138371D01*
X141069263Y-101281228D02*
X140926406Y-101424085D01*
X140926406Y-101424085D02*
X140783549Y-101852657D01*
X140783549Y-101852657D02*
X140640692Y-102566942D01*
X140640692Y-102566942D02*
X140640692Y-103138371D01*
X140640692Y-103138371D02*
X140783549Y-103852657D01*
X140783549Y-103852657D02*
X140926406Y-104281228D01*
X140926406Y-104281228D02*
X141069263Y-104424085D01*
X138926406Y-99852657D02*
X138926406Y-100852657D01*
X138926406Y-100852657D02*
X139212121Y-101709800D01*
X139212121Y-101709800D02*
X139783549Y-102566942D01*
D11*
X181725814Y-93709428D02*
X181916291Y-93614190D01*
X181916291Y-93614190D02*
X182297243Y-93614190D01*
X182297243Y-93614190D02*
X182487719Y-93709428D01*
X182487719Y-93709428D02*
X182678195Y-93899904D01*
X182678195Y-93899904D02*
X182773433Y-94090380D01*
X182773433Y-94090380D02*
X182773433Y-94471333D01*
X182773433Y-94471333D02*
X182678195Y-94661809D01*
X182678195Y-94661809D02*
X182487719Y-94852285D01*
X182487719Y-94852285D02*
X182297243Y-94947523D01*
X182297243Y-94947523D02*
X181916291Y-94947523D01*
X181916291Y-94947523D02*
X181725814Y-94852285D01*
X182106767Y-92947523D02*
X182582957Y-93042761D01*
X182582957Y-93042761D02*
X183059148Y-93328476D01*
X183059148Y-93328476D02*
X183344862Y-93804666D01*
X183344862Y-93804666D02*
X183440100Y-94280857D01*
X183440100Y-94280857D02*
X183344862Y-94757047D01*
X183344862Y-94757047D02*
X183059148Y-95233238D01*
X183059148Y-95233238D02*
X182582957Y-95518952D01*
X182582957Y-95518952D02*
X182106767Y-95614190D01*
X182106767Y-95614190D02*
X181630576Y-95518952D01*
X181630576Y-95518952D02*
X181154386Y-95233238D01*
X181154386Y-95233238D02*
X180868672Y-94757047D01*
X180868672Y-94757047D02*
X180773433Y-94280857D01*
X180773433Y-94280857D02*
X180868672Y-93804666D01*
X180868672Y-93804666D02*
X181154386Y-93328476D01*
X181154386Y-93328476D02*
X181630576Y-93042761D01*
X181630576Y-93042761D02*
X182106767Y-92947523D01*
X178487719Y-93423714D02*
X178392481Y-93328476D01*
X178392481Y-93328476D02*
X178202005Y-93233238D01*
X178202005Y-93233238D02*
X177725814Y-93233238D01*
X177725814Y-93233238D02*
X177535338Y-93328476D01*
X177535338Y-93328476D02*
X177440100Y-93423714D01*
X177440100Y-93423714D02*
X177344862Y-93614190D01*
X177344862Y-93614190D02*
X177344862Y-93804666D01*
X177344862Y-93804666D02*
X177440100Y-94090380D01*
X177440100Y-94090380D02*
X178582957Y-95233238D01*
X178582957Y-95233238D02*
X177344862Y-95233238D01*
X176106767Y-93233238D02*
X175916290Y-93233238D01*
X175916290Y-93233238D02*
X175725814Y-93328476D01*
X175725814Y-93328476D02*
X175630576Y-93423714D01*
X175630576Y-93423714D02*
X175535338Y-93614190D01*
X175535338Y-93614190D02*
X175440100Y-93995142D01*
X175440100Y-93995142D02*
X175440100Y-94471333D01*
X175440100Y-94471333D02*
X175535338Y-94852285D01*
X175535338Y-94852285D02*
X175630576Y-95042761D01*
X175630576Y-95042761D02*
X175725814Y-95138000D01*
X175725814Y-95138000D02*
X175916290Y-95233238D01*
X175916290Y-95233238D02*
X176106767Y-95233238D01*
X176106767Y-95233238D02*
X176297243Y-95138000D01*
X176297243Y-95138000D02*
X176392481Y-95042761D01*
X176392481Y-95042761D02*
X176487719Y-94852285D01*
X176487719Y-94852285D02*
X176582957Y-94471333D01*
X176582957Y-94471333D02*
X176582957Y-93995142D01*
X176582957Y-93995142D02*
X176487719Y-93614190D01*
X176487719Y-93614190D02*
X176392481Y-93423714D01*
X176392481Y-93423714D02*
X176297243Y-93328476D01*
X176297243Y-93328476D02*
X176106767Y-93233238D01*
X174678195Y-93423714D02*
X174582957Y-93328476D01*
X174582957Y-93328476D02*
X174392481Y-93233238D01*
X174392481Y-93233238D02*
X173916290Y-93233238D01*
X173916290Y-93233238D02*
X173725814Y-93328476D01*
X173725814Y-93328476D02*
X173630576Y-93423714D01*
X173630576Y-93423714D02*
X173535338Y-93614190D01*
X173535338Y-93614190D02*
X173535338Y-93804666D01*
X173535338Y-93804666D02*
X173630576Y-94090380D01*
X173630576Y-94090380D02*
X174773433Y-95233238D01*
X174773433Y-95233238D02*
X173535338Y-95233238D01*
X171725814Y-93233238D02*
X172678195Y-93233238D01*
X172678195Y-93233238D02*
X172773433Y-94185619D01*
X172773433Y-94185619D02*
X172678195Y-94090380D01*
X172678195Y-94090380D02*
X172487719Y-93995142D01*
X172487719Y-93995142D02*
X172011528Y-93995142D01*
X172011528Y-93995142D02*
X171821052Y-94090380D01*
X171821052Y-94090380D02*
X171725814Y-94185619D01*
X171725814Y-94185619D02*
X171630576Y-94376095D01*
X171630576Y-94376095D02*
X171630576Y-94852285D01*
X171630576Y-94852285D02*
X171725814Y-95042761D01*
X171725814Y-95042761D02*
X171821052Y-95138000D01*
X171821052Y-95138000D02*
X172011528Y-95233238D01*
X172011528Y-95233238D02*
X172487719Y-95233238D01*
X172487719Y-95233238D02*
X172678195Y-95138000D01*
X172678195Y-95138000D02*
X172773433Y-95042761D01*
X170678195Y-95138000D02*
X170678195Y-95233238D01*
X170678195Y-95233238D02*
X170773433Y-95423714D01*
X170773433Y-95423714D02*
X170868671Y-95518952D01*
X168392480Y-93423714D02*
X168297242Y-93328476D01*
X168297242Y-93328476D02*
X168106766Y-93233238D01*
X168106766Y-93233238D02*
X167630575Y-93233238D01*
X167630575Y-93233238D02*
X167440099Y-93328476D01*
X167440099Y-93328476D02*
X167344861Y-93423714D01*
X167344861Y-93423714D02*
X167249623Y-93614190D01*
X167249623Y-93614190D02*
X167249623Y-93804666D01*
X167249623Y-93804666D02*
X167344861Y-94090380D01*
X167344861Y-94090380D02*
X168487718Y-95233238D01*
X168487718Y-95233238D02*
X167249623Y-95233238D01*
X166011528Y-93233238D02*
X165821051Y-93233238D01*
X165821051Y-93233238D02*
X165630575Y-93328476D01*
X165630575Y-93328476D02*
X165535337Y-93423714D01*
X165535337Y-93423714D02*
X165440099Y-93614190D01*
X165440099Y-93614190D02*
X165344861Y-93995142D01*
X165344861Y-93995142D02*
X165344861Y-94471333D01*
X165344861Y-94471333D02*
X165440099Y-94852285D01*
X165440099Y-94852285D02*
X165535337Y-95042761D01*
X165535337Y-95042761D02*
X165630575Y-95138000D01*
X165630575Y-95138000D02*
X165821051Y-95233238D01*
X165821051Y-95233238D02*
X166011528Y-95233238D01*
X166011528Y-95233238D02*
X166202004Y-95138000D01*
X166202004Y-95138000D02*
X166297242Y-95042761D01*
X166297242Y-95042761D02*
X166392480Y-94852285D01*
X166392480Y-94852285D02*
X166487718Y-94471333D01*
X166487718Y-94471333D02*
X166487718Y-93995142D01*
X166487718Y-93995142D02*
X166392480Y-93614190D01*
X166392480Y-93614190D02*
X166297242Y-93423714D01*
X166297242Y-93423714D02*
X166202004Y-93328476D01*
X166202004Y-93328476D02*
X166011528Y-93233238D01*
X164582956Y-93423714D02*
X164487718Y-93328476D01*
X164487718Y-93328476D02*
X164297242Y-93233238D01*
X164297242Y-93233238D02*
X163821051Y-93233238D01*
X163821051Y-93233238D02*
X163630575Y-93328476D01*
X163630575Y-93328476D02*
X163535337Y-93423714D01*
X163535337Y-93423714D02*
X163440099Y-93614190D01*
X163440099Y-93614190D02*
X163440099Y-93804666D01*
X163440099Y-93804666D02*
X163535337Y-94090380D01*
X163535337Y-94090380D02*
X164678194Y-95233238D01*
X164678194Y-95233238D02*
X163440099Y-95233238D01*
X161725813Y-93233238D02*
X162106766Y-93233238D01*
X162106766Y-93233238D02*
X162297242Y-93328476D01*
X162297242Y-93328476D02*
X162392480Y-93423714D01*
X162392480Y-93423714D02*
X162582956Y-93709428D01*
X162582956Y-93709428D02*
X162678194Y-94090380D01*
X162678194Y-94090380D02*
X162678194Y-94852285D01*
X162678194Y-94852285D02*
X162582956Y-95042761D01*
X162582956Y-95042761D02*
X162487718Y-95138000D01*
X162487718Y-95138000D02*
X162297242Y-95233238D01*
X162297242Y-95233238D02*
X161916289Y-95233238D01*
X161916289Y-95233238D02*
X161725813Y-95138000D01*
X161725813Y-95138000D02*
X161630575Y-95042761D01*
X161630575Y-95042761D02*
X161535337Y-94852285D01*
X161535337Y-94852285D02*
X161535337Y-94376095D01*
X161535337Y-94376095D02*
X161630575Y-94185619D01*
X161630575Y-94185619D02*
X161725813Y-94090380D01*
X161725813Y-94090380D02*
X161916289Y-93995142D01*
X161916289Y-93995142D02*
X162297242Y-93995142D01*
X162297242Y-93995142D02*
X162487718Y-94090380D01*
X162487718Y-94090380D02*
X162582956Y-94185619D01*
X162582956Y-94185619D02*
X162678194Y-94376095D01*
X159249622Y-95138000D02*
X158963908Y-95233238D01*
X158963908Y-95233238D02*
X158487717Y-95233238D01*
X158487717Y-95233238D02*
X158297241Y-95138000D01*
X158297241Y-95138000D02*
X158202003Y-95042761D01*
X158202003Y-95042761D02*
X158106765Y-94852285D01*
X158106765Y-94852285D02*
X158106765Y-94661809D01*
X158106765Y-94661809D02*
X158202003Y-94471333D01*
X158202003Y-94471333D02*
X158297241Y-94376095D01*
X158297241Y-94376095D02*
X158487717Y-94280857D01*
X158487717Y-94280857D02*
X158868670Y-94185619D01*
X158868670Y-94185619D02*
X159059146Y-94090380D01*
X159059146Y-94090380D02*
X159154384Y-93995142D01*
X159154384Y-93995142D02*
X159249622Y-93804666D01*
X159249622Y-93804666D02*
X159249622Y-93614190D01*
X159249622Y-93614190D02*
X159154384Y-93423714D01*
X159154384Y-93423714D02*
X159059146Y-93328476D01*
X159059146Y-93328476D02*
X158868670Y-93233238D01*
X158868670Y-93233238D02*
X158392479Y-93233238D01*
X158392479Y-93233238D02*
X158106765Y-93328476D01*
X157249622Y-93899904D02*
X157249622Y-95899904D01*
X157249622Y-93995142D02*
X157059146Y-93899904D01*
X157059146Y-93899904D02*
X156678193Y-93899904D01*
X156678193Y-93899904D02*
X156487717Y-93995142D01*
X156487717Y-93995142D02*
X156392479Y-94090380D01*
X156392479Y-94090380D02*
X156297241Y-94280857D01*
X156297241Y-94280857D02*
X156297241Y-94852285D01*
X156297241Y-94852285D02*
X156392479Y-95042761D01*
X156392479Y-95042761D02*
X156487717Y-95138000D01*
X156487717Y-95138000D02*
X156678193Y-95233238D01*
X156678193Y-95233238D02*
X157059146Y-95233238D01*
X157059146Y-95233238D02*
X157249622Y-95138000D01*
X155154384Y-95233238D02*
X155344860Y-95138000D01*
X155344860Y-95138000D02*
X155440098Y-95042761D01*
X155440098Y-95042761D02*
X155535336Y-94852285D01*
X155535336Y-94852285D02*
X155535336Y-94280857D01*
X155535336Y-94280857D02*
X155440098Y-94090380D01*
X155440098Y-94090380D02*
X155344860Y-93995142D01*
X155344860Y-93995142D02*
X155154384Y-93899904D01*
X155154384Y-93899904D02*
X154868669Y-93899904D01*
X154868669Y-93899904D02*
X154678193Y-93995142D01*
X154678193Y-93995142D02*
X154582955Y-94090380D01*
X154582955Y-94090380D02*
X154487717Y-94280857D01*
X154487717Y-94280857D02*
X154487717Y-94852285D01*
X154487717Y-94852285D02*
X154582955Y-95042761D01*
X154582955Y-95042761D02*
X154678193Y-95138000D01*
X154678193Y-95138000D02*
X154868669Y-95233238D01*
X154868669Y-95233238D02*
X155154384Y-95233238D01*
X153630574Y-95233238D02*
X153630574Y-93899904D01*
X153630574Y-94280857D02*
X153535336Y-94090380D01*
X153535336Y-94090380D02*
X153440098Y-93995142D01*
X153440098Y-93995142D02*
X153249622Y-93899904D01*
X153249622Y-93899904D02*
X153059145Y-93899904D01*
X152106765Y-95233238D02*
X152297241Y-95138000D01*
X152297241Y-95138000D02*
X152392479Y-95042761D01*
X152392479Y-95042761D02*
X152487717Y-94852285D01*
X152487717Y-94852285D02*
X152487717Y-94280857D01*
X152487717Y-94280857D02*
X152392479Y-94090380D01*
X152392479Y-94090380D02*
X152297241Y-93995142D01*
X152297241Y-93995142D02*
X152106765Y-93899904D01*
X152106765Y-93899904D02*
X151821050Y-93899904D01*
X151821050Y-93899904D02*
X151630574Y-93995142D01*
X151630574Y-93995142D02*
X151535336Y-94090380D01*
X151535336Y-94090380D02*
X151440098Y-94280857D01*
X151440098Y-94280857D02*
X151440098Y-94852285D01*
X151440098Y-94852285D02*
X151535336Y-95042761D01*
X151535336Y-95042761D02*
X151630574Y-95138000D01*
X151630574Y-95138000D02*
X151821050Y-95233238D01*
X151821050Y-95233238D02*
X152106765Y-95233238D01*
X150678193Y-95138000D02*
X150487717Y-95233238D01*
X150487717Y-95233238D02*
X150106765Y-95233238D01*
X150106765Y-95233238D02*
X149916288Y-95138000D01*
X149916288Y-95138000D02*
X149821050Y-94947523D01*
X149821050Y-94947523D02*
X149821050Y-94852285D01*
X149821050Y-94852285D02*
X149916288Y-94661809D01*
X149916288Y-94661809D02*
X150106765Y-94566571D01*
X150106765Y-94566571D02*
X150392479Y-94566571D01*
X150392479Y-94566571D02*
X150582955Y-94471333D01*
X150582955Y-94471333D02*
X150678193Y-94280857D01*
X150678193Y-94280857D02*
X150678193Y-94185619D01*
X150678193Y-94185619D02*
X150582955Y-93995142D01*
X150582955Y-93995142D02*
X150392479Y-93899904D01*
X150392479Y-93899904D02*
X150106765Y-93899904D01*
X150106765Y-93899904D02*
X149916288Y-93995142D01*
X147725811Y-93233238D02*
X146582954Y-93233238D01*
X147154383Y-95233238D02*
X147154383Y-93233238D01*
X145154382Y-95138000D02*
X145344858Y-95233238D01*
X145344858Y-95233238D02*
X145725811Y-95233238D01*
X145725811Y-95233238D02*
X145916287Y-95138000D01*
X145916287Y-95138000D02*
X146011525Y-94947523D01*
X146011525Y-94947523D02*
X146011525Y-94185619D01*
X146011525Y-94185619D02*
X145916287Y-93995142D01*
X145916287Y-93995142D02*
X145725811Y-93899904D01*
X145725811Y-93899904D02*
X145344858Y-93899904D01*
X145344858Y-93899904D02*
X145154382Y-93995142D01*
X145154382Y-93995142D02*
X145059144Y-94185619D01*
X145059144Y-94185619D02*
X145059144Y-94376095D01*
X145059144Y-94376095D02*
X146011525Y-94566571D01*
X143344858Y-95138000D02*
X143535334Y-95233238D01*
X143535334Y-95233238D02*
X143916287Y-95233238D01*
X143916287Y-95233238D02*
X144106763Y-95138000D01*
X144106763Y-95138000D02*
X144202001Y-95042761D01*
X144202001Y-95042761D02*
X144297239Y-94852285D01*
X144297239Y-94852285D02*
X144297239Y-94280857D01*
X144297239Y-94280857D02*
X144202001Y-94090380D01*
X144202001Y-94090380D02*
X144106763Y-93995142D01*
X144106763Y-93995142D02*
X143916287Y-93899904D01*
X143916287Y-93899904D02*
X143535334Y-93899904D01*
X143535334Y-93899904D02*
X143344858Y-93995142D01*
X142487715Y-95233238D02*
X142487715Y-93233238D01*
X141630572Y-95233238D02*
X141630572Y-94185619D01*
X141630572Y-94185619D02*
X141725810Y-93995142D01*
X141725810Y-93995142D02*
X141916286Y-93899904D01*
X141916286Y-93899904D02*
X142202001Y-93899904D01*
X142202001Y-93899904D02*
X142392477Y-93995142D01*
X142392477Y-93995142D02*
X142487715Y-94090380D01*
X140582953Y-95138000D02*
X140582953Y-95233238D01*
X140582953Y-95233238D02*
X140678191Y-95423714D01*
X140678191Y-95423714D02*
X140773429Y-95518952D01*
X138202000Y-95233238D02*
X138202000Y-93233238D01*
X138202000Y-93233238D02*
X137440095Y-93233238D01*
X137440095Y-93233238D02*
X137249619Y-93328476D01*
X137249619Y-93328476D02*
X137154381Y-93423714D01*
X137154381Y-93423714D02*
X137059143Y-93614190D01*
X137059143Y-93614190D02*
X137059143Y-93899904D01*
X137059143Y-93899904D02*
X137154381Y-94090380D01*
X137154381Y-94090380D02*
X137249619Y-94185619D01*
X137249619Y-94185619D02*
X137440095Y-94280857D01*
X137440095Y-94280857D02*
X138202000Y-94280857D01*
X135440095Y-95138000D02*
X135630571Y-95233238D01*
X135630571Y-95233238D02*
X136011524Y-95233238D01*
X136011524Y-95233238D02*
X136202000Y-95138000D01*
X136202000Y-95138000D02*
X136297238Y-94947523D01*
X136297238Y-94947523D02*
X136297238Y-94185619D01*
X136297238Y-94185619D02*
X136202000Y-93995142D01*
X136202000Y-93995142D02*
X136011524Y-93899904D01*
X136011524Y-93899904D02*
X135630571Y-93899904D01*
X135630571Y-93899904D02*
X135440095Y-93995142D01*
X135440095Y-93995142D02*
X135344857Y-94185619D01*
X135344857Y-94185619D02*
X135344857Y-94376095D01*
X135344857Y-94376095D02*
X136297238Y-94566571D01*
X134773428Y-93899904D02*
X134011524Y-93899904D01*
X134487714Y-93233238D02*
X134487714Y-94947523D01*
X134487714Y-94947523D02*
X134392476Y-95138000D01*
X134392476Y-95138000D02*
X134202000Y-95233238D01*
X134202000Y-95233238D02*
X134011524Y-95233238D01*
X132582952Y-95138000D02*
X132773428Y-95233238D01*
X132773428Y-95233238D02*
X133154381Y-95233238D01*
X133154381Y-95233238D02*
X133344857Y-95138000D01*
X133344857Y-95138000D02*
X133440095Y-94947523D01*
X133440095Y-94947523D02*
X133440095Y-94185619D01*
X133440095Y-94185619D02*
X133344857Y-93995142D01*
X133344857Y-93995142D02*
X133154381Y-93899904D01*
X133154381Y-93899904D02*
X132773428Y-93899904D01*
X132773428Y-93899904D02*
X132582952Y-93995142D01*
X132582952Y-93995142D02*
X132487714Y-94185619D01*
X132487714Y-94185619D02*
X132487714Y-94376095D01*
X132487714Y-94376095D02*
X133440095Y-94566571D01*
X131630571Y-95233238D02*
X131630571Y-93899904D01*
X131630571Y-94280857D02*
X131535333Y-94090380D01*
X131535333Y-94090380D02*
X131440095Y-93995142D01*
X131440095Y-93995142D02*
X131249619Y-93899904D01*
X131249619Y-93899904D02*
X131059142Y-93899904D01*
X128011523Y-95233238D02*
X128011523Y-93233238D01*
X128011523Y-95138000D02*
X128201999Y-95233238D01*
X128201999Y-95233238D02*
X128582952Y-95233238D01*
X128582952Y-95233238D02*
X128773428Y-95138000D01*
X128773428Y-95138000D02*
X128868666Y-95042761D01*
X128868666Y-95042761D02*
X128963904Y-94852285D01*
X128963904Y-94852285D02*
X128963904Y-94280857D01*
X128963904Y-94280857D02*
X128868666Y-94090380D01*
X128868666Y-94090380D02*
X128773428Y-93995142D01*
X128773428Y-93995142D02*
X128582952Y-93899904D01*
X128582952Y-93899904D02*
X128201999Y-93899904D01*
X128201999Y-93899904D02*
X128011523Y-93995142D01*
X126297237Y-95138000D02*
X126487713Y-95233238D01*
X126487713Y-95233238D02*
X126868666Y-95233238D01*
X126868666Y-95233238D02*
X127059142Y-95138000D01*
X127059142Y-95138000D02*
X127154380Y-94947523D01*
X127154380Y-94947523D02*
X127154380Y-94185619D01*
X127154380Y-94185619D02*
X127059142Y-93995142D01*
X127059142Y-93995142D02*
X126868666Y-93899904D01*
X126868666Y-93899904D02*
X126487713Y-93899904D01*
X126487713Y-93899904D02*
X126297237Y-93995142D01*
X126297237Y-93995142D02*
X126201999Y-94185619D01*
X126201999Y-94185619D02*
X126201999Y-94376095D01*
X126201999Y-94376095D02*
X127154380Y-94566571D01*
X124106760Y-93233238D02*
X123440094Y-95233238D01*
X123440094Y-95233238D02*
X122773427Y-93233238D01*
X122106760Y-95233238D02*
X122106760Y-93899904D01*
X122106760Y-94280857D02*
X122011522Y-94090380D01*
X122011522Y-94090380D02*
X121916284Y-93995142D01*
X121916284Y-93995142D02*
X121725808Y-93899904D01*
X121725808Y-93899904D02*
X121535331Y-93899904D01*
X120582951Y-95233238D02*
X120773427Y-95138000D01*
X120773427Y-95138000D02*
X120868665Y-95042761D01*
X120868665Y-95042761D02*
X120963903Y-94852285D01*
X120963903Y-94852285D02*
X120963903Y-94280857D01*
X120963903Y-94280857D02*
X120868665Y-94090380D01*
X120868665Y-94090380D02*
X120773427Y-93995142D01*
X120773427Y-93995142D02*
X120582951Y-93899904D01*
X120582951Y-93899904D02*
X120297236Y-93899904D01*
X120297236Y-93899904D02*
X120106760Y-93995142D01*
X120106760Y-93995142D02*
X120011522Y-94090380D01*
X120011522Y-94090380D02*
X119916284Y-94280857D01*
X119916284Y-94280857D02*
X119916284Y-94852285D01*
X119916284Y-94852285D02*
X120011522Y-95042761D01*
X120011522Y-95042761D02*
X120106760Y-95138000D01*
X120106760Y-95138000D02*
X120297236Y-95233238D01*
X120297236Y-95233238D02*
X120582951Y-95233238D01*
X118773427Y-95233238D02*
X118963903Y-95138000D01*
X118963903Y-95138000D02*
X119059141Y-95042761D01*
X119059141Y-95042761D02*
X119154379Y-94852285D01*
X119154379Y-94852285D02*
X119154379Y-94280857D01*
X119154379Y-94280857D02*
X119059141Y-94090380D01*
X119059141Y-94090380D02*
X118963903Y-93995142D01*
X118963903Y-93995142D02*
X118773427Y-93899904D01*
X118773427Y-93899904D02*
X118487712Y-93899904D01*
X118487712Y-93899904D02*
X118297236Y-93995142D01*
X118297236Y-93995142D02*
X118201998Y-94090380D01*
X118201998Y-94090380D02*
X118106760Y-94280857D01*
X118106760Y-94280857D02*
X118106760Y-94852285D01*
X118106760Y-94852285D02*
X118201998Y-95042761D01*
X118201998Y-95042761D02*
X118297236Y-95138000D01*
X118297236Y-95138000D02*
X118487712Y-95233238D01*
X118487712Y-95233238D02*
X118773427Y-95233238D01*
X117249617Y-95233238D02*
X117249617Y-93899904D01*
X117249617Y-94090380D02*
X117154379Y-93995142D01*
X117154379Y-93995142D02*
X116963903Y-93899904D01*
X116963903Y-93899904D02*
X116678188Y-93899904D01*
X116678188Y-93899904D02*
X116487712Y-93995142D01*
X116487712Y-93995142D02*
X116392474Y-94185619D01*
X116392474Y-94185619D02*
X116392474Y-95233238D01*
X116392474Y-94185619D02*
X116297236Y-93995142D01*
X116297236Y-93995142D02*
X116106760Y-93899904D01*
X116106760Y-93899904D02*
X115821046Y-93899904D01*
X115821046Y-93899904D02*
X115630569Y-93995142D01*
X115630569Y-93995142D02*
X115535331Y-94185619D01*
X115535331Y-94185619D02*
X115535331Y-95233238D01*
X113821045Y-95138000D02*
X114011521Y-95233238D01*
X114011521Y-95233238D02*
X114392474Y-95233238D01*
X114392474Y-95233238D02*
X114582950Y-95138000D01*
X114582950Y-95138000D02*
X114678188Y-94947523D01*
X114678188Y-94947523D02*
X114678188Y-94185619D01*
X114678188Y-94185619D02*
X114582950Y-93995142D01*
X114582950Y-93995142D02*
X114392474Y-93899904D01*
X114392474Y-93899904D02*
X114011521Y-93899904D01*
X114011521Y-93899904D02*
X113821045Y-93995142D01*
X113821045Y-93995142D02*
X113725807Y-94185619D01*
X113725807Y-94185619D02*
X113725807Y-94376095D01*
X113725807Y-94376095D02*
X114678188Y-94566571D01*
X112868664Y-93899904D02*
X112868664Y-95233238D01*
X112868664Y-94090380D02*
X112773426Y-93995142D01*
X112773426Y-93995142D02*
X112582950Y-93899904D01*
X112582950Y-93899904D02*
X112297235Y-93899904D01*
X112297235Y-93899904D02*
X112106759Y-93995142D01*
X112106759Y-93995142D02*
X112011521Y-94185619D01*
X112011521Y-94185619D02*
X112011521Y-95233238D01*
D12*
X170768489Y-110161912D02*
X170768489Y-108661912D01*
X170125632Y-110161912D02*
X170125632Y-109376198D01*
X170125632Y-109376198D02*
X170197060Y-109233341D01*
X170197060Y-109233341D02*
X170339917Y-109161912D01*
X170339917Y-109161912D02*
X170554203Y-109161912D01*
X170554203Y-109161912D02*
X170697060Y-109233341D01*
X170697060Y-109233341D02*
X170768489Y-109304769D01*
X169625631Y-109161912D02*
X169054203Y-109161912D01*
X169411346Y-108661912D02*
X169411346Y-109947626D01*
X169411346Y-109947626D02*
X169339917Y-110090484D01*
X169339917Y-110090484D02*
X169197060Y-110161912D01*
X169197060Y-110161912D02*
X169054203Y-110161912D01*
X168768488Y-109161912D02*
X168197060Y-109161912D01*
X168554203Y-108661912D02*
X168554203Y-109947626D01*
X168554203Y-109947626D02*
X168482774Y-110090484D01*
X168482774Y-110090484D02*
X168339917Y-110161912D01*
X168339917Y-110161912D02*
X168197060Y-110161912D01*
X167697060Y-109161912D02*
X167697060Y-110661912D01*
X167697060Y-109233341D02*
X167554203Y-109161912D01*
X167554203Y-109161912D02*
X167268488Y-109161912D01*
X167268488Y-109161912D02*
X167125631Y-109233341D01*
X167125631Y-109233341D02*
X167054203Y-109304769D01*
X167054203Y-109304769D02*
X166982774Y-109447626D01*
X166982774Y-109447626D02*
X166982774Y-109876198D01*
X166982774Y-109876198D02*
X167054203Y-110019055D01*
X167054203Y-110019055D02*
X167125631Y-110090484D01*
X167125631Y-110090484D02*
X167268488Y-110161912D01*
X167268488Y-110161912D02*
X167554203Y-110161912D01*
X167554203Y-110161912D02*
X167697060Y-110090484D01*
X166411345Y-110090484D02*
X166268488Y-110161912D01*
X166268488Y-110161912D02*
X165982774Y-110161912D01*
X165982774Y-110161912D02*
X165839917Y-110090484D01*
X165839917Y-110090484D02*
X165768488Y-109947626D01*
X165768488Y-109947626D02*
X165768488Y-109876198D01*
X165768488Y-109876198D02*
X165839917Y-109733341D01*
X165839917Y-109733341D02*
X165982774Y-109661912D01*
X165982774Y-109661912D02*
X166197060Y-109661912D01*
X166197060Y-109661912D02*
X166339917Y-109590484D01*
X166339917Y-109590484D02*
X166411345Y-109447626D01*
X166411345Y-109447626D02*
X166411345Y-109376198D01*
X166411345Y-109376198D02*
X166339917Y-109233341D01*
X166339917Y-109233341D02*
X166197060Y-109161912D01*
X166197060Y-109161912D02*
X165982774Y-109161912D01*
X165982774Y-109161912D02*
X165839917Y-109233341D01*
X165125631Y-110019055D02*
X165054202Y-110090484D01*
X165054202Y-110090484D02*
X165125631Y-110161912D01*
X165125631Y-110161912D02*
X165197059Y-110090484D01*
X165197059Y-110090484D02*
X165125631Y-110019055D01*
X165125631Y-110019055D02*
X165125631Y-110161912D01*
X165125631Y-109233341D02*
X165054202Y-109304769D01*
X165054202Y-109304769D02*
X165125631Y-109376198D01*
X165125631Y-109376198D02*
X165197059Y-109304769D01*
X165197059Y-109304769D02*
X165125631Y-109233341D01*
X165125631Y-109233341D02*
X165125631Y-109376198D01*
X163339916Y-108590484D02*
X164625630Y-110519055D01*
X161768487Y-108590484D02*
X163054201Y-110519055D01*
X160625630Y-109161912D02*
X160625630Y-110376198D01*
X160625630Y-110376198D02*
X160697058Y-110519055D01*
X160697058Y-110519055D02*
X160768487Y-110590484D01*
X160768487Y-110590484D02*
X160911344Y-110661912D01*
X160911344Y-110661912D02*
X161125630Y-110661912D01*
X161125630Y-110661912D02*
X161268487Y-110590484D01*
X160625630Y-110090484D02*
X160768487Y-110161912D01*
X160768487Y-110161912D02*
X161054201Y-110161912D01*
X161054201Y-110161912D02*
X161197058Y-110090484D01*
X161197058Y-110090484D02*
X161268487Y-110019055D01*
X161268487Y-110019055D02*
X161339915Y-109876198D01*
X161339915Y-109876198D02*
X161339915Y-109447626D01*
X161339915Y-109447626D02*
X161268487Y-109304769D01*
X161268487Y-109304769D02*
X161197058Y-109233341D01*
X161197058Y-109233341D02*
X161054201Y-109161912D01*
X161054201Y-109161912D02*
X160768487Y-109161912D01*
X160768487Y-109161912D02*
X160625630Y-109233341D01*
X159911344Y-110161912D02*
X159911344Y-109161912D01*
X159911344Y-108661912D02*
X159982772Y-108733341D01*
X159982772Y-108733341D02*
X159911344Y-108804769D01*
X159911344Y-108804769D02*
X159839915Y-108733341D01*
X159839915Y-108733341D02*
X159911344Y-108661912D01*
X159911344Y-108661912D02*
X159911344Y-108804769D01*
X159411343Y-109161912D02*
X158839915Y-109161912D01*
X159197058Y-108661912D02*
X159197058Y-109947626D01*
X159197058Y-109947626D02*
X159125629Y-110090484D01*
X159125629Y-110090484D02*
X158982772Y-110161912D01*
X158982772Y-110161912D02*
X158839915Y-110161912D01*
X158339915Y-110161912D02*
X158339915Y-108661912D01*
X157697058Y-110161912D02*
X157697058Y-109376198D01*
X157697058Y-109376198D02*
X157768486Y-109233341D01*
X157768486Y-109233341D02*
X157911343Y-109161912D01*
X157911343Y-109161912D02*
X158125629Y-109161912D01*
X158125629Y-109161912D02*
X158268486Y-109233341D01*
X158268486Y-109233341D02*
X158339915Y-109304769D01*
X156339915Y-109161912D02*
X156339915Y-110161912D01*
X156982772Y-109161912D02*
X156982772Y-109947626D01*
X156982772Y-109947626D02*
X156911343Y-110090484D01*
X156911343Y-110090484D02*
X156768486Y-110161912D01*
X156768486Y-110161912D02*
X156554200Y-110161912D01*
X156554200Y-110161912D02*
X156411343Y-110090484D01*
X156411343Y-110090484D02*
X156339915Y-110019055D01*
X155625629Y-110161912D02*
X155625629Y-108661912D01*
X155625629Y-109233341D02*
X155482772Y-109161912D01*
X155482772Y-109161912D02*
X155197057Y-109161912D01*
X155197057Y-109161912D02*
X155054200Y-109233341D01*
X155054200Y-109233341D02*
X154982772Y-109304769D01*
X154982772Y-109304769D02*
X154911343Y-109447626D01*
X154911343Y-109447626D02*
X154911343Y-109876198D01*
X154911343Y-109876198D02*
X154982772Y-110019055D01*
X154982772Y-110019055D02*
X155054200Y-110090484D01*
X155054200Y-110090484D02*
X155197057Y-110161912D01*
X155197057Y-110161912D02*
X155482772Y-110161912D01*
X155482772Y-110161912D02*
X155625629Y-110090484D01*
X154268486Y-110019055D02*
X154197057Y-110090484D01*
X154197057Y-110090484D02*
X154268486Y-110161912D01*
X154268486Y-110161912D02*
X154339914Y-110090484D01*
X154339914Y-110090484D02*
X154268486Y-110019055D01*
X154268486Y-110019055D02*
X154268486Y-110161912D01*
X152911343Y-110090484D02*
X153054200Y-110161912D01*
X153054200Y-110161912D02*
X153339914Y-110161912D01*
X153339914Y-110161912D02*
X153482771Y-110090484D01*
X153482771Y-110090484D02*
X153554200Y-110019055D01*
X153554200Y-110019055D02*
X153625628Y-109876198D01*
X153625628Y-109876198D02*
X153625628Y-109447626D01*
X153625628Y-109447626D02*
X153554200Y-109304769D01*
X153554200Y-109304769D02*
X153482771Y-109233341D01*
X153482771Y-109233341D02*
X153339914Y-109161912D01*
X153339914Y-109161912D02*
X153054200Y-109161912D01*
X153054200Y-109161912D02*
X152911343Y-109233341D01*
X152054200Y-110161912D02*
X152197057Y-110090484D01*
X152197057Y-110090484D02*
X152268486Y-110019055D01*
X152268486Y-110019055D02*
X152339914Y-109876198D01*
X152339914Y-109876198D02*
X152339914Y-109447626D01*
X152339914Y-109447626D02*
X152268486Y-109304769D01*
X152268486Y-109304769D02*
X152197057Y-109233341D01*
X152197057Y-109233341D02*
X152054200Y-109161912D01*
X152054200Y-109161912D02*
X151839914Y-109161912D01*
X151839914Y-109161912D02*
X151697057Y-109233341D01*
X151697057Y-109233341D02*
X151625629Y-109304769D01*
X151625629Y-109304769D02*
X151554200Y-109447626D01*
X151554200Y-109447626D02*
X151554200Y-109876198D01*
X151554200Y-109876198D02*
X151625629Y-110019055D01*
X151625629Y-110019055D02*
X151697057Y-110090484D01*
X151697057Y-110090484D02*
X151839914Y-110161912D01*
X151839914Y-110161912D02*
X152054200Y-110161912D01*
X150911343Y-110161912D02*
X150911343Y-109161912D01*
X150911343Y-109304769D02*
X150839914Y-109233341D01*
X150839914Y-109233341D02*
X150697057Y-109161912D01*
X150697057Y-109161912D02*
X150482771Y-109161912D01*
X150482771Y-109161912D02*
X150339914Y-109233341D01*
X150339914Y-109233341D02*
X150268486Y-109376198D01*
X150268486Y-109376198D02*
X150268486Y-110161912D01*
X150268486Y-109376198D02*
X150197057Y-109233341D01*
X150197057Y-109233341D02*
X150054200Y-109161912D01*
X150054200Y-109161912D02*
X149839914Y-109161912D01*
X149839914Y-109161912D02*
X149697057Y-109233341D01*
X149697057Y-109233341D02*
X149625628Y-109376198D01*
X149625628Y-109376198D02*
X149625628Y-110161912D01*
X147839914Y-108590484D02*
X149125628Y-110519055D01*
X146482771Y-110161912D02*
X146982771Y-109447626D01*
X147339914Y-110161912D02*
X147339914Y-108661912D01*
X147339914Y-108661912D02*
X146768485Y-108661912D01*
X146768485Y-108661912D02*
X146625628Y-108733341D01*
X146625628Y-108733341D02*
X146554199Y-108804769D01*
X146554199Y-108804769D02*
X146482771Y-108947626D01*
X146482771Y-108947626D02*
X146482771Y-109161912D01*
X146482771Y-109161912D02*
X146554199Y-109304769D01*
X146554199Y-109304769D02*
X146625628Y-109376198D01*
X146625628Y-109376198D02*
X146768485Y-109447626D01*
X146768485Y-109447626D02*
X147339914Y-109447626D01*
X145268485Y-110090484D02*
X145411342Y-110161912D01*
X145411342Y-110161912D02*
X145697057Y-110161912D01*
X145697057Y-110161912D02*
X145839914Y-110090484D01*
X145839914Y-110090484D02*
X145911342Y-109947626D01*
X145911342Y-109947626D02*
X145911342Y-109376198D01*
X145911342Y-109376198D02*
X145839914Y-109233341D01*
X145839914Y-109233341D02*
X145697057Y-109161912D01*
X145697057Y-109161912D02*
X145411342Y-109161912D01*
X145411342Y-109161912D02*
X145268485Y-109233341D01*
X145268485Y-109233341D02*
X145197057Y-109376198D01*
X145197057Y-109376198D02*
X145197057Y-109519055D01*
X145197057Y-109519055D02*
X145911342Y-109661912D01*
X144768485Y-109161912D02*
X144197057Y-109161912D01*
X144554200Y-108661912D02*
X144554200Y-109947626D01*
X144554200Y-109947626D02*
X144482771Y-110090484D01*
X144482771Y-110090484D02*
X144339914Y-110161912D01*
X144339914Y-110161912D02*
X144197057Y-110161912D01*
X143125628Y-110090484D02*
X143268485Y-110161912D01*
X143268485Y-110161912D02*
X143554200Y-110161912D01*
X143554200Y-110161912D02*
X143697057Y-110090484D01*
X143697057Y-110090484D02*
X143768485Y-109947626D01*
X143768485Y-109947626D02*
X143768485Y-109376198D01*
X143768485Y-109376198D02*
X143697057Y-109233341D01*
X143697057Y-109233341D02*
X143554200Y-109161912D01*
X143554200Y-109161912D02*
X143268485Y-109161912D01*
X143268485Y-109161912D02*
X143125628Y-109233341D01*
X143125628Y-109233341D02*
X143054200Y-109376198D01*
X143054200Y-109376198D02*
X143054200Y-109519055D01*
X143054200Y-109519055D02*
X143768485Y-109661912D01*
X142411343Y-109161912D02*
X142411343Y-110661912D01*
X142411343Y-109233341D02*
X142268486Y-109161912D01*
X142268486Y-109161912D02*
X141982771Y-109161912D01*
X141982771Y-109161912D02*
X141839914Y-109233341D01*
X141839914Y-109233341D02*
X141768486Y-109304769D01*
X141768486Y-109304769D02*
X141697057Y-109447626D01*
X141697057Y-109447626D02*
X141697057Y-109876198D01*
X141697057Y-109876198D02*
X141768486Y-110019055D01*
X141768486Y-110019055D02*
X141839914Y-110090484D01*
X141839914Y-110090484D02*
X141982771Y-110161912D01*
X141982771Y-110161912D02*
X142268486Y-110161912D01*
X142268486Y-110161912D02*
X142411343Y-110090484D01*
X141268485Y-108661912D02*
X140768485Y-110161912D01*
X140768485Y-110161912D02*
X140268485Y-108661912D01*
X138697057Y-108590484D02*
X139982771Y-110519055D01*
X138197057Y-109161912D02*
X138197057Y-110161912D01*
X138197057Y-109304769D02*
X138125628Y-109233341D01*
X138125628Y-109233341D02*
X137982771Y-109161912D01*
X137982771Y-109161912D02*
X137768485Y-109161912D01*
X137768485Y-109161912D02*
X137625628Y-109233341D01*
X137625628Y-109233341D02*
X137554200Y-109376198D01*
X137554200Y-109376198D02*
X137554200Y-110161912D01*
X137054199Y-108661912D02*
X136197057Y-108661912D01*
X136625628Y-110161912D02*
X136625628Y-108661912D01*
X135125628Y-110090484D02*
X135268485Y-110161912D01*
X135268485Y-110161912D02*
X135554200Y-110161912D01*
X135554200Y-110161912D02*
X135697057Y-110090484D01*
X135697057Y-110090484D02*
X135768485Y-109947626D01*
X135768485Y-109947626D02*
X135768485Y-109376198D01*
X135768485Y-109376198D02*
X135697057Y-109233341D01*
X135697057Y-109233341D02*
X135554200Y-109161912D01*
X135554200Y-109161912D02*
X135268485Y-109161912D01*
X135268485Y-109161912D02*
X135125628Y-109233341D01*
X135125628Y-109233341D02*
X135054200Y-109376198D01*
X135054200Y-109376198D02*
X135054200Y-109519055D01*
X135054200Y-109519055D02*
X135768485Y-109661912D01*
X134411343Y-110161912D02*
X134411343Y-109161912D01*
X134411343Y-109447626D02*
X134339914Y-109304769D01*
X134339914Y-109304769D02*
X134268486Y-109233341D01*
X134268486Y-109233341D02*
X134125628Y-109161912D01*
X134125628Y-109161912D02*
X133982771Y-109161912D01*
X133482772Y-110161912D02*
X133482772Y-109161912D01*
X133482772Y-109304769D02*
X133411343Y-109233341D01*
X133411343Y-109233341D02*
X133268486Y-109161912D01*
X133268486Y-109161912D02*
X133054200Y-109161912D01*
X133054200Y-109161912D02*
X132911343Y-109233341D01*
X132911343Y-109233341D02*
X132839915Y-109376198D01*
X132839915Y-109376198D02*
X132839915Y-110161912D01*
X132839915Y-109376198D02*
X132768486Y-109233341D01*
X132768486Y-109233341D02*
X132625629Y-109161912D01*
X132625629Y-109161912D02*
X132411343Y-109161912D01*
X132411343Y-109161912D02*
X132268486Y-109233341D01*
X132268486Y-109233341D02*
X132197057Y-109376198D01*
X132197057Y-109376198D02*
X132197057Y-110161912D01*
X131554200Y-108804769D02*
X131482772Y-108733341D01*
X131482772Y-108733341D02*
X131339915Y-108661912D01*
X131339915Y-108661912D02*
X130982772Y-108661912D01*
X130982772Y-108661912D02*
X130839915Y-108733341D01*
X130839915Y-108733341D02*
X130768486Y-108804769D01*
X130768486Y-108804769D02*
X130697057Y-108947626D01*
X130697057Y-108947626D02*
X130697057Y-109090484D01*
X130697057Y-109090484D02*
X130768486Y-109304769D01*
X130768486Y-109304769D02*
X131625629Y-110161912D01*
X131625629Y-110161912D02*
X130697057Y-110161912D01*
X130054201Y-109590484D02*
X128911344Y-109590484D01*
X128268486Y-110090484D02*
X128054201Y-110161912D01*
X128054201Y-110161912D02*
X127697058Y-110161912D01*
X127697058Y-110161912D02*
X127554201Y-110090484D01*
X127554201Y-110090484D02*
X127482772Y-110019055D01*
X127482772Y-110019055D02*
X127411343Y-109876198D01*
X127411343Y-109876198D02*
X127411343Y-109733341D01*
X127411343Y-109733341D02*
X127482772Y-109590484D01*
X127482772Y-109590484D02*
X127554201Y-109519055D01*
X127554201Y-109519055D02*
X127697058Y-109447626D01*
X127697058Y-109447626D02*
X127982772Y-109376198D01*
X127982772Y-109376198D02*
X128125629Y-109304769D01*
X128125629Y-109304769D02*
X128197058Y-109233341D01*
X128197058Y-109233341D02*
X128268486Y-109090484D01*
X128268486Y-109090484D02*
X128268486Y-108947626D01*
X128268486Y-108947626D02*
X128197058Y-108804769D01*
X128197058Y-108804769D02*
X128125629Y-108733341D01*
X128125629Y-108733341D02*
X127982772Y-108661912D01*
X127982772Y-108661912D02*
X127625629Y-108661912D01*
X127625629Y-108661912D02*
X127411343Y-108733341D01*
X126768487Y-109590484D02*
X125625630Y-109590484D01*
X124411344Y-109376198D02*
X124911344Y-109376198D01*
X124911344Y-110161912D02*
X124911344Y-108661912D01*
X124911344Y-108661912D02*
X124197058Y-108661912D01*
X123839915Y-108661912D02*
X122982773Y-108661912D01*
X123411344Y-110161912D02*
X123411344Y-108661912D01*
X122554201Y-108804769D02*
X122482773Y-108733341D01*
X122482773Y-108733341D02*
X122339916Y-108661912D01*
X122339916Y-108661912D02*
X121982773Y-108661912D01*
X121982773Y-108661912D02*
X121839916Y-108733341D01*
X121839916Y-108733341D02*
X121768487Y-108804769D01*
X121768487Y-108804769D02*
X121697058Y-108947626D01*
X121697058Y-108947626D02*
X121697058Y-109090484D01*
X121697058Y-109090484D02*
X121768487Y-109304769D01*
X121768487Y-109304769D02*
X122625630Y-110161912D01*
X122625630Y-110161912D02*
X121697058Y-110161912D01*
X121197059Y-108661912D02*
X120268487Y-108661912D01*
X120268487Y-108661912D02*
X120768487Y-109233341D01*
X120768487Y-109233341D02*
X120554202Y-109233341D01*
X120554202Y-109233341D02*
X120411345Y-109304769D01*
X120411345Y-109304769D02*
X120339916Y-109376198D01*
X120339916Y-109376198D02*
X120268487Y-109519055D01*
X120268487Y-109519055D02*
X120268487Y-109876198D01*
X120268487Y-109876198D02*
X120339916Y-110019055D01*
X120339916Y-110019055D02*
X120411345Y-110090484D01*
X120411345Y-110090484D02*
X120554202Y-110161912D01*
X120554202Y-110161912D02*
X120982773Y-110161912D01*
X120982773Y-110161912D02*
X121125630Y-110090484D01*
X121125630Y-110090484D02*
X121197059Y-110019055D01*
X118839916Y-110161912D02*
X119697059Y-110161912D01*
X119268488Y-110161912D02*
X119268488Y-108661912D01*
X119268488Y-108661912D02*
X119411345Y-108876198D01*
X119411345Y-108876198D02*
X119554202Y-109019055D01*
X119554202Y-109019055D02*
X119697059Y-109090484D01*
X170768489Y-112576828D02*
X170768489Y-111076828D01*
X170125632Y-112576828D02*
X170125632Y-111791114D01*
X170125632Y-111791114D02*
X170197060Y-111648257D01*
X170197060Y-111648257D02*
X170339917Y-111576828D01*
X170339917Y-111576828D02*
X170554203Y-111576828D01*
X170554203Y-111576828D02*
X170697060Y-111648257D01*
X170697060Y-111648257D02*
X170768489Y-111719685D01*
X169625631Y-111576828D02*
X169054203Y-111576828D01*
X169411346Y-111076828D02*
X169411346Y-112362542D01*
X169411346Y-112362542D02*
X169339917Y-112505400D01*
X169339917Y-112505400D02*
X169197060Y-112576828D01*
X169197060Y-112576828D02*
X169054203Y-112576828D01*
X168768488Y-111576828D02*
X168197060Y-111576828D01*
X168554203Y-111076828D02*
X168554203Y-112362542D01*
X168554203Y-112362542D02*
X168482774Y-112505400D01*
X168482774Y-112505400D02*
X168339917Y-112576828D01*
X168339917Y-112576828D02*
X168197060Y-112576828D01*
X167697060Y-111576828D02*
X167697060Y-113076828D01*
X167697060Y-111648257D02*
X167554203Y-111576828D01*
X167554203Y-111576828D02*
X167268488Y-111576828D01*
X167268488Y-111576828D02*
X167125631Y-111648257D01*
X167125631Y-111648257D02*
X167054203Y-111719685D01*
X167054203Y-111719685D02*
X166982774Y-111862542D01*
X166982774Y-111862542D02*
X166982774Y-112291114D01*
X166982774Y-112291114D02*
X167054203Y-112433971D01*
X167054203Y-112433971D02*
X167125631Y-112505400D01*
X167125631Y-112505400D02*
X167268488Y-112576828D01*
X167268488Y-112576828D02*
X167554203Y-112576828D01*
X167554203Y-112576828D02*
X167697060Y-112505400D01*
X166411345Y-112505400D02*
X166268488Y-112576828D01*
X166268488Y-112576828D02*
X165982774Y-112576828D01*
X165982774Y-112576828D02*
X165839917Y-112505400D01*
X165839917Y-112505400D02*
X165768488Y-112362542D01*
X165768488Y-112362542D02*
X165768488Y-112291114D01*
X165768488Y-112291114D02*
X165839917Y-112148257D01*
X165839917Y-112148257D02*
X165982774Y-112076828D01*
X165982774Y-112076828D02*
X166197060Y-112076828D01*
X166197060Y-112076828D02*
X166339917Y-112005400D01*
X166339917Y-112005400D02*
X166411345Y-111862542D01*
X166411345Y-111862542D02*
X166411345Y-111791114D01*
X166411345Y-111791114D02*
X166339917Y-111648257D01*
X166339917Y-111648257D02*
X166197060Y-111576828D01*
X166197060Y-111576828D02*
X165982774Y-111576828D01*
X165982774Y-111576828D02*
X165839917Y-111648257D01*
X165125631Y-112433971D02*
X165054202Y-112505400D01*
X165054202Y-112505400D02*
X165125631Y-112576828D01*
X165125631Y-112576828D02*
X165197059Y-112505400D01*
X165197059Y-112505400D02*
X165125631Y-112433971D01*
X165125631Y-112433971D02*
X165125631Y-112576828D01*
X165125631Y-111648257D02*
X165054202Y-111719685D01*
X165054202Y-111719685D02*
X165125631Y-111791114D01*
X165125631Y-111791114D02*
X165197059Y-111719685D01*
X165197059Y-111719685D02*
X165125631Y-111648257D01*
X165125631Y-111648257D02*
X165125631Y-111791114D01*
X163339916Y-111005400D02*
X164625630Y-112933971D01*
X161768487Y-111005400D02*
X163054201Y-112933971D01*
X160625630Y-111576828D02*
X160625630Y-112791114D01*
X160625630Y-112791114D02*
X160697058Y-112933971D01*
X160697058Y-112933971D02*
X160768487Y-113005400D01*
X160768487Y-113005400D02*
X160911344Y-113076828D01*
X160911344Y-113076828D02*
X161125630Y-113076828D01*
X161125630Y-113076828D02*
X161268487Y-113005400D01*
X160625630Y-112505400D02*
X160768487Y-112576828D01*
X160768487Y-112576828D02*
X161054201Y-112576828D01*
X161054201Y-112576828D02*
X161197058Y-112505400D01*
X161197058Y-112505400D02*
X161268487Y-112433971D01*
X161268487Y-112433971D02*
X161339915Y-112291114D01*
X161339915Y-112291114D02*
X161339915Y-111862542D01*
X161339915Y-111862542D02*
X161268487Y-111719685D01*
X161268487Y-111719685D02*
X161197058Y-111648257D01*
X161197058Y-111648257D02*
X161054201Y-111576828D01*
X161054201Y-111576828D02*
X160768487Y-111576828D01*
X160768487Y-111576828D02*
X160625630Y-111648257D01*
X159911344Y-112576828D02*
X159911344Y-111576828D01*
X159911344Y-111076828D02*
X159982772Y-111148257D01*
X159982772Y-111148257D02*
X159911344Y-111219685D01*
X159911344Y-111219685D02*
X159839915Y-111148257D01*
X159839915Y-111148257D02*
X159911344Y-111076828D01*
X159911344Y-111076828D02*
X159911344Y-111219685D01*
X159411343Y-111576828D02*
X158839915Y-111576828D01*
X159197058Y-111076828D02*
X159197058Y-112362542D01*
X159197058Y-112362542D02*
X159125629Y-112505400D01*
X159125629Y-112505400D02*
X158982772Y-112576828D01*
X158982772Y-112576828D02*
X158839915Y-112576828D01*
X158339915Y-112576828D02*
X158339915Y-111076828D01*
X157697058Y-112576828D02*
X157697058Y-111791114D01*
X157697058Y-111791114D02*
X157768486Y-111648257D01*
X157768486Y-111648257D02*
X157911343Y-111576828D01*
X157911343Y-111576828D02*
X158125629Y-111576828D01*
X158125629Y-111576828D02*
X158268486Y-111648257D01*
X158268486Y-111648257D02*
X158339915Y-111719685D01*
X156339915Y-111576828D02*
X156339915Y-112576828D01*
X156982772Y-111576828D02*
X156982772Y-112362542D01*
X156982772Y-112362542D02*
X156911343Y-112505400D01*
X156911343Y-112505400D02*
X156768486Y-112576828D01*
X156768486Y-112576828D02*
X156554200Y-112576828D01*
X156554200Y-112576828D02*
X156411343Y-112505400D01*
X156411343Y-112505400D02*
X156339915Y-112433971D01*
X155625629Y-112576828D02*
X155625629Y-111076828D01*
X155625629Y-111648257D02*
X155482772Y-111576828D01*
X155482772Y-111576828D02*
X155197057Y-111576828D01*
X155197057Y-111576828D02*
X155054200Y-111648257D01*
X155054200Y-111648257D02*
X154982772Y-111719685D01*
X154982772Y-111719685D02*
X154911343Y-111862542D01*
X154911343Y-111862542D02*
X154911343Y-112291114D01*
X154911343Y-112291114D02*
X154982772Y-112433971D01*
X154982772Y-112433971D02*
X155054200Y-112505400D01*
X155054200Y-112505400D02*
X155197057Y-112576828D01*
X155197057Y-112576828D02*
X155482772Y-112576828D01*
X155482772Y-112576828D02*
X155625629Y-112505400D01*
X154268486Y-112433971D02*
X154197057Y-112505400D01*
X154197057Y-112505400D02*
X154268486Y-112576828D01*
X154268486Y-112576828D02*
X154339914Y-112505400D01*
X154339914Y-112505400D02*
X154268486Y-112433971D01*
X154268486Y-112433971D02*
X154268486Y-112576828D01*
X152911343Y-112505400D02*
X153054200Y-112576828D01*
X153054200Y-112576828D02*
X153339914Y-112576828D01*
X153339914Y-112576828D02*
X153482771Y-112505400D01*
X153482771Y-112505400D02*
X153554200Y-112433971D01*
X153554200Y-112433971D02*
X153625628Y-112291114D01*
X153625628Y-112291114D02*
X153625628Y-111862542D01*
X153625628Y-111862542D02*
X153554200Y-111719685D01*
X153554200Y-111719685D02*
X153482771Y-111648257D01*
X153482771Y-111648257D02*
X153339914Y-111576828D01*
X153339914Y-111576828D02*
X153054200Y-111576828D01*
X153054200Y-111576828D02*
X152911343Y-111648257D01*
X152054200Y-112576828D02*
X152197057Y-112505400D01*
X152197057Y-112505400D02*
X152268486Y-112433971D01*
X152268486Y-112433971D02*
X152339914Y-112291114D01*
X152339914Y-112291114D02*
X152339914Y-111862542D01*
X152339914Y-111862542D02*
X152268486Y-111719685D01*
X152268486Y-111719685D02*
X152197057Y-111648257D01*
X152197057Y-111648257D02*
X152054200Y-111576828D01*
X152054200Y-111576828D02*
X151839914Y-111576828D01*
X151839914Y-111576828D02*
X151697057Y-111648257D01*
X151697057Y-111648257D02*
X151625629Y-111719685D01*
X151625629Y-111719685D02*
X151554200Y-111862542D01*
X151554200Y-111862542D02*
X151554200Y-112291114D01*
X151554200Y-112291114D02*
X151625629Y-112433971D01*
X151625629Y-112433971D02*
X151697057Y-112505400D01*
X151697057Y-112505400D02*
X151839914Y-112576828D01*
X151839914Y-112576828D02*
X152054200Y-112576828D01*
X150911343Y-112576828D02*
X150911343Y-111576828D01*
X150911343Y-111719685D02*
X150839914Y-111648257D01*
X150839914Y-111648257D02*
X150697057Y-111576828D01*
X150697057Y-111576828D02*
X150482771Y-111576828D01*
X150482771Y-111576828D02*
X150339914Y-111648257D01*
X150339914Y-111648257D02*
X150268486Y-111791114D01*
X150268486Y-111791114D02*
X150268486Y-112576828D01*
X150268486Y-111791114D02*
X150197057Y-111648257D01*
X150197057Y-111648257D02*
X150054200Y-111576828D01*
X150054200Y-111576828D02*
X149839914Y-111576828D01*
X149839914Y-111576828D02*
X149697057Y-111648257D01*
X149697057Y-111648257D02*
X149625628Y-111791114D01*
X149625628Y-111791114D02*
X149625628Y-112576828D01*
X147839914Y-111005400D02*
X149125628Y-112933971D01*
X146482771Y-112576828D02*
X146982771Y-111862542D01*
X147339914Y-112576828D02*
X147339914Y-111076828D01*
X147339914Y-111076828D02*
X146768485Y-111076828D01*
X146768485Y-111076828D02*
X146625628Y-111148257D01*
X146625628Y-111148257D02*
X146554199Y-111219685D01*
X146554199Y-111219685D02*
X146482771Y-111362542D01*
X146482771Y-111362542D02*
X146482771Y-111576828D01*
X146482771Y-111576828D02*
X146554199Y-111719685D01*
X146554199Y-111719685D02*
X146625628Y-111791114D01*
X146625628Y-111791114D02*
X146768485Y-111862542D01*
X146768485Y-111862542D02*
X147339914Y-111862542D01*
X145268485Y-112505400D02*
X145411342Y-112576828D01*
X145411342Y-112576828D02*
X145697057Y-112576828D01*
X145697057Y-112576828D02*
X145839914Y-112505400D01*
X145839914Y-112505400D02*
X145911342Y-112362542D01*
X145911342Y-112362542D02*
X145911342Y-111791114D01*
X145911342Y-111791114D02*
X145839914Y-111648257D01*
X145839914Y-111648257D02*
X145697057Y-111576828D01*
X145697057Y-111576828D02*
X145411342Y-111576828D01*
X145411342Y-111576828D02*
X145268485Y-111648257D01*
X145268485Y-111648257D02*
X145197057Y-111791114D01*
X145197057Y-111791114D02*
X145197057Y-111933971D01*
X145197057Y-111933971D02*
X145911342Y-112076828D01*
X144768485Y-111576828D02*
X144197057Y-111576828D01*
X144554200Y-111076828D02*
X144554200Y-112362542D01*
X144554200Y-112362542D02*
X144482771Y-112505400D01*
X144482771Y-112505400D02*
X144339914Y-112576828D01*
X144339914Y-112576828D02*
X144197057Y-112576828D01*
X143125628Y-112505400D02*
X143268485Y-112576828D01*
X143268485Y-112576828D02*
X143554200Y-112576828D01*
X143554200Y-112576828D02*
X143697057Y-112505400D01*
X143697057Y-112505400D02*
X143768485Y-112362542D01*
X143768485Y-112362542D02*
X143768485Y-111791114D01*
X143768485Y-111791114D02*
X143697057Y-111648257D01*
X143697057Y-111648257D02*
X143554200Y-111576828D01*
X143554200Y-111576828D02*
X143268485Y-111576828D01*
X143268485Y-111576828D02*
X143125628Y-111648257D01*
X143125628Y-111648257D02*
X143054200Y-111791114D01*
X143054200Y-111791114D02*
X143054200Y-111933971D01*
X143054200Y-111933971D02*
X143768485Y-112076828D01*
X142411343Y-111576828D02*
X142411343Y-113076828D01*
X142411343Y-111648257D02*
X142268486Y-111576828D01*
X142268486Y-111576828D02*
X141982771Y-111576828D01*
X141982771Y-111576828D02*
X141839914Y-111648257D01*
X141839914Y-111648257D02*
X141768486Y-111719685D01*
X141768486Y-111719685D02*
X141697057Y-111862542D01*
X141697057Y-111862542D02*
X141697057Y-112291114D01*
X141697057Y-112291114D02*
X141768486Y-112433971D01*
X141768486Y-112433971D02*
X141839914Y-112505400D01*
X141839914Y-112505400D02*
X141982771Y-112576828D01*
X141982771Y-112576828D02*
X142268486Y-112576828D01*
X142268486Y-112576828D02*
X142411343Y-112505400D01*
X141268485Y-111076828D02*
X140768485Y-112576828D01*
X140768485Y-112576828D02*
X140268485Y-111076828D01*
X138697057Y-111005400D02*
X139982771Y-112933971D01*
X138268485Y-112505400D02*
X138054200Y-112576828D01*
X138054200Y-112576828D02*
X137697057Y-112576828D01*
X137697057Y-112576828D02*
X137554200Y-112505400D01*
X137554200Y-112505400D02*
X137482771Y-112433971D01*
X137482771Y-112433971D02*
X137411342Y-112291114D01*
X137411342Y-112291114D02*
X137411342Y-112148257D01*
X137411342Y-112148257D02*
X137482771Y-112005400D01*
X137482771Y-112005400D02*
X137554200Y-111933971D01*
X137554200Y-111933971D02*
X137697057Y-111862542D01*
X137697057Y-111862542D02*
X137982771Y-111791114D01*
X137982771Y-111791114D02*
X138125628Y-111719685D01*
X138125628Y-111719685D02*
X138197057Y-111648257D01*
X138197057Y-111648257D02*
X138268485Y-111505400D01*
X138268485Y-111505400D02*
X138268485Y-111362542D01*
X138268485Y-111362542D02*
X138197057Y-111219685D01*
X138197057Y-111219685D02*
X138125628Y-111148257D01*
X138125628Y-111148257D02*
X137982771Y-111076828D01*
X137982771Y-111076828D02*
X137625628Y-111076828D01*
X137625628Y-111076828D02*
X137411342Y-111148257D01*
X136768486Y-111576828D02*
X136768486Y-113076828D01*
X136768486Y-111648257D02*
X136625629Y-111576828D01*
X136625629Y-111576828D02*
X136339914Y-111576828D01*
X136339914Y-111576828D02*
X136197057Y-111648257D01*
X136197057Y-111648257D02*
X136125629Y-111719685D01*
X136125629Y-111719685D02*
X136054200Y-111862542D01*
X136054200Y-111862542D02*
X136054200Y-112291114D01*
X136054200Y-112291114D02*
X136125629Y-112433971D01*
X136125629Y-112433971D02*
X136197057Y-112505400D01*
X136197057Y-112505400D02*
X136339914Y-112576828D01*
X136339914Y-112576828D02*
X136625629Y-112576828D01*
X136625629Y-112576828D02*
X136768486Y-112505400D01*
X135197057Y-112576828D02*
X135339914Y-112505400D01*
X135339914Y-112505400D02*
X135411343Y-112433971D01*
X135411343Y-112433971D02*
X135482771Y-112291114D01*
X135482771Y-112291114D02*
X135482771Y-111862542D01*
X135482771Y-111862542D02*
X135411343Y-111719685D01*
X135411343Y-111719685D02*
X135339914Y-111648257D01*
X135339914Y-111648257D02*
X135197057Y-111576828D01*
X135197057Y-111576828D02*
X134982771Y-111576828D01*
X134982771Y-111576828D02*
X134839914Y-111648257D01*
X134839914Y-111648257D02*
X134768486Y-111719685D01*
X134768486Y-111719685D02*
X134697057Y-111862542D01*
X134697057Y-111862542D02*
X134697057Y-112291114D01*
X134697057Y-112291114D02*
X134768486Y-112433971D01*
X134768486Y-112433971D02*
X134839914Y-112505400D01*
X134839914Y-112505400D02*
X134982771Y-112576828D01*
X134982771Y-112576828D02*
X135197057Y-112576828D01*
X134054200Y-112576828D02*
X134054200Y-111576828D01*
X134054200Y-111862542D02*
X133982771Y-111719685D01*
X133982771Y-111719685D02*
X133911343Y-111648257D01*
X133911343Y-111648257D02*
X133768485Y-111576828D01*
X133768485Y-111576828D02*
X133625628Y-111576828D01*
X132911343Y-112576828D02*
X133054200Y-112505400D01*
X133054200Y-112505400D02*
X133125629Y-112433971D01*
X133125629Y-112433971D02*
X133197057Y-112291114D01*
X133197057Y-112291114D02*
X133197057Y-111862542D01*
X133197057Y-111862542D02*
X133125629Y-111719685D01*
X133125629Y-111719685D02*
X133054200Y-111648257D01*
X133054200Y-111648257D02*
X132911343Y-111576828D01*
X132911343Y-111576828D02*
X132697057Y-111576828D01*
X132697057Y-111576828D02*
X132554200Y-111648257D01*
X132554200Y-111648257D02*
X132482772Y-111719685D01*
X132482772Y-111719685D02*
X132411343Y-111862542D01*
X132411343Y-111862542D02*
X132411343Y-112291114D01*
X132411343Y-112291114D02*
X132482772Y-112433971D01*
X132482772Y-112433971D02*
X132554200Y-112505400D01*
X132554200Y-112505400D02*
X132697057Y-112576828D01*
X132697057Y-112576828D02*
X132911343Y-112576828D01*
X131839914Y-112505400D02*
X131697057Y-112576828D01*
X131697057Y-112576828D02*
X131411343Y-112576828D01*
X131411343Y-112576828D02*
X131268486Y-112505400D01*
X131268486Y-112505400D02*
X131197057Y-112362542D01*
X131197057Y-112362542D02*
X131197057Y-112291114D01*
X131197057Y-112291114D02*
X131268486Y-112148257D01*
X131268486Y-112148257D02*
X131411343Y-112076828D01*
X131411343Y-112076828D02*
X131625629Y-112076828D01*
X131625629Y-112076828D02*
X131768486Y-112005400D01*
X131768486Y-112005400D02*
X131839914Y-111862542D01*
X131839914Y-111862542D02*
X131839914Y-111791114D01*
X131839914Y-111791114D02*
X131768486Y-111648257D01*
X131768486Y-111648257D02*
X131625629Y-111576828D01*
X131625629Y-111576828D02*
X131411343Y-111576828D01*
X131411343Y-111576828D02*
X131268486Y-111648257D01*
X130768485Y-111076828D02*
X129911343Y-111076828D01*
X130339914Y-112576828D02*
X130339914Y-111076828D01*
X128839914Y-112505400D02*
X128982771Y-112576828D01*
X128982771Y-112576828D02*
X129268486Y-112576828D01*
X129268486Y-112576828D02*
X129411343Y-112505400D01*
X129411343Y-112505400D02*
X129482771Y-112362542D01*
X129482771Y-112362542D02*
X129482771Y-111791114D01*
X129482771Y-111791114D02*
X129411343Y-111648257D01*
X129411343Y-111648257D02*
X129268486Y-111576828D01*
X129268486Y-111576828D02*
X128982771Y-111576828D01*
X128982771Y-111576828D02*
X128839914Y-111648257D01*
X128839914Y-111648257D02*
X128768486Y-111791114D01*
X128768486Y-111791114D02*
X128768486Y-111933971D01*
X128768486Y-111933971D02*
X129482771Y-112076828D01*
X128125629Y-112576828D02*
X128125629Y-111576828D01*
X128125629Y-111862542D02*
X128054200Y-111719685D01*
X128054200Y-111719685D02*
X127982772Y-111648257D01*
X127982772Y-111648257D02*
X127839914Y-111576828D01*
X127839914Y-111576828D02*
X127697057Y-111576828D01*
X127197058Y-112576828D02*
X127197058Y-111576828D01*
X127197058Y-111719685D02*
X127125629Y-111648257D01*
X127125629Y-111648257D02*
X126982772Y-111576828D01*
X126982772Y-111576828D02*
X126768486Y-111576828D01*
X126768486Y-111576828D02*
X126625629Y-111648257D01*
X126625629Y-111648257D02*
X126554201Y-111791114D01*
X126554201Y-111791114D02*
X126554201Y-112576828D01*
X126554201Y-111791114D02*
X126482772Y-111648257D01*
X126482772Y-111648257D02*
X126339915Y-111576828D01*
X126339915Y-111576828D02*
X126125629Y-111576828D01*
X126125629Y-111576828D02*
X125982772Y-111648257D01*
X125982772Y-111648257D02*
X125911343Y-111791114D01*
X125911343Y-111791114D02*
X125911343Y-112576828D01*
D13*
X205698524Y-113540952D02*
X205698524Y-114207619D01*
X205698524Y-113636190D02*
X205650905Y-113588571D01*
X205650905Y-113588571D02*
X205555667Y-113540952D01*
X205555667Y-113540952D02*
X205412810Y-113540952D01*
X205412810Y-113540952D02*
X205317572Y-113588571D01*
X205317572Y-113588571D02*
X205269953Y-113683809D01*
X205269953Y-113683809D02*
X205269953Y-114207619D01*
X204936619Y-113207619D02*
X204365191Y-113207619D01*
X204650905Y-114207619D02*
X204650905Y-113207619D01*
X203650905Y-114160000D02*
X203746143Y-114207619D01*
X203746143Y-114207619D02*
X203936619Y-114207619D01*
X203936619Y-114207619D02*
X204031857Y-114160000D01*
X204031857Y-114160000D02*
X204079476Y-114064761D01*
X204079476Y-114064761D02*
X204079476Y-113683809D01*
X204079476Y-113683809D02*
X204031857Y-113588571D01*
X204031857Y-113588571D02*
X203936619Y-113540952D01*
X203936619Y-113540952D02*
X203746143Y-113540952D01*
X203746143Y-113540952D02*
X203650905Y-113588571D01*
X203650905Y-113588571D02*
X203603286Y-113683809D01*
X203603286Y-113683809D02*
X203603286Y-113779047D01*
X203603286Y-113779047D02*
X204079476Y-113874285D01*
X203174714Y-114207619D02*
X203174714Y-113540952D01*
X203174714Y-113731428D02*
X203127095Y-113636190D01*
X203127095Y-113636190D02*
X203079476Y-113588571D01*
X203079476Y-113588571D02*
X202984238Y-113540952D01*
X202984238Y-113540952D02*
X202889000Y-113540952D01*
X202555666Y-114207619D02*
X202555666Y-113540952D01*
X202555666Y-113636190D02*
X202508047Y-113588571D01*
X202508047Y-113588571D02*
X202412809Y-113540952D01*
X202412809Y-113540952D02*
X202269952Y-113540952D01*
X202269952Y-113540952D02*
X202174714Y-113588571D01*
X202174714Y-113588571D02*
X202127095Y-113683809D01*
X202127095Y-113683809D02*
X202127095Y-114207619D01*
X202127095Y-113683809D02*
X202079476Y-113588571D01*
X202079476Y-113588571D02*
X201984238Y-113540952D01*
X201984238Y-113540952D02*
X201841381Y-113540952D01*
X201841381Y-113540952D02*
X201746142Y-113588571D01*
X201746142Y-113588571D02*
X201698523Y-113683809D01*
X201698523Y-113683809D02*
X201698523Y-114207619D01*
X201269952Y-113302857D02*
X201222333Y-113255238D01*
X201222333Y-113255238D02*
X201127095Y-113207619D01*
X201127095Y-113207619D02*
X200889000Y-113207619D01*
X200889000Y-113207619D02*
X200793762Y-113255238D01*
X200793762Y-113255238D02*
X200746143Y-113302857D01*
X200746143Y-113302857D02*
X200698524Y-113398095D01*
X200698524Y-113398095D02*
X200698524Y-113493333D01*
X200698524Y-113493333D02*
X200746143Y-113636190D01*
X200746143Y-113636190D02*
X201317571Y-114207619D01*
X201317571Y-114207619D02*
X200698524Y-114207619D01*
X200269952Y-113826666D02*
X199508048Y-113826666D01*
X199079476Y-114160000D02*
X198936619Y-114207619D01*
X198936619Y-114207619D02*
X198698524Y-114207619D01*
X198698524Y-114207619D02*
X198603286Y-114160000D01*
X198603286Y-114160000D02*
X198555667Y-114112380D01*
X198555667Y-114112380D02*
X198508048Y-114017142D01*
X198508048Y-114017142D02*
X198508048Y-113921904D01*
X198508048Y-113921904D02*
X198555667Y-113826666D01*
X198555667Y-113826666D02*
X198603286Y-113779047D01*
X198603286Y-113779047D02*
X198698524Y-113731428D01*
X198698524Y-113731428D02*
X198889000Y-113683809D01*
X198889000Y-113683809D02*
X198984238Y-113636190D01*
X198984238Y-113636190D02*
X199031857Y-113588571D01*
X199031857Y-113588571D02*
X199079476Y-113493333D01*
X199079476Y-113493333D02*
X199079476Y-113398095D01*
X199079476Y-113398095D02*
X199031857Y-113302857D01*
X199031857Y-113302857D02*
X198984238Y-113255238D01*
X198984238Y-113255238D02*
X198889000Y-113207619D01*
X198889000Y-113207619D02*
X198650905Y-113207619D01*
X198650905Y-113207619D02*
X198508048Y-113255238D01*
X197412809Y-113540952D02*
X197174714Y-114207619D01*
X197174714Y-114207619D02*
X196936619Y-113540952D01*
X196365190Y-113207619D02*
X196269952Y-113207619D01*
X196269952Y-113207619D02*
X196174714Y-113255238D01*
X196174714Y-113255238D02*
X196127095Y-113302857D01*
X196127095Y-113302857D02*
X196079476Y-113398095D01*
X196079476Y-113398095D02*
X196031857Y-113588571D01*
X196031857Y-113588571D02*
X196031857Y-113826666D01*
X196031857Y-113826666D02*
X196079476Y-114017142D01*
X196079476Y-114017142D02*
X196127095Y-114112380D01*
X196127095Y-114112380D02*
X196174714Y-114160000D01*
X196174714Y-114160000D02*
X196269952Y-114207619D01*
X196269952Y-114207619D02*
X196365190Y-114207619D01*
X196365190Y-114207619D02*
X196460428Y-114160000D01*
X196460428Y-114160000D02*
X196508047Y-114112380D01*
X196508047Y-114112380D02*
X196555666Y-114017142D01*
X196555666Y-114017142D02*
X196603285Y-113826666D01*
X196603285Y-113826666D02*
X196603285Y-113588571D01*
X196603285Y-113588571D02*
X196555666Y-113398095D01*
X196555666Y-113398095D02*
X196508047Y-113302857D01*
X196508047Y-113302857D02*
X196460428Y-113255238D01*
X196460428Y-113255238D02*
X196365190Y-113207619D01*
X195603285Y-114112380D02*
X195555666Y-114160000D01*
X195555666Y-114160000D02*
X195603285Y-114207619D01*
X195603285Y-114207619D02*
X195650904Y-114160000D01*
X195650904Y-114160000D02*
X195603285Y-114112380D01*
X195603285Y-114112380D02*
X195603285Y-114207619D01*
X194603286Y-114207619D02*
X195174714Y-114207619D01*
X194889000Y-114207619D02*
X194889000Y-113207619D01*
X194889000Y-113207619D02*
X194984238Y-113350476D01*
X194984238Y-113350476D02*
X195079476Y-113445714D01*
X195079476Y-113445714D02*
X195174714Y-113493333D01*
X194222333Y-113302857D02*
X194174714Y-113255238D01*
X194174714Y-113255238D02*
X194079476Y-113207619D01*
X194079476Y-113207619D02*
X193841381Y-113207619D01*
X193841381Y-113207619D02*
X193746143Y-113255238D01*
X193746143Y-113255238D02*
X193698524Y-113302857D01*
X193698524Y-113302857D02*
X193650905Y-113398095D01*
X193650905Y-113398095D02*
X193650905Y-113493333D01*
X193650905Y-113493333D02*
X193698524Y-113636190D01*
X193698524Y-113636190D02*
X194269952Y-114207619D01*
X194269952Y-114207619D02*
X193650905Y-114207619D01*
X192460428Y-113826666D02*
X191698524Y-113826666D01*
X190460428Y-114207619D02*
X190460428Y-113207619D01*
X190460428Y-113207619D02*
X190079476Y-113207619D01*
X190079476Y-113207619D02*
X189984238Y-113255238D01*
X189984238Y-113255238D02*
X189936619Y-113302857D01*
X189936619Y-113302857D02*
X189889000Y-113398095D01*
X189889000Y-113398095D02*
X189889000Y-113540952D01*
X189889000Y-113540952D02*
X189936619Y-113636190D01*
X189936619Y-113636190D02*
X189984238Y-113683809D01*
X189984238Y-113683809D02*
X190079476Y-113731428D01*
X190079476Y-113731428D02*
X190460428Y-113731428D01*
X189317571Y-114207619D02*
X189412809Y-114160000D01*
X189412809Y-114160000D02*
X189460428Y-114112380D01*
X189460428Y-114112380D02*
X189508047Y-114017142D01*
X189508047Y-114017142D02*
X189508047Y-113731428D01*
X189508047Y-113731428D02*
X189460428Y-113636190D01*
X189460428Y-113636190D02*
X189412809Y-113588571D01*
X189412809Y-113588571D02*
X189317571Y-113540952D01*
X189317571Y-113540952D02*
X189174714Y-113540952D01*
X189174714Y-113540952D02*
X189079476Y-113588571D01*
X189079476Y-113588571D02*
X189031857Y-113636190D01*
X189031857Y-113636190D02*
X188984238Y-113731428D01*
X188984238Y-113731428D02*
X188984238Y-114017142D01*
X188984238Y-114017142D02*
X189031857Y-114112380D01*
X189031857Y-114112380D02*
X189079476Y-114160000D01*
X189079476Y-114160000D02*
X189174714Y-114207619D01*
X189174714Y-114207619D02*
X189317571Y-114207619D01*
X188650904Y-113540952D02*
X188460428Y-114207619D01*
X188460428Y-114207619D02*
X188269952Y-113731428D01*
X188269952Y-113731428D02*
X188079476Y-114207619D01*
X188079476Y-114207619D02*
X187889000Y-113540952D01*
X187127095Y-114160000D02*
X187222333Y-114207619D01*
X187222333Y-114207619D02*
X187412809Y-114207619D01*
X187412809Y-114207619D02*
X187508047Y-114160000D01*
X187508047Y-114160000D02*
X187555666Y-114064761D01*
X187555666Y-114064761D02*
X187555666Y-113683809D01*
X187555666Y-113683809D02*
X187508047Y-113588571D01*
X187508047Y-113588571D02*
X187412809Y-113540952D01*
X187412809Y-113540952D02*
X187222333Y-113540952D01*
X187222333Y-113540952D02*
X187127095Y-113588571D01*
X187127095Y-113588571D02*
X187079476Y-113683809D01*
X187079476Y-113683809D02*
X187079476Y-113779047D01*
X187079476Y-113779047D02*
X187555666Y-113874285D01*
X186650904Y-114207619D02*
X186650904Y-113540952D01*
X186650904Y-113731428D02*
X186603285Y-113636190D01*
X186603285Y-113636190D02*
X186555666Y-113588571D01*
X186555666Y-113588571D02*
X186460428Y-113540952D01*
X186460428Y-113540952D02*
X186365190Y-113540952D01*
X185650904Y-114160000D02*
X185746142Y-114207619D01*
X185746142Y-114207619D02*
X185936618Y-114207619D01*
X185936618Y-114207619D02*
X186031856Y-114160000D01*
X186031856Y-114160000D02*
X186079475Y-114064761D01*
X186079475Y-114064761D02*
X186079475Y-113683809D01*
X186079475Y-113683809D02*
X186031856Y-113588571D01*
X186031856Y-113588571D02*
X185936618Y-113540952D01*
X185936618Y-113540952D02*
X185746142Y-113540952D01*
X185746142Y-113540952D02*
X185650904Y-113588571D01*
X185650904Y-113588571D02*
X185603285Y-113683809D01*
X185603285Y-113683809D02*
X185603285Y-113779047D01*
X185603285Y-113779047D02*
X186079475Y-113874285D01*
X184746142Y-114207619D02*
X184746142Y-113207619D01*
X184746142Y-114160000D02*
X184841380Y-114207619D01*
X184841380Y-114207619D02*
X185031856Y-114207619D01*
X185031856Y-114207619D02*
X185127094Y-114160000D01*
X185127094Y-114160000D02*
X185174713Y-114112380D01*
X185174713Y-114112380D02*
X185222332Y-114017142D01*
X185222332Y-114017142D02*
X185222332Y-113731428D01*
X185222332Y-113731428D02*
X185174713Y-113636190D01*
X185174713Y-113636190D02*
X185127094Y-113588571D01*
X185127094Y-113588571D02*
X185031856Y-113540952D01*
X185031856Y-113540952D02*
X184841380Y-113540952D01*
X184841380Y-113540952D02*
X184746142Y-113588571D01*
X183508046Y-114207619D02*
X183508046Y-113207619D01*
X183508046Y-113588571D02*
X183412808Y-113540952D01*
X183412808Y-113540952D02*
X183222332Y-113540952D01*
X183222332Y-113540952D02*
X183127094Y-113588571D01*
X183127094Y-113588571D02*
X183079475Y-113636190D01*
X183079475Y-113636190D02*
X183031856Y-113731428D01*
X183031856Y-113731428D02*
X183031856Y-114017142D01*
X183031856Y-114017142D02*
X183079475Y-114112380D01*
X183079475Y-114112380D02*
X183127094Y-114160000D01*
X183127094Y-114160000D02*
X183222332Y-114207619D01*
X183222332Y-114207619D02*
X183412808Y-114207619D01*
X183412808Y-114207619D02*
X183508046Y-114160000D01*
X182698522Y-113540952D02*
X182460427Y-114207619D01*
X182222332Y-113540952D02*
X182460427Y-114207619D01*
X182460427Y-114207619D02*
X182555665Y-114445714D01*
X182555665Y-114445714D02*
X182603284Y-114493333D01*
X182603284Y-114493333D02*
X182698522Y-114540952D01*
X180746141Y-113683809D02*
X181079474Y-113683809D01*
X181079474Y-114207619D02*
X181079474Y-113207619D01*
X181079474Y-113207619D02*
X180603284Y-113207619D01*
X179793760Y-114207619D02*
X179793760Y-113683809D01*
X179793760Y-113683809D02*
X179841379Y-113588571D01*
X179841379Y-113588571D02*
X179936617Y-113540952D01*
X179936617Y-113540952D02*
X180127093Y-113540952D01*
X180127093Y-113540952D02*
X180222331Y-113588571D01*
X179793760Y-114160000D02*
X179888998Y-114207619D01*
X179888998Y-114207619D02*
X180127093Y-114207619D01*
X180127093Y-114207619D02*
X180222331Y-114160000D01*
X180222331Y-114160000D02*
X180269950Y-114064761D01*
X180269950Y-114064761D02*
X180269950Y-113969523D01*
X180269950Y-113969523D02*
X180222331Y-113874285D01*
X180222331Y-113874285D02*
X180127093Y-113826666D01*
X180127093Y-113826666D02*
X179888998Y-113826666D01*
X179888998Y-113826666D02*
X179793760Y-113779047D01*
X179317569Y-114207619D02*
X179317569Y-113207619D01*
X179317569Y-113588571D02*
X179222331Y-113540952D01*
X179222331Y-113540952D02*
X179031855Y-113540952D01*
X179031855Y-113540952D02*
X178936617Y-113588571D01*
X178936617Y-113588571D02*
X178888998Y-113636190D01*
X178888998Y-113636190D02*
X178841379Y-113731428D01*
X178841379Y-113731428D02*
X178841379Y-114017142D01*
X178841379Y-114017142D02*
X178888998Y-114112380D01*
X178888998Y-114112380D02*
X178936617Y-114160000D01*
X178936617Y-114160000D02*
X179031855Y-114207619D01*
X179031855Y-114207619D02*
X179222331Y-114207619D01*
X179222331Y-114207619D02*
X179317569Y-114160000D01*
X177888998Y-113255238D02*
X177984236Y-113207619D01*
X177984236Y-113207619D02*
X178127093Y-113207619D01*
X178127093Y-113207619D02*
X178269950Y-113255238D01*
X178269950Y-113255238D02*
X178365188Y-113350476D01*
X178365188Y-113350476D02*
X178412807Y-113445714D01*
X178412807Y-113445714D02*
X178460426Y-113636190D01*
X178460426Y-113636190D02*
X178460426Y-113779047D01*
X178460426Y-113779047D02*
X178412807Y-113969523D01*
X178412807Y-113969523D02*
X178365188Y-114064761D01*
X178365188Y-114064761D02*
X178269950Y-114160000D01*
X178269950Y-114160000D02*
X178127093Y-114207619D01*
X178127093Y-114207619D02*
X178031855Y-114207619D01*
X178031855Y-114207619D02*
X177888998Y-114160000D01*
X177888998Y-114160000D02*
X177841379Y-114112380D01*
X177841379Y-114112380D02*
X177841379Y-113779047D01*
X177841379Y-113779047D02*
X178031855Y-113779047D01*
X176936617Y-114207619D02*
X177412807Y-114207619D01*
X177412807Y-114207619D02*
X177412807Y-113207619D01*
X204508048Y-115817563D02*
X204508048Y-114817563D01*
X204508048Y-114817563D02*
X204174715Y-115531848D01*
X204174715Y-115531848D02*
X203841382Y-114817563D01*
X203841382Y-114817563D02*
X203841382Y-115817563D01*
X202936620Y-115817563D02*
X202936620Y-115293753D01*
X202936620Y-115293753D02*
X202984239Y-115198515D01*
X202984239Y-115198515D02*
X203079477Y-115150896D01*
X203079477Y-115150896D02*
X203269953Y-115150896D01*
X203269953Y-115150896D02*
X203365191Y-115198515D01*
X202936620Y-115769944D02*
X203031858Y-115817563D01*
X203031858Y-115817563D02*
X203269953Y-115817563D01*
X203269953Y-115817563D02*
X203365191Y-115769944D01*
X203365191Y-115769944D02*
X203412810Y-115674705D01*
X203412810Y-115674705D02*
X203412810Y-115579467D01*
X203412810Y-115579467D02*
X203365191Y-115484229D01*
X203365191Y-115484229D02*
X203269953Y-115436610D01*
X203269953Y-115436610D02*
X203031858Y-115436610D01*
X203031858Y-115436610D02*
X202936620Y-115388991D01*
X202460429Y-115150896D02*
X202460429Y-115817563D01*
X202460429Y-115246134D02*
X202412810Y-115198515D01*
X202412810Y-115198515D02*
X202317572Y-115150896D01*
X202317572Y-115150896D02*
X202174715Y-115150896D01*
X202174715Y-115150896D02*
X202079477Y-115198515D01*
X202079477Y-115198515D02*
X202031858Y-115293753D01*
X202031858Y-115293753D02*
X202031858Y-115817563D01*
X201650905Y-115150896D02*
X201412810Y-115817563D01*
X201174715Y-115150896D02*
X201412810Y-115817563D01*
X201412810Y-115817563D02*
X201508048Y-116055658D01*
X201508048Y-116055658D02*
X201555667Y-116103277D01*
X201555667Y-116103277D02*
X201650905Y-116150896D01*
X200174714Y-115150896D02*
X199793762Y-115150896D01*
X200031857Y-114817563D02*
X200031857Y-115674705D01*
X200031857Y-115674705D02*
X199984238Y-115769944D01*
X199984238Y-115769944D02*
X199889000Y-115817563D01*
X199889000Y-115817563D02*
X199793762Y-115817563D01*
X199460428Y-115817563D02*
X199460428Y-114817563D01*
X199031857Y-115817563D02*
X199031857Y-115293753D01*
X199031857Y-115293753D02*
X199079476Y-115198515D01*
X199079476Y-115198515D02*
X199174714Y-115150896D01*
X199174714Y-115150896D02*
X199317571Y-115150896D01*
X199317571Y-115150896D02*
X199412809Y-115198515D01*
X199412809Y-115198515D02*
X199460428Y-115246134D01*
X198127095Y-115817563D02*
X198127095Y-115293753D01*
X198127095Y-115293753D02*
X198174714Y-115198515D01*
X198174714Y-115198515D02*
X198269952Y-115150896D01*
X198269952Y-115150896D02*
X198460428Y-115150896D01*
X198460428Y-115150896D02*
X198555666Y-115198515D01*
X198127095Y-115769944D02*
X198222333Y-115817563D01*
X198222333Y-115817563D02*
X198460428Y-115817563D01*
X198460428Y-115817563D02*
X198555666Y-115769944D01*
X198555666Y-115769944D02*
X198603285Y-115674705D01*
X198603285Y-115674705D02*
X198603285Y-115579467D01*
X198603285Y-115579467D02*
X198555666Y-115484229D01*
X198555666Y-115484229D02*
X198460428Y-115436610D01*
X198460428Y-115436610D02*
X198222333Y-115436610D01*
X198222333Y-115436610D02*
X198127095Y-115388991D01*
X197650904Y-115150896D02*
X197650904Y-115817563D01*
X197650904Y-115246134D02*
X197603285Y-115198515D01*
X197603285Y-115198515D02*
X197508047Y-115150896D01*
X197508047Y-115150896D02*
X197365190Y-115150896D01*
X197365190Y-115150896D02*
X197269952Y-115198515D01*
X197269952Y-115198515D02*
X197222333Y-115293753D01*
X197222333Y-115293753D02*
X197222333Y-115817563D01*
X196746142Y-115817563D02*
X196746142Y-114817563D01*
X196650904Y-115436610D02*
X196365190Y-115817563D01*
X196365190Y-115150896D02*
X196746142Y-115531848D01*
X195984237Y-115769944D02*
X195888999Y-115817563D01*
X195888999Y-115817563D02*
X195698523Y-115817563D01*
X195698523Y-115817563D02*
X195603285Y-115769944D01*
X195603285Y-115769944D02*
X195555666Y-115674705D01*
X195555666Y-115674705D02*
X195555666Y-115627086D01*
X195555666Y-115627086D02*
X195603285Y-115531848D01*
X195603285Y-115531848D02*
X195698523Y-115484229D01*
X195698523Y-115484229D02*
X195841380Y-115484229D01*
X195841380Y-115484229D02*
X195936618Y-115436610D01*
X195936618Y-115436610D02*
X195984237Y-115341372D01*
X195984237Y-115341372D02*
X195984237Y-115293753D01*
X195984237Y-115293753D02*
X195936618Y-115198515D01*
X195936618Y-115198515D02*
X195841380Y-115150896D01*
X195841380Y-115150896D02*
X195698523Y-115150896D01*
X195698523Y-115150896D02*
X195603285Y-115198515D01*
X194508046Y-115150896D02*
X194127094Y-115150896D01*
X194365189Y-114817563D02*
X194365189Y-115674705D01*
X194365189Y-115674705D02*
X194317570Y-115769944D01*
X194317570Y-115769944D02*
X194222332Y-115817563D01*
X194222332Y-115817563D02*
X194127094Y-115817563D01*
X193650903Y-115817563D02*
X193746141Y-115769944D01*
X193746141Y-115769944D02*
X193793760Y-115722324D01*
X193793760Y-115722324D02*
X193841379Y-115627086D01*
X193841379Y-115627086D02*
X193841379Y-115341372D01*
X193841379Y-115341372D02*
X193793760Y-115246134D01*
X193793760Y-115246134D02*
X193746141Y-115198515D01*
X193746141Y-115198515D02*
X193650903Y-115150896D01*
X193650903Y-115150896D02*
X193508046Y-115150896D01*
X193508046Y-115150896D02*
X193412808Y-115198515D01*
X193412808Y-115198515D02*
X193365189Y-115246134D01*
X193365189Y-115246134D02*
X193317570Y-115341372D01*
X193317570Y-115341372D02*
X193317570Y-115627086D01*
X193317570Y-115627086D02*
X193365189Y-115722324D01*
X193365189Y-115722324D02*
X193412808Y-115769944D01*
X193412808Y-115769944D02*
X193508046Y-115817563D01*
X193508046Y-115817563D02*
X193650903Y-115817563D01*
X191793760Y-115293753D02*
X192127093Y-115293753D01*
X192127093Y-115817563D02*
X192127093Y-114817563D01*
X192127093Y-114817563D02*
X191650903Y-114817563D01*
X190841379Y-115817563D02*
X190841379Y-115293753D01*
X190841379Y-115293753D02*
X190888998Y-115198515D01*
X190888998Y-115198515D02*
X190984236Y-115150896D01*
X190984236Y-115150896D02*
X191174712Y-115150896D01*
X191174712Y-115150896D02*
X191269950Y-115198515D01*
X190841379Y-115769944D02*
X190936617Y-115817563D01*
X190936617Y-115817563D02*
X191174712Y-115817563D01*
X191174712Y-115817563D02*
X191269950Y-115769944D01*
X191269950Y-115769944D02*
X191317569Y-115674705D01*
X191317569Y-115674705D02*
X191317569Y-115579467D01*
X191317569Y-115579467D02*
X191269950Y-115484229D01*
X191269950Y-115484229D02*
X191174712Y-115436610D01*
X191174712Y-115436610D02*
X190936617Y-115436610D01*
X190936617Y-115436610D02*
X190841379Y-115388991D01*
X190365188Y-115817563D02*
X190365188Y-114817563D01*
X190365188Y-115198515D02*
X190269950Y-115150896D01*
X190269950Y-115150896D02*
X190079474Y-115150896D01*
X190079474Y-115150896D02*
X189984236Y-115198515D01*
X189984236Y-115198515D02*
X189936617Y-115246134D01*
X189936617Y-115246134D02*
X189888998Y-115341372D01*
X189888998Y-115341372D02*
X189888998Y-115627086D01*
X189888998Y-115627086D02*
X189936617Y-115722324D01*
X189936617Y-115722324D02*
X189984236Y-115769944D01*
X189984236Y-115769944D02*
X190079474Y-115817563D01*
X190079474Y-115817563D02*
X190269950Y-115817563D01*
X190269950Y-115817563D02*
X190365188Y-115769944D01*
X189460426Y-115817563D02*
X189460426Y-115150896D01*
X189460426Y-115341372D02*
X189412807Y-115246134D01*
X189412807Y-115246134D02*
X189365188Y-115198515D01*
X189365188Y-115198515D02*
X189269950Y-115150896D01*
X189269950Y-115150896D02*
X189174712Y-115150896D01*
X188841378Y-115817563D02*
X188841378Y-115150896D01*
X188841378Y-114817563D02*
X188888997Y-114865182D01*
X188888997Y-114865182D02*
X188841378Y-114912801D01*
X188841378Y-114912801D02*
X188793759Y-114865182D01*
X188793759Y-114865182D02*
X188841378Y-114817563D01*
X188841378Y-114817563D02*
X188841378Y-114912801D01*
X188460426Y-115150896D02*
X187936617Y-115150896D01*
X187936617Y-115150896D02*
X188460426Y-115817563D01*
X188460426Y-115817563D02*
X187936617Y-115817563D01*
X187555664Y-115817563D02*
X187555664Y-115150896D01*
X187555664Y-114817563D02*
X187603283Y-114865182D01*
X187603283Y-114865182D02*
X187555664Y-114912801D01*
X187555664Y-114912801D02*
X187508045Y-114865182D01*
X187508045Y-114865182D02*
X187555664Y-114817563D01*
X187555664Y-114817563D02*
X187555664Y-114912801D01*
X186936617Y-115817563D02*
X187031855Y-115769944D01*
X187031855Y-115769944D02*
X187079474Y-115722324D01*
X187079474Y-115722324D02*
X187127093Y-115627086D01*
X187127093Y-115627086D02*
X187127093Y-115341372D01*
X187127093Y-115341372D02*
X187079474Y-115246134D01*
X187079474Y-115246134D02*
X187031855Y-115198515D01*
X187031855Y-115198515D02*
X186936617Y-115150896D01*
X186936617Y-115150896D02*
X186793760Y-115150896D01*
X186793760Y-115150896D02*
X186698522Y-115198515D01*
X186698522Y-115198515D02*
X186650903Y-115246134D01*
X186650903Y-115246134D02*
X186603284Y-115341372D01*
X186603284Y-115341372D02*
X186603284Y-115627086D01*
X186603284Y-115627086D02*
X186650903Y-115722324D01*
X186650903Y-115722324D02*
X186698522Y-115769944D01*
X186698522Y-115769944D02*
X186793760Y-115817563D01*
X186793760Y-115817563D02*
X186936617Y-115817563D01*
X185412807Y-115817563D02*
X185412807Y-114817563D01*
X185412807Y-114817563D02*
X185174712Y-114817563D01*
X185174712Y-114817563D02*
X185031855Y-114865182D01*
X185031855Y-114865182D02*
X184936617Y-114960420D01*
X184936617Y-114960420D02*
X184888998Y-115055658D01*
X184888998Y-115055658D02*
X184841379Y-115246134D01*
X184841379Y-115246134D02*
X184841379Y-115388991D01*
X184841379Y-115388991D02*
X184888998Y-115579467D01*
X184888998Y-115579467D02*
X184936617Y-115674705D01*
X184936617Y-115674705D02*
X185031855Y-115769944D01*
X185031855Y-115769944D02*
X185174712Y-115817563D01*
X185174712Y-115817563D02*
X185412807Y-115817563D01*
X184412807Y-115817563D02*
X184412807Y-115150896D01*
X184412807Y-114817563D02*
X184460426Y-114865182D01*
X184460426Y-114865182D02*
X184412807Y-114912801D01*
X184412807Y-114912801D02*
X184365188Y-114865182D01*
X184365188Y-114865182D02*
X184412807Y-114817563D01*
X184412807Y-114817563D02*
X184412807Y-114912801D01*
X183317569Y-114817563D02*
X182984236Y-115817563D01*
X182984236Y-115817563D02*
X182650903Y-114817563D01*
X182317569Y-115817563D02*
X182317569Y-115150896D01*
X182317569Y-114817563D02*
X182365188Y-114865182D01*
X182365188Y-114865182D02*
X182317569Y-114912801D01*
X182317569Y-114912801D02*
X182269950Y-114865182D01*
X182269950Y-114865182D02*
X182317569Y-114817563D01*
X182317569Y-114817563D02*
X182317569Y-114912801D01*
X181984236Y-115150896D02*
X181603284Y-115150896D01*
X181841379Y-114817563D02*
X181841379Y-115674705D01*
X181841379Y-115674705D02*
X181793760Y-115769944D01*
X181793760Y-115769944D02*
X181698522Y-115817563D01*
X181698522Y-115817563D02*
X181603284Y-115817563D01*
X181412807Y-115150896D02*
X181031855Y-115150896D01*
X181269950Y-114817563D02*
X181269950Y-115674705D01*
X181269950Y-115674705D02*
X181222331Y-115769944D01*
X181222331Y-115769944D02*
X181127093Y-115817563D01*
X181127093Y-115817563D02*
X181031855Y-115817563D01*
X180555664Y-115817563D02*
X180650902Y-115769944D01*
X180650902Y-115769944D02*
X180698521Y-115722324D01*
X180698521Y-115722324D02*
X180746140Y-115627086D01*
X180746140Y-115627086D02*
X180746140Y-115341372D01*
X180746140Y-115341372D02*
X180698521Y-115246134D01*
X180698521Y-115246134D02*
X180650902Y-115198515D01*
X180650902Y-115198515D02*
X180555664Y-115150896D01*
X180555664Y-115150896D02*
X180412807Y-115150896D01*
X180412807Y-115150896D02*
X180317569Y-115198515D01*
X180317569Y-115198515D02*
X180269950Y-115246134D01*
X180269950Y-115246134D02*
X180222331Y-115341372D01*
X180222331Y-115341372D02*
X180222331Y-115627086D01*
X180222331Y-115627086D02*
X180269950Y-115722324D01*
X180269950Y-115722324D02*
X180317569Y-115769944D01*
X180317569Y-115769944D02*
X180412807Y-115817563D01*
X180412807Y-115817563D02*
X180555664Y-115817563D01*
X179793759Y-115817563D02*
X179793759Y-115150896D01*
X179793759Y-115341372D02*
X179746140Y-115246134D01*
X179746140Y-115246134D02*
X179698521Y-115198515D01*
X179698521Y-115198515D02*
X179603283Y-115150896D01*
X179603283Y-115150896D02*
X179508045Y-115150896D01*
X179174711Y-115817563D02*
X179174711Y-115150896D01*
X179174711Y-114817563D02*
X179222330Y-114865182D01*
X179222330Y-114865182D02*
X179174711Y-114912801D01*
X179174711Y-114912801D02*
X179127092Y-114865182D01*
X179127092Y-114865182D02*
X179174711Y-114817563D01*
X179174711Y-114817563D02*
X179174711Y-114912801D01*
X178555664Y-115817563D02*
X178650902Y-115769944D01*
X178650902Y-115769944D02*
X178698521Y-115722324D01*
X178698521Y-115722324D02*
X178746140Y-115627086D01*
X178746140Y-115627086D02*
X178746140Y-115341372D01*
X178746140Y-115341372D02*
X178698521Y-115246134D01*
X178698521Y-115246134D02*
X178650902Y-115198515D01*
X178650902Y-115198515D02*
X178555664Y-115150896D01*
X178555664Y-115150896D02*
X178412807Y-115150896D01*
X178412807Y-115150896D02*
X178317569Y-115198515D01*
X178317569Y-115198515D02*
X178269950Y-115246134D01*
X178269950Y-115246134D02*
X178222331Y-115341372D01*
X178222331Y-115341372D02*
X178222331Y-115627086D01*
X178222331Y-115627086D02*
X178269950Y-115722324D01*
X178269950Y-115722324D02*
X178317569Y-115769944D01*
X178317569Y-115769944D02*
X178412807Y-115817563D01*
X178412807Y-115817563D02*
X178555664Y-115817563D01*
X196031857Y-117427507D02*
X196031857Y-116903697D01*
X196031857Y-116903697D02*
X196079476Y-116808459D01*
X196079476Y-116808459D02*
X196174714Y-116760840D01*
X196174714Y-116760840D02*
X196365190Y-116760840D01*
X196365190Y-116760840D02*
X196460428Y-116808459D01*
X196031857Y-117379888D02*
X196127095Y-117427507D01*
X196127095Y-117427507D02*
X196365190Y-117427507D01*
X196365190Y-117427507D02*
X196460428Y-117379888D01*
X196460428Y-117379888D02*
X196508047Y-117284649D01*
X196508047Y-117284649D02*
X196508047Y-117189411D01*
X196508047Y-117189411D02*
X196460428Y-117094173D01*
X196460428Y-117094173D02*
X196365190Y-117046554D01*
X196365190Y-117046554D02*
X196127095Y-117046554D01*
X196127095Y-117046554D02*
X196031857Y-116998935D01*
X195555666Y-116760840D02*
X195555666Y-117427507D01*
X195555666Y-116856078D02*
X195508047Y-116808459D01*
X195508047Y-116808459D02*
X195412809Y-116760840D01*
X195412809Y-116760840D02*
X195269952Y-116760840D01*
X195269952Y-116760840D02*
X195174714Y-116808459D01*
X195174714Y-116808459D02*
X195127095Y-116903697D01*
X195127095Y-116903697D02*
X195127095Y-117427507D01*
X194222333Y-117427507D02*
X194222333Y-116427507D01*
X194222333Y-117379888D02*
X194317571Y-117427507D01*
X194317571Y-117427507D02*
X194508047Y-117427507D01*
X194508047Y-117427507D02*
X194603285Y-117379888D01*
X194603285Y-117379888D02*
X194650904Y-117332268D01*
X194650904Y-117332268D02*
X194698523Y-117237030D01*
X194698523Y-117237030D02*
X194698523Y-116951316D01*
X194698523Y-116951316D02*
X194650904Y-116856078D01*
X194650904Y-116856078D02*
X194603285Y-116808459D01*
X194603285Y-116808459D02*
X194508047Y-116760840D01*
X194508047Y-116760840D02*
X194317571Y-116760840D01*
X194317571Y-116760840D02*
X194222333Y-116808459D01*
X192698523Y-116427507D02*
X192698523Y-117141792D01*
X192698523Y-117141792D02*
X192746142Y-117284649D01*
X192746142Y-117284649D02*
X192841380Y-117379888D01*
X192841380Y-117379888D02*
X192984237Y-117427507D01*
X192984237Y-117427507D02*
X193079475Y-117427507D01*
X191793761Y-116760840D02*
X191793761Y-117427507D01*
X192222332Y-116760840D02*
X192222332Y-117284649D01*
X192222332Y-117284649D02*
X192174713Y-117379888D01*
X192174713Y-117379888D02*
X192079475Y-117427507D01*
X192079475Y-117427507D02*
X191936618Y-117427507D01*
X191936618Y-117427507D02*
X191841380Y-117379888D01*
X191841380Y-117379888D02*
X191793761Y-117332268D01*
X191365189Y-117379888D02*
X191269951Y-117427507D01*
X191269951Y-117427507D02*
X191079475Y-117427507D01*
X191079475Y-117427507D02*
X190984237Y-117379888D01*
X190984237Y-117379888D02*
X190936618Y-117284649D01*
X190936618Y-117284649D02*
X190936618Y-117237030D01*
X190936618Y-117237030D02*
X190984237Y-117141792D01*
X190984237Y-117141792D02*
X191079475Y-117094173D01*
X191079475Y-117094173D02*
X191222332Y-117094173D01*
X191222332Y-117094173D02*
X191317570Y-117046554D01*
X191317570Y-117046554D02*
X191365189Y-116951316D01*
X191365189Y-116951316D02*
X191365189Y-116903697D01*
X191365189Y-116903697D02*
X191317570Y-116808459D01*
X191317570Y-116808459D02*
X191222332Y-116760840D01*
X191222332Y-116760840D02*
X191079475Y-116760840D01*
X191079475Y-116760840D02*
X190984237Y-116808459D01*
X190650903Y-116760840D02*
X190269951Y-116760840D01*
X190508046Y-116427507D02*
X190508046Y-117284649D01*
X190508046Y-117284649D02*
X190460427Y-117379888D01*
X190460427Y-117379888D02*
X190365189Y-117427507D01*
X190365189Y-117427507D02*
X190269951Y-117427507D01*
X189508046Y-116760840D02*
X189508046Y-117427507D01*
X189746141Y-116379888D02*
X189984236Y-117094173D01*
X189984236Y-117094173D02*
X189365189Y-117094173D01*
X188650903Y-116903697D02*
X188984236Y-116903697D01*
X188984236Y-117427507D02*
X188984236Y-116427507D01*
X188984236Y-116427507D02*
X188508046Y-116427507D01*
X187698522Y-116760840D02*
X187698522Y-117427507D01*
X188127093Y-116760840D02*
X188127093Y-117284649D01*
X188127093Y-117284649D02*
X188079474Y-117379888D01*
X188079474Y-117379888D02*
X187984236Y-117427507D01*
X187984236Y-117427507D02*
X187841379Y-117427507D01*
X187841379Y-117427507D02*
X187746141Y-117379888D01*
X187746141Y-117379888D02*
X187698522Y-117332268D01*
X187222331Y-116760840D02*
X187222331Y-117427507D01*
X187222331Y-116856078D02*
X187174712Y-116808459D01*
X187174712Y-116808459D02*
X187079474Y-116760840D01*
X187079474Y-116760840D02*
X186936617Y-116760840D01*
X186936617Y-116760840D02*
X186841379Y-116808459D01*
X186841379Y-116808459D02*
X186793760Y-116903697D01*
X186793760Y-116903697D02*
X186793760Y-117427507D01*
X186317569Y-117332268D02*
X186269950Y-117379888D01*
X186269950Y-117379888D02*
X186317569Y-117427507D01*
X186317569Y-117427507D02*
X186365188Y-117379888D01*
X186365188Y-117379888D02*
X186317569Y-117332268D01*
X186317569Y-117332268D02*
X186317569Y-117427507D01*
X186317569Y-117046554D02*
X186365188Y-116475126D01*
X186365188Y-116475126D02*
X186317569Y-116427507D01*
X186317569Y-116427507D02*
X186269950Y-116475126D01*
X186269950Y-116475126D02*
X186317569Y-117046554D01*
X186317569Y-117046554D02*
X186317569Y-116427507D01*
X204341381Y-120647395D02*
X204341381Y-119647395D01*
X203912810Y-120647395D02*
X203912810Y-120123585D01*
X203912810Y-120123585D02*
X203960429Y-120028347D01*
X203960429Y-120028347D02*
X204055667Y-119980728D01*
X204055667Y-119980728D02*
X204198524Y-119980728D01*
X204198524Y-119980728D02*
X204293762Y-120028347D01*
X204293762Y-120028347D02*
X204341381Y-120075966D01*
X203579476Y-119980728D02*
X203198524Y-119980728D01*
X203436619Y-119647395D02*
X203436619Y-120504537D01*
X203436619Y-120504537D02*
X203389000Y-120599776D01*
X203389000Y-120599776D02*
X203293762Y-120647395D01*
X203293762Y-120647395D02*
X203198524Y-120647395D01*
X203008047Y-119980728D02*
X202627095Y-119980728D01*
X202865190Y-119647395D02*
X202865190Y-120504537D01*
X202865190Y-120504537D02*
X202817571Y-120599776D01*
X202817571Y-120599776D02*
X202722333Y-120647395D01*
X202722333Y-120647395D02*
X202627095Y-120647395D01*
X202293761Y-119980728D02*
X202293761Y-120980728D01*
X202293761Y-120028347D02*
X202198523Y-119980728D01*
X202198523Y-119980728D02*
X202008047Y-119980728D01*
X202008047Y-119980728D02*
X201912809Y-120028347D01*
X201912809Y-120028347D02*
X201865190Y-120075966D01*
X201865190Y-120075966D02*
X201817571Y-120171204D01*
X201817571Y-120171204D02*
X201817571Y-120456918D01*
X201817571Y-120456918D02*
X201865190Y-120552156D01*
X201865190Y-120552156D02*
X201912809Y-120599776D01*
X201912809Y-120599776D02*
X202008047Y-120647395D01*
X202008047Y-120647395D02*
X202198523Y-120647395D01*
X202198523Y-120647395D02*
X202293761Y-120599776D01*
X201436618Y-120599776D02*
X201341380Y-120647395D01*
X201341380Y-120647395D02*
X201150904Y-120647395D01*
X201150904Y-120647395D02*
X201055666Y-120599776D01*
X201055666Y-120599776D02*
X201008047Y-120504537D01*
X201008047Y-120504537D02*
X201008047Y-120456918D01*
X201008047Y-120456918D02*
X201055666Y-120361680D01*
X201055666Y-120361680D02*
X201150904Y-120314061D01*
X201150904Y-120314061D02*
X201293761Y-120314061D01*
X201293761Y-120314061D02*
X201388999Y-120266442D01*
X201388999Y-120266442D02*
X201436618Y-120171204D01*
X201436618Y-120171204D02*
X201436618Y-120123585D01*
X201436618Y-120123585D02*
X201388999Y-120028347D01*
X201388999Y-120028347D02*
X201293761Y-119980728D01*
X201293761Y-119980728D02*
X201150904Y-119980728D01*
X201150904Y-119980728D02*
X201055666Y-120028347D01*
X200579475Y-120552156D02*
X200531856Y-120599776D01*
X200531856Y-120599776D02*
X200579475Y-120647395D01*
X200579475Y-120647395D02*
X200627094Y-120599776D01*
X200627094Y-120599776D02*
X200579475Y-120552156D01*
X200579475Y-120552156D02*
X200579475Y-120647395D01*
X200579475Y-120028347D02*
X200531856Y-120075966D01*
X200531856Y-120075966D02*
X200579475Y-120123585D01*
X200579475Y-120123585D02*
X200627094Y-120075966D01*
X200627094Y-120075966D02*
X200579475Y-120028347D01*
X200579475Y-120028347D02*
X200579475Y-120123585D01*
X199389000Y-119599776D02*
X200246142Y-120885490D01*
X198341381Y-119599776D02*
X199198523Y-120885490D01*
X197579476Y-119980728D02*
X197579476Y-120790252D01*
X197579476Y-120790252D02*
X197627095Y-120885490D01*
X197627095Y-120885490D02*
X197674714Y-120933109D01*
X197674714Y-120933109D02*
X197769952Y-120980728D01*
X197769952Y-120980728D02*
X197912809Y-120980728D01*
X197912809Y-120980728D02*
X198008047Y-120933109D01*
X197579476Y-120599776D02*
X197674714Y-120647395D01*
X197674714Y-120647395D02*
X197865190Y-120647395D01*
X197865190Y-120647395D02*
X197960428Y-120599776D01*
X197960428Y-120599776D02*
X198008047Y-120552156D01*
X198008047Y-120552156D02*
X198055666Y-120456918D01*
X198055666Y-120456918D02*
X198055666Y-120171204D01*
X198055666Y-120171204D02*
X198008047Y-120075966D01*
X198008047Y-120075966D02*
X197960428Y-120028347D01*
X197960428Y-120028347D02*
X197865190Y-119980728D01*
X197865190Y-119980728D02*
X197674714Y-119980728D01*
X197674714Y-119980728D02*
X197579476Y-120028347D01*
X197103285Y-120647395D02*
X197103285Y-119980728D01*
X197103285Y-119647395D02*
X197150904Y-119695014D01*
X197150904Y-119695014D02*
X197103285Y-119742633D01*
X197103285Y-119742633D02*
X197055666Y-119695014D01*
X197055666Y-119695014D02*
X197103285Y-119647395D01*
X197103285Y-119647395D02*
X197103285Y-119742633D01*
X196769952Y-119980728D02*
X196389000Y-119980728D01*
X196627095Y-119647395D02*
X196627095Y-120504537D01*
X196627095Y-120504537D02*
X196579476Y-120599776D01*
X196579476Y-120599776D02*
X196484238Y-120647395D01*
X196484238Y-120647395D02*
X196389000Y-120647395D01*
X196055666Y-120647395D02*
X196055666Y-119647395D01*
X195627095Y-120647395D02*
X195627095Y-120123585D01*
X195627095Y-120123585D02*
X195674714Y-120028347D01*
X195674714Y-120028347D02*
X195769952Y-119980728D01*
X195769952Y-119980728D02*
X195912809Y-119980728D01*
X195912809Y-119980728D02*
X196008047Y-120028347D01*
X196008047Y-120028347D02*
X196055666Y-120075966D01*
X194722333Y-119980728D02*
X194722333Y-120647395D01*
X195150904Y-119980728D02*
X195150904Y-120504537D01*
X195150904Y-120504537D02*
X195103285Y-120599776D01*
X195103285Y-120599776D02*
X195008047Y-120647395D01*
X195008047Y-120647395D02*
X194865190Y-120647395D01*
X194865190Y-120647395D02*
X194769952Y-120599776D01*
X194769952Y-120599776D02*
X194722333Y-120552156D01*
X194246142Y-120647395D02*
X194246142Y-119647395D01*
X194246142Y-120028347D02*
X194150904Y-119980728D01*
X194150904Y-119980728D02*
X193960428Y-119980728D01*
X193960428Y-119980728D02*
X193865190Y-120028347D01*
X193865190Y-120028347D02*
X193817571Y-120075966D01*
X193817571Y-120075966D02*
X193769952Y-120171204D01*
X193769952Y-120171204D02*
X193769952Y-120456918D01*
X193769952Y-120456918D02*
X193817571Y-120552156D01*
X193817571Y-120552156D02*
X193865190Y-120599776D01*
X193865190Y-120599776D02*
X193960428Y-120647395D01*
X193960428Y-120647395D02*
X194150904Y-120647395D01*
X194150904Y-120647395D02*
X194246142Y-120599776D01*
X193341380Y-120552156D02*
X193293761Y-120599776D01*
X193293761Y-120599776D02*
X193341380Y-120647395D01*
X193341380Y-120647395D02*
X193388999Y-120599776D01*
X193388999Y-120599776D02*
X193341380Y-120552156D01*
X193341380Y-120552156D02*
X193341380Y-120647395D01*
X192436619Y-120599776D02*
X192531857Y-120647395D01*
X192531857Y-120647395D02*
X192722333Y-120647395D01*
X192722333Y-120647395D02*
X192817571Y-120599776D01*
X192817571Y-120599776D02*
X192865190Y-120552156D01*
X192865190Y-120552156D02*
X192912809Y-120456918D01*
X192912809Y-120456918D02*
X192912809Y-120171204D01*
X192912809Y-120171204D02*
X192865190Y-120075966D01*
X192865190Y-120075966D02*
X192817571Y-120028347D01*
X192817571Y-120028347D02*
X192722333Y-119980728D01*
X192722333Y-119980728D02*
X192531857Y-119980728D01*
X192531857Y-119980728D02*
X192436619Y-120028347D01*
X191865190Y-120647395D02*
X191960428Y-120599776D01*
X191960428Y-120599776D02*
X192008047Y-120552156D01*
X192008047Y-120552156D02*
X192055666Y-120456918D01*
X192055666Y-120456918D02*
X192055666Y-120171204D01*
X192055666Y-120171204D02*
X192008047Y-120075966D01*
X192008047Y-120075966D02*
X191960428Y-120028347D01*
X191960428Y-120028347D02*
X191865190Y-119980728D01*
X191865190Y-119980728D02*
X191722333Y-119980728D01*
X191722333Y-119980728D02*
X191627095Y-120028347D01*
X191627095Y-120028347D02*
X191579476Y-120075966D01*
X191579476Y-120075966D02*
X191531857Y-120171204D01*
X191531857Y-120171204D02*
X191531857Y-120456918D01*
X191531857Y-120456918D02*
X191579476Y-120552156D01*
X191579476Y-120552156D02*
X191627095Y-120599776D01*
X191627095Y-120599776D02*
X191722333Y-120647395D01*
X191722333Y-120647395D02*
X191865190Y-120647395D01*
X191103285Y-120647395D02*
X191103285Y-119980728D01*
X191103285Y-120075966D02*
X191055666Y-120028347D01*
X191055666Y-120028347D02*
X190960428Y-119980728D01*
X190960428Y-119980728D02*
X190817571Y-119980728D01*
X190817571Y-119980728D02*
X190722333Y-120028347D01*
X190722333Y-120028347D02*
X190674714Y-120123585D01*
X190674714Y-120123585D02*
X190674714Y-120647395D01*
X190674714Y-120123585D02*
X190627095Y-120028347D01*
X190627095Y-120028347D02*
X190531857Y-119980728D01*
X190531857Y-119980728D02*
X190389000Y-119980728D01*
X190389000Y-119980728D02*
X190293761Y-120028347D01*
X190293761Y-120028347D02*
X190246142Y-120123585D01*
X190246142Y-120123585D02*
X190246142Y-120647395D01*
X189055667Y-119599776D02*
X189912809Y-120885490D01*
X188865190Y-119980728D02*
X188484238Y-119980728D01*
X188722333Y-120647395D02*
X188722333Y-119790252D01*
X188722333Y-119790252D02*
X188674714Y-119695014D01*
X188674714Y-119695014D02*
X188579476Y-119647395D01*
X188579476Y-119647395D02*
X188484238Y-119647395D01*
X187722333Y-120647395D02*
X187722333Y-119647395D01*
X187722333Y-120599776D02*
X187817571Y-120647395D01*
X187817571Y-120647395D02*
X188008047Y-120647395D01*
X188008047Y-120647395D02*
X188103285Y-120599776D01*
X188103285Y-120599776D02*
X188150904Y-120552156D01*
X188150904Y-120552156D02*
X188198523Y-120456918D01*
X188198523Y-120456918D02*
X188198523Y-120171204D01*
X188198523Y-120171204D02*
X188150904Y-120075966D01*
X188150904Y-120075966D02*
X188103285Y-120028347D01*
X188103285Y-120028347D02*
X188008047Y-119980728D01*
X188008047Y-119980728D02*
X187817571Y-119980728D01*
X187817571Y-119980728D02*
X187722333Y-120028347D01*
X187246142Y-120647395D02*
X187246142Y-119980728D01*
X187246142Y-119647395D02*
X187293761Y-119695014D01*
X187293761Y-119695014D02*
X187246142Y-119742633D01*
X187246142Y-119742633D02*
X187198523Y-119695014D01*
X187198523Y-119695014D02*
X187246142Y-119647395D01*
X187246142Y-119647395D02*
X187246142Y-119742633D01*
X186865190Y-119980728D02*
X186627095Y-120647395D01*
X186627095Y-120647395D02*
X186389000Y-119980728D01*
X186008047Y-120647395D02*
X186008047Y-119980728D01*
X186008047Y-119647395D02*
X186055666Y-119695014D01*
X186055666Y-119695014D02*
X186008047Y-119742633D01*
X186008047Y-119742633D02*
X185960428Y-119695014D01*
X185960428Y-119695014D02*
X186008047Y-119647395D01*
X186008047Y-119647395D02*
X186008047Y-119742633D01*
X185674714Y-119980728D02*
X185293762Y-119980728D01*
X185531857Y-119647395D02*
X185531857Y-120504537D01*
X185531857Y-120504537D02*
X185484238Y-120599776D01*
X185484238Y-120599776D02*
X185389000Y-120647395D01*
X185389000Y-120647395D02*
X185293762Y-120647395D01*
X185103285Y-119980728D02*
X184722333Y-119980728D01*
X184960428Y-119647395D02*
X184960428Y-120504537D01*
X184960428Y-120504537D02*
X184912809Y-120599776D01*
X184912809Y-120599776D02*
X184817571Y-120647395D01*
X184817571Y-120647395D02*
X184722333Y-120647395D01*
X184246142Y-120647395D02*
X184341380Y-120599776D01*
X184341380Y-120599776D02*
X184388999Y-120552156D01*
X184388999Y-120552156D02*
X184436618Y-120456918D01*
X184436618Y-120456918D02*
X184436618Y-120171204D01*
X184436618Y-120171204D02*
X184388999Y-120075966D01*
X184388999Y-120075966D02*
X184341380Y-120028347D01*
X184341380Y-120028347D02*
X184246142Y-119980728D01*
X184246142Y-119980728D02*
X184103285Y-119980728D01*
X184103285Y-119980728D02*
X184008047Y-120028347D01*
X184008047Y-120028347D02*
X183960428Y-120075966D01*
X183960428Y-120075966D02*
X183912809Y-120171204D01*
X183912809Y-120171204D02*
X183912809Y-120456918D01*
X183912809Y-120456918D02*
X183960428Y-120552156D01*
X183960428Y-120552156D02*
X184008047Y-120599776D01*
X184008047Y-120599776D02*
X184103285Y-120647395D01*
X184103285Y-120647395D02*
X184246142Y-120647395D01*
X182769952Y-119599776D02*
X183627094Y-120885490D01*
X182103285Y-120123585D02*
X182436618Y-120123585D01*
X182436618Y-120647395D02*
X182436618Y-119647395D01*
X182436618Y-119647395D02*
X181960428Y-119647395D01*
X181150904Y-120647395D02*
X181150904Y-120123585D01*
X181150904Y-120123585D02*
X181198523Y-120028347D01*
X181198523Y-120028347D02*
X181293761Y-119980728D01*
X181293761Y-119980728D02*
X181484237Y-119980728D01*
X181484237Y-119980728D02*
X181579475Y-120028347D01*
X181150904Y-120599776D02*
X181246142Y-120647395D01*
X181246142Y-120647395D02*
X181484237Y-120647395D01*
X181484237Y-120647395D02*
X181579475Y-120599776D01*
X181579475Y-120599776D02*
X181627094Y-120504537D01*
X181627094Y-120504537D02*
X181627094Y-120409299D01*
X181627094Y-120409299D02*
X181579475Y-120314061D01*
X181579475Y-120314061D02*
X181484237Y-120266442D01*
X181484237Y-120266442D02*
X181246142Y-120266442D01*
X181246142Y-120266442D02*
X181150904Y-120218823D01*
X180674713Y-120647395D02*
X180674713Y-119647395D01*
X180674713Y-120028347D02*
X180579475Y-119980728D01*
X180579475Y-119980728D02*
X180388999Y-119980728D01*
X180388999Y-119980728D02*
X180293761Y-120028347D01*
X180293761Y-120028347D02*
X180246142Y-120075966D01*
X180246142Y-120075966D02*
X180198523Y-120171204D01*
X180198523Y-120171204D02*
X180198523Y-120456918D01*
X180198523Y-120456918D02*
X180246142Y-120552156D01*
X180246142Y-120552156D02*
X180293761Y-120599776D01*
X180293761Y-120599776D02*
X180388999Y-120647395D01*
X180388999Y-120647395D02*
X180579475Y-120647395D01*
X180579475Y-120647395D02*
X180674713Y-120599776D01*
X179246142Y-119695014D02*
X179341380Y-119647395D01*
X179341380Y-119647395D02*
X179484237Y-119647395D01*
X179484237Y-119647395D02*
X179627094Y-119695014D01*
X179627094Y-119695014D02*
X179722332Y-119790252D01*
X179722332Y-119790252D02*
X179769951Y-119885490D01*
X179769951Y-119885490D02*
X179817570Y-120075966D01*
X179817570Y-120075966D02*
X179817570Y-120218823D01*
X179817570Y-120218823D02*
X179769951Y-120409299D01*
X179769951Y-120409299D02*
X179722332Y-120504537D01*
X179722332Y-120504537D02*
X179627094Y-120599776D01*
X179627094Y-120599776D02*
X179484237Y-120647395D01*
X179484237Y-120647395D02*
X179388999Y-120647395D01*
X179388999Y-120647395D02*
X179246142Y-120599776D01*
X179246142Y-120599776D02*
X179198523Y-120552156D01*
X179198523Y-120552156D02*
X179198523Y-120218823D01*
X179198523Y-120218823D02*
X179388999Y-120218823D01*
X178293761Y-120647395D02*
X178769951Y-120647395D01*
X178769951Y-120647395D02*
X178769951Y-119647395D01*
X201150904Y-122257339D02*
X201150904Y-121257339D01*
X200722333Y-122257339D02*
X200722333Y-121733529D01*
X200722333Y-121733529D02*
X200769952Y-121638291D01*
X200769952Y-121638291D02*
X200865190Y-121590672D01*
X200865190Y-121590672D02*
X201008047Y-121590672D01*
X201008047Y-121590672D02*
X201103285Y-121638291D01*
X201103285Y-121638291D02*
X201150904Y-121685910D01*
X200388999Y-121590672D02*
X200008047Y-121590672D01*
X200246142Y-121257339D02*
X200246142Y-122114481D01*
X200246142Y-122114481D02*
X200198523Y-122209720D01*
X200198523Y-122209720D02*
X200103285Y-122257339D01*
X200103285Y-122257339D02*
X200008047Y-122257339D01*
X199817570Y-121590672D02*
X199436618Y-121590672D01*
X199674713Y-121257339D02*
X199674713Y-122114481D01*
X199674713Y-122114481D02*
X199627094Y-122209720D01*
X199627094Y-122209720D02*
X199531856Y-122257339D01*
X199531856Y-122257339D02*
X199436618Y-122257339D01*
X199103284Y-121590672D02*
X199103284Y-122590672D01*
X199103284Y-121638291D02*
X199008046Y-121590672D01*
X199008046Y-121590672D02*
X198817570Y-121590672D01*
X198817570Y-121590672D02*
X198722332Y-121638291D01*
X198722332Y-121638291D02*
X198674713Y-121685910D01*
X198674713Y-121685910D02*
X198627094Y-121781148D01*
X198627094Y-121781148D02*
X198627094Y-122066862D01*
X198627094Y-122066862D02*
X198674713Y-122162100D01*
X198674713Y-122162100D02*
X198722332Y-122209720D01*
X198722332Y-122209720D02*
X198817570Y-122257339D01*
X198817570Y-122257339D02*
X199008046Y-122257339D01*
X199008046Y-122257339D02*
X199103284Y-122209720D01*
X198246141Y-122209720D02*
X198150903Y-122257339D01*
X198150903Y-122257339D02*
X197960427Y-122257339D01*
X197960427Y-122257339D02*
X197865189Y-122209720D01*
X197865189Y-122209720D02*
X197817570Y-122114481D01*
X197817570Y-122114481D02*
X197817570Y-122066862D01*
X197817570Y-122066862D02*
X197865189Y-121971624D01*
X197865189Y-121971624D02*
X197960427Y-121924005D01*
X197960427Y-121924005D02*
X198103284Y-121924005D01*
X198103284Y-121924005D02*
X198198522Y-121876386D01*
X198198522Y-121876386D02*
X198246141Y-121781148D01*
X198246141Y-121781148D02*
X198246141Y-121733529D01*
X198246141Y-121733529D02*
X198198522Y-121638291D01*
X198198522Y-121638291D02*
X198103284Y-121590672D01*
X198103284Y-121590672D02*
X197960427Y-121590672D01*
X197960427Y-121590672D02*
X197865189Y-121638291D01*
X197388998Y-122162100D02*
X197341379Y-122209720D01*
X197341379Y-122209720D02*
X197388998Y-122257339D01*
X197388998Y-122257339D02*
X197436617Y-122209720D01*
X197436617Y-122209720D02*
X197388998Y-122162100D01*
X197388998Y-122162100D02*
X197388998Y-122257339D01*
X197388998Y-121638291D02*
X197341379Y-121685910D01*
X197341379Y-121685910D02*
X197388998Y-121733529D01*
X197388998Y-121733529D02*
X197436617Y-121685910D01*
X197436617Y-121685910D02*
X197388998Y-121638291D01*
X197388998Y-121638291D02*
X197388998Y-121733529D01*
X196198523Y-121209720D02*
X197055665Y-122495434D01*
X195150904Y-121209720D02*
X196008046Y-122495434D01*
X194817570Y-121590672D02*
X194817570Y-122447815D01*
X194817570Y-122447815D02*
X194865189Y-122543053D01*
X194865189Y-122543053D02*
X194960427Y-122590672D01*
X194960427Y-122590672D02*
X195008046Y-122590672D01*
X194817570Y-121257339D02*
X194865189Y-121304958D01*
X194865189Y-121304958D02*
X194817570Y-121352577D01*
X194817570Y-121352577D02*
X194769951Y-121304958D01*
X194769951Y-121304958D02*
X194817570Y-121257339D01*
X194817570Y-121257339D02*
X194817570Y-121352577D01*
X193912809Y-121590672D02*
X193912809Y-122257339D01*
X194150904Y-121209720D02*
X194388999Y-121924005D01*
X194388999Y-121924005D02*
X193769952Y-121924005D01*
X193531856Y-121590672D02*
X193150904Y-121590672D01*
X193388999Y-122257339D02*
X193388999Y-121400196D01*
X193388999Y-121400196D02*
X193341380Y-121304958D01*
X193341380Y-121304958D02*
X193246142Y-121257339D01*
X193246142Y-121257339D02*
X193150904Y-121257339D01*
X192817570Y-122162100D02*
X192769951Y-122209720D01*
X192769951Y-122209720D02*
X192817570Y-122257339D01*
X192817570Y-122257339D02*
X192865189Y-122209720D01*
X192865189Y-122209720D02*
X192817570Y-122162100D01*
X192817570Y-122162100D02*
X192817570Y-122257339D01*
X192341380Y-122257339D02*
X192341380Y-121590672D01*
X192341380Y-121257339D02*
X192388999Y-121304958D01*
X192388999Y-121304958D02*
X192341380Y-121352577D01*
X192341380Y-121352577D02*
X192293761Y-121304958D01*
X192293761Y-121304958D02*
X192341380Y-121257339D01*
X192341380Y-121257339D02*
X192341380Y-121352577D01*
X191865190Y-121590672D02*
X191865190Y-122257339D01*
X191865190Y-121685910D02*
X191817571Y-121638291D01*
X191817571Y-121638291D02*
X191722333Y-121590672D01*
X191722333Y-121590672D02*
X191579476Y-121590672D01*
X191579476Y-121590672D02*
X191484238Y-121638291D01*
X191484238Y-121638291D02*
X191436619Y-121733529D01*
X191436619Y-121733529D02*
X191436619Y-122257339D01*
X191103285Y-121590672D02*
X190722333Y-121590672D01*
X190960428Y-122257339D02*
X190960428Y-121400196D01*
X190960428Y-121400196D02*
X190912809Y-121304958D01*
X190912809Y-121304958D02*
X190817571Y-121257339D01*
X190817571Y-121257339D02*
X190722333Y-121257339D01*
X190246142Y-122257339D02*
X190341380Y-122209720D01*
X190341380Y-122209720D02*
X190388999Y-122162100D01*
X190388999Y-122162100D02*
X190436618Y-122066862D01*
X190436618Y-122066862D02*
X190436618Y-121781148D01*
X190436618Y-121781148D02*
X190388999Y-121685910D01*
X190388999Y-121685910D02*
X190341380Y-121638291D01*
X190341380Y-121638291D02*
X190246142Y-121590672D01*
X190246142Y-121590672D02*
X190103285Y-121590672D01*
X190103285Y-121590672D02*
X190008047Y-121638291D01*
X190008047Y-121638291D02*
X189960428Y-121685910D01*
X189960428Y-121685910D02*
X189912809Y-121781148D01*
X189912809Y-121781148D02*
X189912809Y-122066862D01*
X189912809Y-122066862D02*
X189960428Y-122162100D01*
X189960428Y-122162100D02*
X190008047Y-122209720D01*
X190008047Y-122209720D02*
X190103285Y-122257339D01*
X190103285Y-122257339D02*
X190246142Y-122257339D01*
X188769952Y-121209720D02*
X189627094Y-122495434D01*
X188008047Y-121590672D02*
X188008047Y-122257339D01*
X188436618Y-121590672D02*
X188436618Y-122114481D01*
X188436618Y-122114481D02*
X188388999Y-122209720D01*
X188388999Y-122209720D02*
X188293761Y-122257339D01*
X188293761Y-122257339D02*
X188150904Y-122257339D01*
X188150904Y-122257339D02*
X188055666Y-122209720D01*
X188055666Y-122209720D02*
X188008047Y-122162100D01*
X187674713Y-121590672D02*
X187293761Y-121590672D01*
X187531856Y-121257339D02*
X187531856Y-122114481D01*
X187531856Y-122114481D02*
X187484237Y-122209720D01*
X187484237Y-122209720D02*
X187388999Y-122257339D01*
X187388999Y-122257339D02*
X187293761Y-122257339D01*
X186579475Y-122209720D02*
X186674713Y-122257339D01*
X186674713Y-122257339D02*
X186865189Y-122257339D01*
X186865189Y-122257339D02*
X186960427Y-122209720D01*
X186960427Y-122209720D02*
X187008046Y-122114481D01*
X187008046Y-122114481D02*
X187008046Y-121733529D01*
X187008046Y-121733529D02*
X186960427Y-121638291D01*
X186960427Y-121638291D02*
X186865189Y-121590672D01*
X186865189Y-121590672D02*
X186674713Y-121590672D01*
X186674713Y-121590672D02*
X186579475Y-121638291D01*
X186579475Y-121638291D02*
X186531856Y-121733529D01*
X186531856Y-121733529D02*
X186531856Y-121828767D01*
X186531856Y-121828767D02*
X187008046Y-121924005D01*
X186103284Y-122257339D02*
X186103284Y-121590672D01*
X186103284Y-121781148D02*
X186055665Y-121685910D01*
X186055665Y-121685910D02*
X186008046Y-121638291D01*
X186008046Y-121638291D02*
X185912808Y-121590672D01*
X185912808Y-121590672D02*
X185817570Y-121590672D01*
X185484236Y-122257339D02*
X185484236Y-121590672D01*
X185484236Y-121685910D02*
X185436617Y-121638291D01*
X185436617Y-121638291D02*
X185341379Y-121590672D01*
X185341379Y-121590672D02*
X185198522Y-121590672D01*
X185198522Y-121590672D02*
X185103284Y-121638291D01*
X185103284Y-121638291D02*
X185055665Y-121733529D01*
X185055665Y-121733529D02*
X185055665Y-122257339D01*
X185055665Y-121733529D02*
X185008046Y-121638291D01*
X185008046Y-121638291D02*
X184912808Y-121590672D01*
X184912808Y-121590672D02*
X184769951Y-121590672D01*
X184769951Y-121590672D02*
X184674712Y-121638291D01*
X184674712Y-121638291D02*
X184627093Y-121733529D01*
X184627093Y-121733529D02*
X184627093Y-122257339D01*
X184198522Y-121352577D02*
X184150903Y-121304958D01*
X184150903Y-121304958D02*
X184055665Y-121257339D01*
X184055665Y-121257339D02*
X183817570Y-121257339D01*
X183817570Y-121257339D02*
X183722332Y-121304958D01*
X183722332Y-121304958D02*
X183674713Y-121352577D01*
X183674713Y-121352577D02*
X183627094Y-121447815D01*
X183627094Y-121447815D02*
X183627094Y-121543053D01*
X183627094Y-121543053D02*
X183674713Y-121685910D01*
X183674713Y-121685910D02*
X184246141Y-122257339D01*
X184246141Y-122257339D02*
X183627094Y-122257339D01*
X183198522Y-121876386D02*
X182436618Y-121876386D01*
X182008046Y-122209720D02*
X181912808Y-122257339D01*
X181912808Y-122257339D02*
X181722332Y-122257339D01*
X181722332Y-122257339D02*
X181627094Y-122209720D01*
X181627094Y-122209720D02*
X181579475Y-122114481D01*
X181579475Y-122114481D02*
X181579475Y-122066862D01*
X181579475Y-122066862D02*
X181627094Y-121971624D01*
X181627094Y-121971624D02*
X181722332Y-121924005D01*
X181722332Y-121924005D02*
X181865189Y-121924005D01*
X181865189Y-121924005D02*
X181960427Y-121876386D01*
X181960427Y-121876386D02*
X182008046Y-121781148D01*
X182008046Y-121781148D02*
X182008046Y-121733529D01*
X182008046Y-121733529D02*
X181960427Y-121638291D01*
X181960427Y-121638291D02*
X181865189Y-121590672D01*
X181865189Y-121590672D02*
X181722332Y-121590672D01*
X181722332Y-121590672D02*
X181627094Y-121638291D01*
D14*
X175895000Y-112420400D02*
X206883000Y-112420400D01*
X206883000Y-123291600D01*
X175895000Y-123291600D01*
X175895000Y-112420400D01*
M02*
