M48
; DRILL file {KiCad 9.0.2} date 2025-06-23T14:50:58+0200
; FORMAT={-:-/ absolute / metric / decimal}
; #@! TF.CreationDate,2025-06-23T14:50:58+02:00
; #@! TF.GenerationSoftware,Kicad,Pcbnew,9.0.2
; #@! TF.FileFunction,Plated,1,2,PTH
FMAT,2
METRIC
; #@! TA.AperFunction,Plated,PTH,ComponentDrill
T1C0.200
; #@! TA.AperFunction,Plated,PTH,ViaDrill
T2C0.300
; #@! TA.AperFunction,Plated,PTH,ComponentDrill
T3C0.400
; #@! TA.AperFunction,Plated,PTH,ComponentDrill
T4C0.500
; #@! TA.AperFunction,Plated,PTH,ComponentDrill
T5C0.700
; #@! TA.AperFunction,Plated,PTH,ComponentDrill
T6C0.800
; #@! TA.AperFunction,Plated,PTH,ComponentDrill
T7C0.900
; #@! TA.AperFunction,Plated,PTH,ComponentDrill
T8C0.990
; #@! TA.AperFunction,Plated,PTH,ComponentDrill
T9C1.000
; #@! TA.AperFunction,Plated,PTH,ComponentDrill
T10C1.100
; #@! TA.AperFunction,Plated,PTH,ComponentDrill
T11C1.300
; #@! TA.AperFunction,Plated,PTH,ComponentDrill
T12C3.200
%
G90
G05
T1
X120.161Y-86.674
X120.161Y-88.199
X120.923Y-85.911
X120.923Y-87.436
X120.923Y-88.962
X121.686Y-86.674
X121.686Y-88.199
X122.448Y-85.911
X122.448Y-87.436
X122.448Y-88.962
X123.211Y-86.674
X123.211Y-88.199
T2
X77.916Y-85.446
X82.996Y-85.395
X83.693Y-94.818
X84.074Y-106.426
X85.725Y-85.725
X86.36Y-107.696
X87.351Y-99.822
X87.884Y-107.696
X88.646Y-110.744
X88.773Y-117.094
X89.789Y-81.915
X91.059Y-86.487
X92.202Y-108.966
X93.454Y-102.616
X93.504Y-100.482
X93.98Y-93.044
X94.869Y-86.741
X95.123Y-81.915
X95.631Y-115.316
X96.012Y-93.044
X96.362Y-99.047
X98.686Y-100.711
X99.233Y-84.501
X101.092Y-91.948
X103.82Y-102.108
X106.091Y-80.137
X108.331Y-104.574
X112.268Y-85.217
X112.352Y-95.377
X116.656Y-99.268
X119.761Y-107.188
X120.396Y-107.823
X121.889Y-127.098
X123.317Y-107.207
X129.667Y-107.823
X130.683Y-111.252
X132.526Y-80.84
X132.526Y-83.398
X133.096Y-84.668
X133.796Y-93.558
X133.796Y-96.099
X133.985Y-99.949
X135.066Y-93.558
X135.066Y-99.908
X136.336Y-107.528
X138.176Y-97.663
X142.875Y-95.758
X146.496Y-127.098
X150.306Y-108.798
X153.111Y-111.338
X154.116Y-107.528
X159.196Y-101.178
X159.196Y-108.796
X159.196Y-110.049
X159.196Y-125.308
X161.736Y-106.258
X161.736Y-107.528
X161.736Y-108.796
X161.736Y-110.069
X163.006Y-102.448
X169.862Y-104.244
X176.814Y-127.048
X176.816Y-125.222
X178.816Y-109.347
X178.816Y-115.316
X179.102Y-121.285
X179.197Y-107.334
X181.432Y-103.226
X184.023Y-106.826
X184.404Y-105.664
X185.293Y-105.664
X185.42Y-109.474
X185.42Y-113.665
X186.667Y-102.616
X187.96Y-112.141
X188.087Y-107.95
X190.82Y-105.029
X191.135Y-96.266
X193.102Y-101.723
X194.438Y-102.616
X195.892Y-115.268
X196.088Y-109.347
X196.402Y-98.171
X196.597Y-121.285
X202.438Y-109.474
X202.565Y-113.665
X205.105Y-108.096
X205.105Y-112.268
X206.375Y-108.077
T3
X87.226Y-78.239
X87.226Y-79.588
X88.076Y-78.239
X88.076Y-79.588
X88.926Y-78.239
X88.926Y-79.588
X89.776Y-78.239
X89.776Y-79.588
X90.626Y-78.239
X90.626Y-79.588
X91.476Y-78.239
X91.476Y-79.588
X92.326Y-78.239
X92.326Y-79.588
X93.176Y-78.239
X93.176Y-79.588
T4
X104.206Y-98.298
X106.106Y-98.298
T6
X121.916Y-116.158
X121.916Y-118.959
X124.016Y-118.959
X126.616Y-118.959
X128.716Y-116.158
X128.716Y-118.959
X146.517Y-116.158
X146.517Y-118.959
X148.617Y-118.959
X151.217Y-118.959
X153.317Y-116.158
X153.317Y-118.959
T7
X86.825Y-123.599
X89.365Y-123.599
X162.498Y-120.988
X162.498Y-123.528
X165.038Y-120.988
X165.038Y-123.528
X168.848Y-120.988
X168.848Y-123.528
X171.388Y-120.988
X171.388Y-123.528
T8
X77.916Y-108.798
X77.916Y-113.298
X95.006Y-125.172
X99.506Y-125.172
X106.436Y-125.172
X110.936Y-125.172
T9
X160.518Y-83.312
X161.663Y-80.772
X161.663Y-85.852
X162.808Y-83.312
X163.953Y-80.772
X163.953Y-85.852
X165.098Y-83.312
X166.243Y-80.772
X166.243Y-85.852
X167.388Y-83.312
X168.533Y-80.772
X168.533Y-85.852
X169.678Y-83.312
X170.823Y-80.772
X170.823Y-85.852
X185.755Y-84.582
X188.295Y-84.582
X210.52Y-93.908
X210.52Y-96.678
X210.52Y-99.448
X210.52Y-102.218
X210.52Y-104.989
X213.36Y-95.293
X213.36Y-98.063
X213.36Y-100.834
X213.36Y-103.603
T10
X101.379Y-111.76
X106.379Y-108.16
X111.379Y-111.76
T11
X80.406Y-107.538
X80.406Y-114.548
X93.746Y-122.682
X100.756Y-122.682
X105.176Y-122.682
X112.186Y-122.682
X195.236Y-77.693
X195.736Y-84.993
X199.836Y-73.793
X202.336Y-80.593
X205.036Y-81.793
T12
X153.478Y-83.312
X178.478Y-83.312
X211.94Y-86.948
X211.94Y-111.948
T5
X85.881Y-75.388G85X85.881Y-74.489
G05
X85.881Y-79.739G85X85.881Y-78.438
G05
X94.516Y-75.383G85X94.516Y-74.483
G05
X94.521Y-79.739G85X94.521Y-78.438
G05
T9
X118.466Y-121.058G85X118.466Y-122.558
G05
X124.316Y-122.608G85X126.316Y-122.608
G05
X132.166Y-121.058G85X132.166Y-122.558
G05
X143.067Y-121.058G85X143.067Y-122.558
G05
X148.917Y-122.608G85X150.917Y-122.608
G05
X156.767Y-121.058G85X156.767Y-122.558
G05
M30
