G04 #@! TF.GenerationSoftware,KiCad,Pcbnew,9.0.2*
G04 #@! TF.CreationDate,2025-06-23T14:50:53+02:00*
G04 #@! TF.ProjectId,nTerm2-S FT231,6e546572-6d32-42d5-9320-46543233312e,0.10*
G04 #@! TF.SameCoordinates,Original*
G04 #@! TF.FileFunction,Copper,L1,Top*
G04 #@! TF.FilePolarity,Positive*
%FSLAX46Y46*%
G04 Gerber Fmt 4.6, Leading zero omitted, Abs format (unit mm)*
G04 Created by KiCad (PCBNEW 9.0.2) date 2025-06-23 14:50:53*
%MOMM*%
%LPD*%
G01*
G04 APERTURE LIST*
G04 Aperture macros list*
%AMRoundRect*
0 Rectangle with rounded corners*
0 $1 Rounding radius*
0 $2 $3 $4 $5 $6 $7 $8 $9 X,Y pos of 4 corners*
0 Add a 4 corners polygon primitive as box body*
4,1,4,$2,$3,$4,$5,$6,$7,$8,$9,$2,$3,0*
0 Add four circle primitives for the rounded corners*
1,1,$1+$1,$2,$3*
1,1,$1+$1,$4,$5*
1,1,$1+$1,$6,$7*
1,1,$1+$1,$8,$9*
0 Add four rect primitives between the rounded corners*
20,1,$1+$1,$2,$3,$4,$5,0*
20,1,$1+$1,$4,$5,$6,$7,0*
20,1,$1+$1,$6,$7,$8,$9,0*
20,1,$1+$1,$8,$9,$2,$3,0*%
%AMFreePoly0*
4,1,23,0.550000,-0.750000,0.000000,-0.750000,0.000000,-0.745722,-0.065263,-0.745722,-0.191342,-0.711940,-0.304381,-0.646677,-0.396677,-0.554381,-0.461940,-0.441342,-0.495722,-0.315263,-0.495722,-0.250000,-0.500000,-0.250000,-0.500000,0.250000,-0.495722,0.250000,-0.495722,0.315263,-0.461940,0.441342,-0.396677,0.554381,-0.304381,0.646677,-0.191342,0.711940,-0.065263,0.745722,0.000000,0.745722,
0.000000,0.750000,0.550000,0.750000,0.550000,-0.750000,0.550000,-0.750000,$1*%
%AMFreePoly1*
4,1,23,0.000000,0.745722,0.065263,0.745722,0.191342,0.711940,0.304381,0.646677,0.396677,0.554381,0.461940,0.441342,0.495722,0.315263,0.495722,0.250000,0.500000,0.250000,0.500000,-0.250000,0.495722,-0.250000,0.495722,-0.315263,0.461940,-0.441342,0.396677,-0.554381,0.304381,-0.646677,0.191342,-0.711940,0.065263,-0.745722,0.000000,-0.745722,0.000000,-0.750000,-0.550000,-0.750000,
-0.550000,0.750000,0.000000,0.750000,0.000000,0.745722,0.000000,0.745722,$1*%
G04 Aperture macros list end*
G04 #@! TA.AperFunction,Conductor*
%ADD10C,0.200000*%
G04 #@! TD*
G04 #@! TA.AperFunction,Conductor*
%ADD11C,0.400000*%
G04 #@! TD*
G04 #@! TA.AperFunction,SMDPad,CuDef*
%ADD12RoundRect,0.237500X-0.237500X0.250000X-0.237500X-0.250000X0.237500X-0.250000X0.237500X0.250000X0*%
G04 #@! TD*
G04 #@! TA.AperFunction,SMDPad,CuDef*
%ADD13RoundRect,0.237500X-0.250000X-0.237500X0.250000X-0.237500X0.250000X0.237500X-0.250000X0.237500X0*%
G04 #@! TD*
G04 #@! TA.AperFunction,SMDPad,CuDef*
%ADD14FreePoly0,90.000000*%
G04 #@! TD*
G04 #@! TA.AperFunction,SMDPad,CuDef*
%ADD15R,1.500000X1.000000*%
G04 #@! TD*
G04 #@! TA.AperFunction,SMDPad,CuDef*
%ADD16FreePoly1,90.000000*%
G04 #@! TD*
G04 #@! TA.AperFunction,SMDPad,CuDef*
%ADD17RoundRect,0.132500X0.132500X-0.532500X0.132500X0.532500X-0.132500X0.532500X-0.132500X-0.532500X0*%
G04 #@! TD*
G04 #@! TA.AperFunction,SMDPad,CuDef*
%ADD18RoundRect,0.225000X-0.225000X-0.375000X0.225000X-0.375000X0.225000X0.375000X-0.225000X0.375000X0*%
G04 #@! TD*
G04 #@! TA.AperFunction,SMDPad,CuDef*
%ADD19R,0.700000X2.000000*%
G04 #@! TD*
G04 #@! TA.AperFunction,ComponentPad*
%ADD20C,1.750000*%
G04 #@! TD*
G04 #@! TA.AperFunction,ComponentPad*
%ADD21C,2.100000*%
G04 #@! TD*
G04 #@! TA.AperFunction,ComponentPad*
%ADD22R,1.700000X1.700000*%
G04 #@! TD*
G04 #@! TA.AperFunction,ComponentPad*
%ADD23O,1.700000X1.700000*%
G04 #@! TD*
G04 #@! TA.AperFunction,SMDPad,CuDef*
%ADD24R,1.500000X0.900000*%
G04 #@! TD*
G04 #@! TA.AperFunction,SMDPad,CuDef*
%ADD25R,0.900000X1.500000*%
G04 #@! TD*
G04 #@! TA.AperFunction,SMDPad,CuDef*
%ADD26R,1.050000X1.050000*%
G04 #@! TD*
G04 #@! TA.AperFunction,HeatsinkPad*
%ADD27C,0.600000*%
G04 #@! TD*
G04 #@! TA.AperFunction,HeatsinkPad*
%ADD28R,4.200000X4.200000*%
G04 #@! TD*
G04 #@! TA.AperFunction,SMDPad,CuDef*
%ADD29RoundRect,0.237500X0.237500X-0.250000X0.237500X0.250000X-0.237500X0.250000X-0.237500X-0.250000X0*%
G04 #@! TD*
G04 #@! TA.AperFunction,SMDPad,CuDef*
%ADD30RoundRect,0.237500X-0.237500X0.300000X-0.237500X-0.300000X0.237500X-0.300000X0.237500X0.300000X0*%
G04 #@! TD*
G04 #@! TA.AperFunction,ComponentPad*
%ADD31R,1.600000X1.600000*%
G04 #@! TD*
G04 #@! TA.AperFunction,ComponentPad*
%ADD32C,1.600000*%
G04 #@! TD*
G04 #@! TA.AperFunction,ComponentPad*
%ADD33O,2.000000X3.500000*%
G04 #@! TD*
G04 #@! TA.AperFunction,ComponentPad*
%ADD34O,4.000000X2.000000*%
G04 #@! TD*
G04 #@! TA.AperFunction,SMDPad,CuDef*
%ADD35RoundRect,0.250000X0.550000X-1.500000X0.550000X1.500000X-0.550000X1.500000X-0.550000X-1.500000X0*%
G04 #@! TD*
G04 #@! TA.AperFunction,SMDPad,CuDef*
%ADD36RoundRect,0.237500X0.237500X-0.300000X0.237500X0.300000X-0.237500X0.300000X-0.237500X-0.300000X0*%
G04 #@! TD*
G04 #@! TA.AperFunction,ComponentPad*
%ADD37R,1.800000X1.800000*%
G04 #@! TD*
G04 #@! TA.AperFunction,ComponentPad*
%ADD38C,1.800000*%
G04 #@! TD*
G04 #@! TA.AperFunction,SMDPad,CuDef*
%ADD39RoundRect,0.150000X-0.825000X-0.150000X0.825000X-0.150000X0.825000X0.150000X-0.825000X0.150000X0*%
G04 #@! TD*
G04 #@! TA.AperFunction,SMDPad,CuDef*
%ADD40RoundRect,0.237500X0.250000X0.237500X-0.250000X0.237500X-0.250000X-0.237500X0.250000X-0.237500X0*%
G04 #@! TD*
G04 #@! TA.AperFunction,SMDPad,CuDef*
%ADD41RoundRect,0.250000X-0.425000X0.537500X-0.425000X-0.537500X0.425000X-0.537500X0.425000X0.537500X0*%
G04 #@! TD*
G04 #@! TA.AperFunction,SMDPad,CuDef*
%ADD42FreePoly0,0.000000*%
G04 #@! TD*
G04 #@! TA.AperFunction,SMDPad,CuDef*
%ADD43R,1.000000X1.500000*%
G04 #@! TD*
G04 #@! TA.AperFunction,SMDPad,CuDef*
%ADD44FreePoly1,0.000000*%
G04 #@! TD*
G04 #@! TA.AperFunction,SMDPad,CuDef*
%ADD45RoundRect,0.250000X0.425000X-0.537500X0.425000X0.537500X-0.425000X0.537500X-0.425000X-0.537500X0*%
G04 #@! TD*
G04 #@! TA.AperFunction,SMDPad,CuDef*
%ADD46RoundRect,0.237500X0.300000X0.237500X-0.300000X0.237500X-0.300000X-0.237500X0.300000X-0.237500X0*%
G04 #@! TD*
G04 #@! TA.AperFunction,SMDPad,CuDef*
%ADD47RoundRect,0.225000X0.225000X0.375000X-0.225000X0.375000X-0.225000X-0.375000X0.225000X-0.375000X0*%
G04 #@! TD*
G04 #@! TA.AperFunction,SMDPad,CuDef*
%ADD48RoundRect,0.375000X-0.375000X0.625000X-0.375000X-0.625000X0.375000X-0.625000X0.375000X0.625000X0*%
G04 #@! TD*
G04 #@! TA.AperFunction,SMDPad,CuDef*
%ADD49RoundRect,0.500000X-1.400000X0.500000X-1.400000X-0.500000X1.400000X-0.500000X1.400000X0.500000X0*%
G04 #@! TD*
G04 #@! TA.AperFunction,SMDPad,CuDef*
%ADD50RoundRect,0.250000X0.875000X0.925000X-0.875000X0.925000X-0.875000X-0.925000X0.875000X-0.925000X0*%
G04 #@! TD*
G04 #@! TA.AperFunction,SMDPad,CuDef*
%ADD51RoundRect,0.250000X1.025000X-0.875000X1.025000X0.875000X-1.025000X0.875000X-1.025000X-0.875000X0*%
G04 #@! TD*
G04 #@! TA.AperFunction,SMDPad,CuDef*
%ADD52RoundRect,0.150000X-0.587500X-0.150000X0.587500X-0.150000X0.587500X0.150000X-0.587500X0.150000X0*%
G04 #@! TD*
G04 #@! TA.AperFunction,SMDPad,CuDef*
%ADD53RoundRect,0.237500X-0.300000X-0.237500X0.300000X-0.237500X0.300000X0.237500X-0.300000X0.237500X0*%
G04 #@! TD*
G04 #@! TA.AperFunction,SMDPad,CuDef*
%ADD54RoundRect,0.150000X-0.150000X0.587500X-0.150000X-0.587500X0.150000X-0.587500X0.150000X0.587500X0*%
G04 #@! TD*
G04 #@! TA.AperFunction,SMDPad,CuDef*
%ADD55RoundRect,0.150000X0.587500X0.150000X-0.587500X0.150000X-0.587500X-0.150000X0.587500X-0.150000X0*%
G04 #@! TD*
G04 #@! TA.AperFunction,ComponentPad*
%ADD56C,0.700000*%
G04 #@! TD*
G04 #@! TA.AperFunction,ComponentPad*
%ADD57O,1.300000X3.200000*%
G04 #@! TD*
G04 #@! TA.AperFunction,ComponentPad*
%ADD58O,1.300000X2.500000*%
G04 #@! TD*
G04 #@! TA.AperFunction,SMDPad,CuDef*
%ADD59RoundRect,0.250001X0.924999X-0.499999X0.924999X0.499999X-0.924999X0.499999X-0.924999X-0.499999X0*%
G04 #@! TD*
G04 #@! TA.AperFunction,ComponentPad*
%ADD60C,2.200000*%
G04 #@! TD*
G04 #@! TA.AperFunction,SMDPad,CuDef*
%ADD61RoundRect,0.150000X0.150000X-0.512500X0.150000X0.512500X-0.150000X0.512500X-0.150000X-0.512500X0*%
G04 #@! TD*
G04 #@! TA.AperFunction,ComponentPad*
%ADD62C,4.000000*%
G04 #@! TD*
G04 #@! TA.AperFunction,SMDPad,CuDef*
%ADD63RoundRect,0.250000X-1.250000X-0.550000X1.250000X-0.550000X1.250000X0.550000X-1.250000X0.550000X0*%
G04 #@! TD*
G04 #@! TA.AperFunction,SMDPad,CuDef*
%ADD64RoundRect,0.250000X-1.500000X-0.550000X1.500000X-0.550000X1.500000X0.550000X-1.500000X0.550000X0*%
G04 #@! TD*
G04 #@! TA.AperFunction,SMDPad,CuDef*
%ADD65RoundRect,0.250000X-0.337500X-0.475000X0.337500X-0.475000X0.337500X0.475000X-0.337500X0.475000X0*%
G04 #@! TD*
G04 #@! TA.AperFunction,SMDPad,CuDef*
%ADD66RoundRect,0.250000X0.537500X0.425000X-0.537500X0.425000X-0.537500X-0.425000X0.537500X-0.425000X0*%
G04 #@! TD*
G04 #@! TA.AperFunction,ComponentPad*
%ADD67O,2.200000X4.000000*%
G04 #@! TD*
G04 #@! TA.AperFunction,ComponentPad*
%ADD68O,4.000000X2.200000*%
G04 #@! TD*
G04 #@! TA.AperFunction,ComponentPad*
%ADD69R,2.200000X4.000000*%
G04 #@! TD*
G04 #@! TA.AperFunction,ComponentPad*
%ADD70C,1.000000*%
G04 #@! TD*
G04 #@! TA.AperFunction,SMDPad,CuDef*
%ADD71RoundRect,0.250000X0.925000X-0.875000X0.925000X0.875000X-0.925000X0.875000X-0.925000X-0.875000X0*%
G04 #@! TD*
G04 #@! TA.AperFunction,SMDPad,CuDef*
%ADD72R,1.200000X0.400000*%
G04 #@! TD*
G04 #@! TA.AperFunction,SMDPad,CuDef*
%ADD73R,1.200000X1.200000*%
G04 #@! TD*
G04 #@! TA.AperFunction,ViaPad*
%ADD74C,0.600000*%
G04 #@! TD*
G04 #@! TA.AperFunction,ViaPad*
%ADD75C,0.500000*%
G04 #@! TD*
G04 APERTURE END LIST*
D10*
X88646000Y-110744000D02*
X88646000Y-111760000D01*
X90170000Y-105918000D02*
X92202000Y-105918000D01*
X91186000Y-104394000D02*
X91186000Y-105918000D01*
D11*
X87884000Y-107696000D02*
X90170000Y-107696000D01*
D12*
X84266000Y-107528500D03*
X84266000Y-109353500D03*
D13*
X138956000Y-84668500D03*
X140781000Y-84668500D03*
D12*
X96012000Y-90123000D03*
X96012000Y-91948000D03*
D13*
X176792500Y-118999000D03*
X178617500Y-118999000D03*
D12*
X88392000Y-92202000D03*
X88392000Y-94027000D03*
D14*
X171856400Y-93644100D03*
D15*
X171856400Y-92344100D03*
D16*
X171856400Y-91044100D03*
D17*
X103820000Y-103632000D03*
X105090000Y-103632000D03*
X106360000Y-103632000D03*
X106360000Y-100582000D03*
X105090000Y-100582000D03*
X103820000Y-100582000D03*
D12*
X177088800Y-92140900D03*
X177088800Y-93965900D03*
D18*
X179992000Y-123571000D03*
X183292000Y-123571000D03*
D19*
X200471000Y-109268500D03*
X197271000Y-109268500D03*
X195071000Y-109268500D03*
X192871000Y-109268500D03*
X192871000Y-115268500D03*
X195071000Y-115268500D03*
X197271000Y-115268500D03*
X200471000Y-115268500D03*
D20*
X99506000Y-125172000D03*
X95006000Y-125172000D03*
D21*
X100756000Y-122682000D03*
X93746000Y-122682000D03*
D22*
X188295200Y-84582000D03*
D23*
X185755200Y-84582000D03*
D12*
X174436000Y-102997000D03*
X174436000Y-104822000D03*
D24*
X113616000Y-80096500D03*
X113616000Y-81366500D03*
X113616000Y-82636500D03*
X113616000Y-83906500D03*
X113616000Y-85176500D03*
X113616000Y-86446500D03*
X113616000Y-87716500D03*
X113616000Y-88986500D03*
X113616000Y-90256500D03*
X113616000Y-91526500D03*
X113616000Y-92796500D03*
X113616000Y-94066500D03*
X113616000Y-95336500D03*
X113616000Y-96606500D03*
D25*
X116656000Y-97856500D03*
X117926000Y-97856500D03*
X119196000Y-97856500D03*
X120466000Y-97856500D03*
X121736000Y-97856500D03*
X123006000Y-97856500D03*
X124276000Y-97856500D03*
X125546000Y-97856500D03*
X126816000Y-97856500D03*
X128086000Y-97856500D03*
D24*
X131116000Y-96606500D03*
X131116000Y-95336500D03*
X131116000Y-94066500D03*
X131116000Y-92796500D03*
X131116000Y-91526500D03*
X131116000Y-90256500D03*
X131116000Y-88986500D03*
X131116000Y-87716500D03*
X131116000Y-86446500D03*
X131116000Y-85176500D03*
X131116000Y-83906500D03*
X131116000Y-82636500D03*
X131116000Y-81366500D03*
X131116000Y-80096500D03*
D26*
X120161000Y-85911500D03*
D27*
X120161000Y-86674000D03*
D26*
X120161000Y-87436500D03*
D27*
X120161000Y-88199000D03*
D26*
X120161000Y-88961500D03*
D27*
X120923500Y-85911500D03*
X120923500Y-87436500D03*
X120923500Y-88961500D03*
D26*
X121686000Y-85911500D03*
D27*
X121686000Y-86674000D03*
D26*
X121686000Y-87436500D03*
D28*
X121686000Y-87436500D03*
D27*
X121686000Y-88199000D03*
D26*
X121686000Y-88961500D03*
D27*
X122448500Y-85911500D03*
X122448500Y-87436500D03*
X122448500Y-88961500D03*
D26*
X123211000Y-85911500D03*
D27*
X123211000Y-86674000D03*
D26*
X123211000Y-87436500D03*
D27*
X123211000Y-88199000D03*
D26*
X123211000Y-88961500D03*
D29*
X127635000Y-112188000D03*
X127635000Y-110363000D03*
D20*
X110936000Y-125172000D03*
X106436000Y-125172000D03*
D21*
X112186000Y-122682000D03*
X105176000Y-122682000D03*
D13*
X192128500Y-100203000D03*
X193953500Y-100203000D03*
D30*
X176976000Y-103047000D03*
X176976000Y-104772000D03*
D31*
X126616000Y-118958500D03*
D32*
X124016000Y-118958500D03*
X128716000Y-118958500D03*
X121916000Y-118958500D03*
X128716000Y-116158500D03*
X121916000Y-116158500D03*
D33*
X118466000Y-121808500D03*
D34*
X125316000Y-122608500D03*
D33*
X132166000Y-121808500D03*
D35*
X205740000Y-123096000D03*
X205740000Y-117696000D03*
D13*
X138956000Y-88224500D03*
X140781000Y-88224500D03*
D36*
X90043000Y-88212000D03*
X90043000Y-86487000D03*
D13*
X194287500Y-118999000D03*
X196112500Y-118999000D03*
D36*
X92075000Y-88212000D03*
X92075000Y-86487000D03*
D35*
X188279000Y-123096000D03*
X188279000Y-117696000D03*
D37*
X162498000Y-120988500D03*
D38*
X165038000Y-120988500D03*
D37*
X162498000Y-123528500D03*
D38*
X165038000Y-123528500D03*
D12*
X170499000Y-113878500D03*
X170499000Y-115703500D03*
D39*
X171778499Y-96520000D03*
X171778499Y-97790000D03*
X171778499Y-99060000D03*
X171778499Y-100330000D03*
X176728499Y-100330000D03*
X176728499Y-99060000D03*
X176728499Y-97790000D03*
X176728499Y-96520000D03*
D40*
X140781000Y-80858500D03*
X138956000Y-80858500D03*
D30*
X85344000Y-93093200D03*
X85344000Y-94818200D03*
D29*
X121539000Y-112188000D03*
X121539000Y-110363000D03*
D41*
X147574000Y-105369500D03*
X147574000Y-108244500D03*
D42*
X203775000Y-113665000D03*
D43*
X205075000Y-113665000D03*
D44*
X206375000Y-113665000D03*
D29*
X92202000Y-107743000D03*
X92202000Y-105918000D03*
D45*
X87045800Y-88671400D03*
X87045800Y-85796400D03*
D37*
X168848000Y-120988500D03*
D38*
X171388000Y-120988500D03*
D37*
X168848000Y-123528500D03*
D38*
X171388000Y-123528500D03*
D12*
X94003500Y-90123000D03*
X94003500Y-91948000D03*
D42*
X203775000Y-109474000D03*
D43*
X205075000Y-109474000D03*
D44*
X206375000Y-109474000D03*
D31*
X151217000Y-118958500D03*
D32*
X148617000Y-118958500D03*
X153317000Y-118958500D03*
X146517000Y-118958500D03*
X153317000Y-116158500D03*
X146517000Y-116158500D03*
D33*
X143067000Y-121808500D03*
D34*
X149917000Y-122608500D03*
D33*
X156767000Y-121808500D03*
D46*
X90424000Y-118491000D03*
X88699000Y-118491000D03*
D47*
X107694000Y-116586000D03*
X104394000Y-116586000D03*
D48*
X81637500Y-94817800D03*
X79337500Y-94817800D03*
D49*
X79337500Y-101117800D03*
D48*
X77037500Y-94817800D03*
D50*
X104498050Y-81788000D03*
X99398050Y-81788000D03*
D13*
X88646000Y-115570000D03*
X90471000Y-115570000D03*
D36*
X108265000Y-98298000D03*
X108265000Y-96573000D03*
D13*
X166143000Y-96052500D03*
X167968000Y-96052500D03*
D39*
X152276000Y-99527500D03*
X152276000Y-100797500D03*
X152276000Y-102067500D03*
X152276000Y-103337500D03*
X152276000Y-104607500D03*
X152276000Y-105877500D03*
X152276000Y-107147500D03*
X152276000Y-108417500D03*
X157226000Y-108417500D03*
X157226000Y-107147500D03*
X157226000Y-105877500D03*
X157226000Y-104607500D03*
X157226000Y-103337500D03*
X157226000Y-102067500D03*
X157226000Y-100797500D03*
X157226000Y-99527500D03*
D12*
X90297000Y-92202000D03*
X90297000Y-94027000D03*
D42*
X186757000Y-113665000D03*
D43*
X188057000Y-113665000D03*
D44*
X189357000Y-113665000D03*
D51*
X77901800Y-89966800D03*
X77901800Y-83566800D03*
D41*
X144526000Y-105369500D03*
X144526000Y-108244500D03*
D52*
X196438000Y-100183000D03*
X196438000Y-102083000D03*
X198313000Y-101133000D03*
D53*
X99949000Y-117475000D03*
X101674000Y-117475000D03*
D19*
X183250500Y-109268500D03*
X180050500Y-109268500D03*
X177850500Y-109268500D03*
X175650500Y-109268500D03*
X175650500Y-115268500D03*
X177850500Y-115268500D03*
X180050500Y-115268500D03*
X183250500Y-115268500D03*
D45*
X88823800Y-102874800D03*
X88823800Y-99999800D03*
D54*
X195261000Y-121871500D03*
X193361000Y-121871500D03*
X194311000Y-123746500D03*
D55*
X97506000Y-117409000D03*
X97506000Y-115509000D03*
X95631000Y-116459000D03*
D56*
X93176000Y-79588500D03*
X92326000Y-79588500D03*
X91476000Y-79588500D03*
X90626000Y-79588500D03*
X89776000Y-79588500D03*
X88926000Y-79588500D03*
X88076000Y-79588500D03*
X87226000Y-79588500D03*
X87226000Y-78238500D03*
X88076000Y-78238500D03*
X88926000Y-78238500D03*
X89776000Y-78238500D03*
X90626000Y-78238500D03*
X91476000Y-78238500D03*
X92326000Y-78238500D03*
X93176000Y-78238500D03*
D57*
X94521000Y-79088500D03*
D58*
X94516000Y-74783500D03*
D57*
X85881000Y-79088500D03*
D58*
X85881000Y-74788500D03*
D13*
X98171000Y-91948000D03*
X99996000Y-91948000D03*
D54*
X177766000Y-121871500D03*
X175866000Y-121871500D03*
X176816000Y-123746500D03*
D41*
X161355000Y-100503000D03*
X161355000Y-103378000D03*
D30*
X108331000Y-101780000D03*
X108331000Y-103505000D03*
D42*
X186757000Y-109474000D03*
D43*
X188057000Y-109474000D03*
D44*
X189357000Y-109474000D03*
D59*
X85293200Y-102919600D03*
X85293200Y-99669600D03*
D20*
X77916000Y-113298500D03*
X77916000Y-108798500D03*
D21*
X80406000Y-114548500D03*
X80406000Y-107538500D03*
D12*
X90170000Y-105918000D03*
X90170000Y-107743000D03*
D36*
X174675800Y-93865900D03*
X174675800Y-92140900D03*
D13*
X138956000Y-93558500D03*
X140781000Y-93558500D03*
D60*
X111379000Y-111760000D03*
X106379000Y-108160000D03*
X101379000Y-111760000D03*
D37*
X86824750Y-123598500D03*
D38*
X89364750Y-123598500D03*
D61*
X94300000Y-85460000D03*
X95250000Y-85460000D03*
X96200000Y-85460000D03*
X96200000Y-83185000D03*
X95250000Y-83185000D03*
X94300000Y-83185000D03*
D62*
X211940000Y-111948500D03*
X211940000Y-86948500D03*
D31*
X210520000Y-104988500D03*
D32*
X210520000Y-102218500D03*
X210520000Y-99448500D03*
X210520000Y-96678500D03*
X210520000Y-93908500D03*
X213360000Y-103603500D03*
X213360000Y-100833500D03*
X213360000Y-98063500D03*
X213360000Y-95293500D03*
D63*
X181767499Y-101178500D03*
X186167499Y-101178500D03*
D13*
X138956000Y-90002500D03*
X140781000Y-90002500D03*
D64*
X181267499Y-92923500D03*
X186667499Y-92923500D03*
D41*
X144526000Y-99781500D03*
X144526000Y-102656500D03*
D62*
X178478000Y-83312000D03*
X153478000Y-83312000D03*
D31*
X161663000Y-85852000D03*
D32*
X163953000Y-85852000D03*
X166243000Y-85852000D03*
X168533000Y-85852000D03*
X170823000Y-85852000D03*
X160518000Y-83312000D03*
X162808000Y-83312000D03*
X165098000Y-83312000D03*
X167388000Y-83312000D03*
X169678000Y-83312000D03*
X161663000Y-80772000D03*
X163953000Y-80772000D03*
X166243000Y-80772000D03*
X168533000Y-80772000D03*
X170823000Y-80772000D03*
D40*
X167977500Y-93857185D03*
X166152500Y-93857185D03*
D12*
X167959000Y-113878500D03*
X167959000Y-115703500D03*
X164149000Y-113878500D03*
X164149000Y-115703500D03*
D29*
X93599000Y-112649000D03*
X93599000Y-110824000D03*
D35*
X203581000Y-104046000D03*
X203581000Y-98646000D03*
D29*
X129667000Y-112188000D03*
X129667000Y-110363000D03*
D53*
X166243000Y-98211500D03*
X167968000Y-98211500D03*
D29*
X119507000Y-112188000D03*
X119507000Y-110363000D03*
D19*
X199604750Y-90225500D03*
X196404750Y-90225500D03*
X194204750Y-90225500D03*
X192004750Y-90225500D03*
X192004750Y-96225500D03*
X194204750Y-96225500D03*
X196404750Y-96225500D03*
X199604750Y-96225500D03*
D36*
X99822000Y-103579000D03*
X99822000Y-101854000D03*
D41*
X147574000Y-99781500D03*
X147574000Y-102656500D03*
D18*
X197487000Y-123571000D03*
X200787000Y-123571000D03*
D65*
X166116000Y-100457000D03*
X168191000Y-100457000D03*
D29*
X131699000Y-112188000D03*
X131699000Y-110363000D03*
D66*
X110617000Y-81788000D03*
X107742000Y-81788000D03*
D67*
X205036000Y-81793000D03*
X202336000Y-80593000D03*
D68*
X199836000Y-73793000D03*
D69*
X195236000Y-77693000D03*
D68*
X195736000Y-84993000D03*
D55*
X90521000Y-112649000D03*
X90521000Y-110749000D03*
X88646000Y-111699000D03*
D36*
X171896000Y-104772000D03*
X171896000Y-103047000D03*
D70*
X106106000Y-98298000D03*
X104206000Y-98298000D03*
D71*
X82996000Y-88656000D03*
X82996000Y-83556000D03*
D72*
X97536000Y-102616000D03*
X97536000Y-101981000D03*
X97536000Y-101346000D03*
X97536000Y-100711000D03*
X97536000Y-100076000D03*
X97536000Y-99441000D03*
X97536000Y-98806000D03*
X97536000Y-98171000D03*
X97536000Y-97536000D03*
X97536000Y-96901000D03*
X92336000Y-96901000D03*
X92336000Y-97536000D03*
X92336000Y-98171000D03*
X92336000Y-98806000D03*
X92336000Y-99441000D03*
X92336000Y-100076000D03*
X92336000Y-100711000D03*
X92336000Y-101346000D03*
X92336000Y-101981000D03*
X92336000Y-102616000D03*
D30*
X84266000Y-112608500D03*
X84266000Y-114333500D03*
D52*
X198645500Y-118983500D03*
X198645500Y-120883500D03*
X200520500Y-119933500D03*
D29*
X93599000Y-117475000D03*
X93599000Y-115650000D03*
D13*
X138956000Y-91780500D03*
X140781000Y-91780500D03*
X98171000Y-89154000D03*
X99996000Y-89154000D03*
D29*
X135701000Y-98558500D03*
X135701000Y-96733500D03*
D12*
X161609000Y-113878500D03*
X161609000Y-115703500D03*
D29*
X133731000Y-112188000D03*
X133731000Y-110363000D03*
X123571000Y-112188000D03*
X123571000Y-110363000D03*
D40*
X140781000Y-82763500D03*
X138956000Y-82763500D03*
D73*
X89795000Y-83185000D03*
X86995000Y-83185000D03*
D13*
X138956000Y-86446500D03*
X140781000Y-86446500D03*
D12*
X84963000Y-117047000D03*
X84963000Y-118872000D03*
D13*
X166243000Y-102616000D03*
X168068000Y-102616000D03*
D66*
X102108000Y-85852000D03*
X99233000Y-85852000D03*
D36*
X102042000Y-98298000D03*
X102042000Y-96573000D03*
D54*
X193102000Y-103075500D03*
X191202000Y-103075500D03*
X192152000Y-104950500D03*
D13*
X99849000Y-115443000D03*
X101674000Y-115443000D03*
D18*
X195328000Y-104775000D03*
X198628000Y-104775000D03*
D29*
X125603000Y-112188000D03*
X125603000Y-110363000D03*
D18*
X109984000Y-116586000D03*
X113284000Y-116586000D03*
D52*
X181102000Y-118958500D03*
X181102000Y-120858500D03*
X182977000Y-119908500D03*
D74*
X176814157Y-127048500D03*
D75*
X146496000Y-127098500D03*
X121889167Y-127098500D03*
D74*
X176816000Y-125222000D03*
X95123000Y-81915000D03*
X190820000Y-105029000D03*
X87884000Y-107696000D03*
X89789000Y-81915000D03*
X181432200Y-103225600D03*
X86360000Y-107696000D03*
X92202000Y-108966000D03*
X77916000Y-85445600D03*
X196597000Y-121285000D03*
X159196000Y-101178500D03*
X194438000Y-102616000D03*
X82996000Y-85394800D03*
X88773000Y-117094000D03*
X94869000Y-86741000D03*
X179102000Y-121285000D03*
D75*
X186667499Y-102616000D03*
D74*
X106091000Y-80137000D03*
X108331000Y-104574000D03*
X91059000Y-86487000D03*
X85725000Y-85725000D03*
X96361900Y-99047300D03*
X169862500Y-104244000D03*
X87350600Y-99822000D03*
X103820000Y-102108000D03*
X132526000Y-80839500D03*
X99233000Y-84501000D03*
X116656000Y-99268500D03*
X83693000Y-94818200D03*
X93504400Y-100482400D03*
X163006000Y-102448500D03*
X135066000Y-99908500D03*
X130683000Y-111252000D03*
X159196000Y-125308500D03*
X96012000Y-93044000D03*
X88646000Y-110744000D03*
X133796000Y-93558500D03*
X193102000Y-101723000D03*
X153111200Y-111338500D03*
X135066000Y-93558500D03*
X191135000Y-96266000D03*
X206375000Y-108077000D03*
X196402137Y-98171000D03*
X205105000Y-112268000D03*
X184404000Y-105664000D03*
X205105000Y-108096000D03*
X185293000Y-105664000D03*
X179197000Y-107334000D03*
X187960000Y-112141000D03*
X150306000Y-108798500D03*
X161736000Y-107528500D03*
X188087000Y-107950000D03*
X161736000Y-106258500D03*
X154116000Y-107528500D03*
X184023000Y-106826000D03*
X133796000Y-96098500D03*
X95631000Y-115316000D03*
X138176000Y-97663000D03*
X142875000Y-95758000D03*
X133985000Y-99949000D03*
X136336000Y-107528500D03*
X129667000Y-107823000D03*
X120396000Y-107823000D03*
X93453600Y-102616000D03*
X133096000Y-84668500D03*
X112268000Y-85217000D03*
X93980000Y-93044000D03*
D75*
X84074000Y-106426000D03*
D74*
X112352000Y-95377000D03*
X101092000Y-91948000D03*
X161736000Y-108796210D03*
X159196000Y-108796210D03*
X159196000Y-110049500D03*
X161736000Y-110068500D03*
X119761000Y-107188000D03*
X123317000Y-107207000D03*
X132526000Y-83398500D03*
X98686000Y-100711000D03*
X196088000Y-109347000D03*
X202438000Y-109474000D03*
X195892000Y-115268500D03*
X202565000Y-113665000D03*
X178816000Y-109347000D03*
X185420000Y-109474000D03*
X178816000Y-115316000D03*
X185420000Y-113665000D03*
D11*
X175844200Y-95392100D02*
X176555400Y-95392100D01*
X176728499Y-100330000D02*
X174436000Y-100330000D01*
X174436000Y-102997000D02*
X174436000Y-100330000D01*
X174436000Y-100330000D02*
X174436000Y-96800300D01*
X177941100Y-93965900D02*
X177088800Y-93965900D01*
X174436000Y-96800300D02*
X175844200Y-95392100D01*
X176555400Y-95392100D02*
X177088800Y-94858700D01*
X181267499Y-92923500D02*
X178983500Y-92923500D01*
X177088800Y-94858700D02*
X177088800Y-93965900D01*
X178983500Y-92923500D02*
X177941100Y-93965900D01*
X86360000Y-119888000D02*
X87122000Y-120650000D01*
X89027000Y-84328000D02*
X94996000Y-84328000D01*
X89662000Y-120650000D02*
X90932000Y-121920000D01*
X90932000Y-121920000D02*
X90932000Y-124735500D01*
D10*
X84963000Y-117047000D02*
X86313000Y-117047000D01*
D11*
X181427499Y-102595301D02*
X181427499Y-99822000D01*
X77037500Y-97079500D02*
X77037500Y-94817800D01*
X77901800Y-91617800D02*
X77901800Y-89966800D01*
X81219200Y-88656000D02*
X88001000Y-88656000D01*
X86360000Y-117094000D02*
X86360000Y-107696000D01*
X191877000Y-127147000D02*
X194311000Y-124713000D01*
X95250000Y-82042000D02*
X95123000Y-81915000D01*
X176816000Y-125222000D02*
X176816000Y-123746500D01*
X181432200Y-103225600D02*
X181432200Y-102600002D01*
D10*
X86313000Y-117047000D02*
X86360000Y-117094000D01*
D11*
X190820000Y-105029000D02*
X192073500Y-105029000D01*
X95250000Y-84074000D02*
X95250000Y-83185000D01*
X194311000Y-124713000D02*
X194311000Y-123746500D01*
X181427499Y-99822000D02*
X180665499Y-99060000D01*
X93323500Y-127127000D02*
X93592795Y-127127000D01*
X88392000Y-88265000D02*
X88392000Y-84963000D01*
X79908400Y-89966800D02*
X81219200Y-88656000D01*
X95250000Y-83185000D02*
X95250000Y-82042000D01*
X88001000Y-88656000D02*
X88392000Y-88265000D01*
X179903499Y-99060000D02*
X176728499Y-99060000D01*
X83845400Y-105181400D02*
X77444600Y-105181400D01*
X77037500Y-94817800D02*
X77037500Y-92482100D01*
X89789000Y-83179000D02*
X89795000Y-83185000D01*
X93592795Y-127127000D02*
X93612796Y-127147000D01*
X90932000Y-124735500D02*
X93323500Y-127127000D01*
X180665499Y-99060000D02*
X179903499Y-99060000D01*
X192073500Y-105029000D02*
X192152000Y-104950500D01*
X88392000Y-84963000D02*
X89027000Y-84328000D01*
X77901800Y-89966800D02*
X79908400Y-89966800D01*
X76606400Y-104343200D02*
X76606400Y-97510600D01*
X89789000Y-81915000D02*
X89789000Y-83179000D01*
X87122000Y-120650000D02*
X89662000Y-120650000D01*
X86360000Y-117094000D02*
X86360000Y-119888000D01*
X181432200Y-102600002D02*
X181427499Y-102595301D01*
X93612796Y-127147000D02*
X191877000Y-127147000D01*
X86360000Y-107696000D02*
X83845400Y-105181400D01*
X76606400Y-97510600D02*
X77037500Y-97079500D01*
X77037500Y-92482100D02*
X77901800Y-91617800D01*
X77444600Y-105181400D02*
X76606400Y-104343200D01*
X94996000Y-84328000D02*
X95250000Y-84074000D01*
X83692600Y-94817800D02*
X81637500Y-94817800D01*
X158815000Y-100797500D02*
X157226000Y-100797500D01*
X171896000Y-103047000D02*
X171896000Y-100447501D01*
D10*
X148955000Y-102656500D02*
X147574000Y-102656500D01*
D11*
X164973000Y-98679000D02*
X165440500Y-98211500D01*
X173166000Y-103505000D02*
X172708000Y-103047000D01*
X159196000Y-101178500D02*
X158815000Y-100797500D01*
D10*
X108331000Y-103505000D02*
X108331000Y-104574000D01*
D11*
X172708000Y-103047000D02*
X171896000Y-103047000D01*
X186667499Y-102616000D02*
X186667499Y-101178500D01*
D10*
X154878000Y-102575500D02*
X154878000Y-101432500D01*
X153481000Y-103972500D02*
X154878000Y-102575500D01*
D11*
X194438000Y-103124000D02*
X195328000Y-104014000D01*
X113616000Y-80096500D02*
X109433500Y-80096500D01*
X90043000Y-86487000D02*
X91059000Y-86487000D01*
X194438000Y-101473000D02*
X193953500Y-100988500D01*
X164973000Y-102108000D02*
X164973000Y-98679000D01*
D10*
X101674000Y-117475000D02*
X101674000Y-119200000D01*
D11*
X95250000Y-85460000D02*
X95250000Y-86360000D01*
X99233000Y-85852000D02*
X99233000Y-84501000D01*
X166143000Y-98111500D02*
X166243000Y-98211500D01*
X197487000Y-122810000D02*
X197487000Y-123571000D01*
X99187000Y-84455000D02*
X99233000Y-84501000D01*
X179102000Y-120396000D02*
X178594000Y-119888000D01*
D10*
X131870000Y-80183500D02*
X131116000Y-80183500D01*
D11*
X165440500Y-98211500D02*
X166243000Y-98211500D01*
D10*
X105156000Y-122682000D02*
X105176000Y-122682000D01*
X132526000Y-80839500D02*
X131870000Y-80183500D01*
D11*
X77916000Y-83556000D02*
X77916000Y-85445600D01*
D10*
X96755600Y-99441000D02*
X97536000Y-99441000D01*
D11*
X193953500Y-100988500D02*
X193953500Y-100203000D01*
D10*
X101674000Y-119200000D02*
X105156000Y-122682000D01*
D11*
X195328000Y-104014000D02*
X195328000Y-104775000D01*
X87198200Y-99669600D02*
X85293200Y-99669600D01*
X166143000Y-96052500D02*
X166143000Y-98111500D01*
D10*
X93098000Y-100076000D02*
X93504400Y-100482400D01*
D11*
X169862500Y-104244000D02*
X167109000Y-104244000D01*
X178594000Y-119888000D02*
X178617500Y-119864500D01*
X198630000Y-118999000D02*
X198645500Y-118983500D01*
X87528400Y-99999800D02*
X88823800Y-99999800D01*
X92202000Y-107743000D02*
X92202000Y-108966000D01*
X176338000Y-104772000D02*
X175452000Y-103886000D01*
X194438000Y-102616000D02*
X194438000Y-101473000D01*
X179102000Y-121285000D02*
X179102000Y-120396000D01*
X176976000Y-104772000D02*
X176338000Y-104772000D01*
D10*
X80934700Y-112481500D02*
X82786700Y-114333500D01*
X150560000Y-103972500D02*
X153481000Y-103972500D01*
X77916000Y-113298500D02*
X78733000Y-112481500D01*
D11*
X165481000Y-102616000D02*
X164973000Y-102108000D01*
X171778499Y-99060000D02*
X171778499Y-100330000D01*
D10*
X149163000Y-105369500D02*
X150560000Y-103972500D01*
D11*
X178617500Y-119864500D02*
X178617500Y-118999000D01*
X161355000Y-103378000D02*
X160252500Y-103378000D01*
D10*
X99822000Y-100965000D02*
X99822000Y-101854000D01*
X116651000Y-99273500D02*
X116656000Y-99268500D01*
D11*
X196597000Y-120523000D02*
X196112500Y-120038500D01*
D10*
X154878000Y-101432500D02*
X155513000Y-100797500D01*
D11*
X179992000Y-122746500D02*
X179992000Y-123571000D01*
X166243000Y-102616000D02*
X165481000Y-102616000D01*
X178658000Y-118958500D02*
X178617500Y-118999000D01*
X101049050Y-80137000D02*
X99398050Y-81788000D01*
X87350600Y-99822000D02*
X87528400Y-99999800D01*
X197486000Y-118999000D02*
X198630000Y-118999000D01*
X169862500Y-104244000D02*
X169849800Y-104256700D01*
X83693000Y-94818200D02*
X85344000Y-94818200D01*
D10*
X155513000Y-100797500D02*
X157226000Y-100797500D01*
D11*
X175452000Y-103886000D02*
X173547000Y-103886000D01*
X196438000Y-100183000D02*
X193973500Y-100183000D01*
X91059000Y-86487000D02*
X92075000Y-86487000D01*
X171896000Y-100447501D02*
X171778499Y-100330000D01*
D10*
X78733000Y-112481500D02*
X80934700Y-112481500D01*
D11*
X159196000Y-102321500D02*
X159196000Y-101178500D01*
X109433500Y-80096500D02*
X107742000Y-81788000D01*
D10*
X147574000Y-105369500D02*
X149163000Y-105369500D01*
X88773000Y-117094000D02*
X88773000Y-118417000D01*
D11*
X166243000Y-103378000D02*
X166243000Y-102616000D01*
D10*
X96361900Y-99047300D02*
X96755600Y-99441000D01*
X98298000Y-99441000D02*
X99822000Y-100965000D01*
D11*
X95250000Y-86360000D02*
X94869000Y-86741000D01*
X196597000Y-121920000D02*
X197487000Y-122810000D01*
X87350600Y-99822000D02*
X87198200Y-99669600D01*
X83693000Y-94818200D02*
X83692600Y-94817800D01*
X167109000Y-104244000D02*
X166243000Y-103378000D01*
D10*
X193807000Y-100183000D02*
X193741000Y-100117000D01*
D11*
X196597000Y-121285000D02*
X196597000Y-121920000D01*
X181102000Y-118958500D02*
X178658000Y-118958500D01*
X171059500Y-103047000D02*
X171896000Y-103047000D01*
X179102000Y-121856500D02*
X179992000Y-122746500D01*
X160252500Y-103378000D02*
X159196000Y-102321500D01*
X85796400Y-85796400D02*
X87045800Y-85796400D01*
D10*
X82786700Y-114333500D02*
X84266000Y-114333500D01*
D11*
X85725000Y-85725000D02*
X85796400Y-85796400D01*
X196112500Y-120038500D02*
X196112500Y-118999000D01*
X196597000Y-121285000D02*
X196597000Y-120523000D01*
D10*
X97536000Y-99441000D02*
X98298000Y-99441000D01*
X88773000Y-118417000D02*
X88699000Y-118491000D01*
X150179000Y-101432500D02*
X148955000Y-102656500D01*
X154878000Y-101432500D02*
X150179000Y-101432500D01*
D11*
X193973500Y-100183000D02*
X193953500Y-100203000D01*
D10*
X116656000Y-97943500D02*
X116656000Y-99268500D01*
D11*
X179102000Y-121285000D02*
X179102000Y-121856500D01*
X82996000Y-83556000D02*
X82996000Y-85394800D01*
X106091000Y-80137000D02*
X107742000Y-81788000D01*
X169862500Y-104244000D02*
X171059500Y-103047000D01*
X173547000Y-103886000D02*
X173166000Y-103505000D01*
X194438000Y-102616000D02*
X194438000Y-103124000D01*
X196112500Y-118999000D02*
X197486000Y-118999000D01*
D10*
X92336000Y-100076000D02*
X93098000Y-100076000D01*
X172026000Y-102917000D02*
X171896000Y-103047000D01*
D11*
X106091000Y-80137000D02*
X101049050Y-80137000D01*
D10*
X167977500Y-93857185D02*
X167994500Y-93874185D01*
X167994500Y-93874185D02*
X167994500Y-96026000D01*
X167968000Y-98211500D02*
X167968000Y-98986000D01*
X167968000Y-98986000D02*
X167767000Y-99187000D01*
X166497000Y-99187000D02*
X166116000Y-99568000D01*
X167968000Y-95927685D02*
X167994500Y-95954185D01*
X167767000Y-99187000D02*
X166497000Y-99187000D01*
X167968000Y-95676685D02*
X167968000Y-95927685D01*
X167968000Y-96052500D02*
X167968000Y-98211500D01*
X166116000Y-99568000D02*
X166116000Y-100457000D01*
X174436000Y-104822000D02*
X171946000Y-104822000D01*
X171946000Y-104822000D02*
X171896000Y-104772000D01*
X174675800Y-92140900D02*
X177215800Y-92140900D01*
X171778499Y-96520000D02*
X173751100Y-96520000D01*
X174675800Y-95595300D02*
X174675800Y-93865900D01*
X173751100Y-96520000D02*
X174675800Y-95595300D01*
X176976000Y-102235000D02*
X178054000Y-101157000D01*
X178054000Y-101157000D02*
X178054000Y-100065700D01*
X175404499Y-99387000D02*
X175404499Y-98139001D01*
X177683300Y-99695000D02*
X175712499Y-99695000D01*
X175753500Y-97790000D02*
X176728499Y-97790000D01*
X177977800Y-99989500D02*
X177683300Y-99695000D01*
X178054000Y-100065700D02*
X177977800Y-99989500D01*
X175404499Y-98139001D02*
X175753500Y-97790000D01*
X176976000Y-103047000D02*
X176976000Y-102235000D01*
X175712499Y-99695000D02*
X175404499Y-99387000D01*
X144526000Y-99781500D02*
X145480000Y-99781500D01*
X145480000Y-99781500D02*
X146750000Y-98511500D01*
X146750000Y-98511500D02*
X149163000Y-98511500D01*
X150179000Y-99527500D02*
X152276000Y-99527500D01*
X149163000Y-98511500D02*
X150179000Y-99527500D01*
X145561000Y-102656500D02*
X146750000Y-103845500D01*
X146750000Y-103845500D02*
X148909000Y-103845500D01*
X150687000Y-102067500D02*
X152276000Y-102067500D01*
X148909000Y-103845500D02*
X150687000Y-102067500D01*
X144526000Y-102656500D02*
X145561000Y-102656500D01*
X150941000Y-104607500D02*
X152276000Y-104607500D01*
X145653000Y-108244500D02*
X147131000Y-106766500D01*
X144526000Y-108244500D02*
X145653000Y-108244500D01*
X148782000Y-106766500D02*
X150941000Y-104607500D01*
X147131000Y-106766500D02*
X148782000Y-106766500D01*
X146677000Y-104172500D02*
X149598000Y-104172500D01*
X149598000Y-104172500D02*
X150433000Y-103337500D01*
X144526000Y-105369500D02*
X145480000Y-105369500D01*
X150433000Y-103337500D02*
X152276000Y-103337500D01*
X145480000Y-105369500D02*
X146677000Y-104172500D01*
X150941000Y-105877500D02*
X152276000Y-105877500D01*
X148574000Y-108244500D02*
X150941000Y-105877500D01*
X147574000Y-108244500D02*
X148574000Y-108244500D01*
X149163000Y-99781500D02*
X150179000Y-100797500D01*
X147574000Y-99781500D02*
X149163000Y-99781500D01*
X150179000Y-100797500D02*
X152276000Y-100797500D01*
D11*
X91440000Y-92456000D02*
X91440000Y-90932000D01*
X113616000Y-81453500D02*
X112348500Y-81453500D01*
X91567000Y-121666000D02*
X91567000Y-124354500D01*
X87122000Y-119507000D02*
X87566500Y-119951500D01*
X112348500Y-81453500D02*
X112014000Y-81788000D01*
X79803000Y-93069400D02*
X81915000Y-93069400D01*
D10*
X118682000Y-110426000D02*
X116840000Y-112268000D01*
D11*
X92310600Y-99415600D02*
X92336000Y-99441000D01*
X161355000Y-100503000D02*
X160171500Y-100503000D01*
X98171000Y-88138000D02*
X97409000Y-87376000D01*
D10*
X128270000Y-110363000D02*
X127000000Y-110363000D01*
D11*
X108458000Y-121793000D02*
X104394000Y-117729000D01*
X163006000Y-102448500D02*
X163006000Y-100797500D01*
D10*
X116840000Y-112268000D02*
X116840000Y-126448000D01*
X124258750Y-110363000D02*
X122821250Y-110363000D01*
D11*
X96012000Y-90123000D02*
X98124000Y-90123000D01*
X87122000Y-106908600D02*
X87122000Y-119507000D01*
X97409000Y-87376000D02*
X97409000Y-84455000D01*
X159196000Y-99527500D02*
X157226000Y-99527500D01*
X82017000Y-101117800D02*
X83769200Y-102870000D01*
X89852500Y-119951500D02*
X91567000Y-121666000D01*
X85346200Y-93091000D02*
X90805000Y-93091000D01*
D10*
X129142502Y-111235502D02*
X128270000Y-110363000D01*
D11*
X91440000Y-90932000D02*
X92249000Y-90123000D01*
X85344000Y-93093200D02*
X85346200Y-93091000D01*
X81915000Y-93069400D02*
X85369400Y-93069400D01*
X98171000Y-90076000D02*
X98171000Y-89154000D01*
D10*
X120332000Y-110426000D02*
X118682000Y-110426000D01*
D11*
X163006000Y-100797500D02*
X162711500Y-100503000D01*
X91567000Y-124354500D02*
X93660500Y-126448000D01*
D10*
X127000000Y-110363000D02*
X126111000Y-111252000D01*
X130683000Y-111252000D02*
X130666502Y-111235502D01*
D11*
X90805000Y-93091000D02*
X91440000Y-92456000D01*
D10*
X135066000Y-99908500D02*
X135701000Y-99273500D01*
D11*
X112014000Y-81788000D02*
X110617000Y-81788000D01*
X158056500Y-126448000D02*
X159196000Y-125308500D01*
D10*
X131445000Y-111252000D02*
X131699000Y-110998000D01*
D11*
X108458000Y-126448000D02*
X108458000Y-121793000D01*
X161355000Y-100503000D02*
X161355000Y-100416500D01*
X94003500Y-90123000D02*
X96012000Y-90123000D01*
X98214250Y-83649750D02*
X102636300Y-83649750D01*
D10*
X130683000Y-111252000D02*
X131445000Y-111252000D01*
X130666502Y-111235502D02*
X129142502Y-111235502D01*
D11*
X102636300Y-83649750D02*
X104498050Y-81788000D01*
X87566500Y-119951500D02*
X89852500Y-119951500D01*
D10*
X130683000Y-111252000D02*
X130810000Y-111379000D01*
D11*
X162711500Y-100503000D02*
X161355000Y-100503000D01*
X98124000Y-90123000D02*
X98171000Y-90076000D01*
D10*
X125147750Y-111252000D02*
X124258750Y-110363000D01*
D11*
X83769200Y-102870000D02*
X90474800Y-102870000D01*
D10*
X131699000Y-110998000D02*
X131699000Y-110426000D01*
X135701000Y-99273500D02*
X135701000Y-98558500D01*
X122821250Y-110363000D02*
X121845750Y-111338500D01*
X126111000Y-111252000D02*
X125147750Y-111252000D01*
X121244500Y-111338500D02*
X120332000Y-110426000D01*
D11*
X92249000Y-90123000D02*
X94003500Y-90123000D01*
X90474800Y-100355400D02*
X91414600Y-99415600D01*
X160171500Y-100503000D02*
X159196000Y-99527500D01*
X104394000Y-117729000D02*
X104394000Y-116586000D01*
X98124000Y-90123000D02*
X98171000Y-90170000D01*
X105768050Y-83058000D02*
X109347000Y-83058000D01*
X79337500Y-101117800D02*
X82017000Y-101117800D01*
X104498050Y-81788000D02*
X105768050Y-83058000D01*
X98171000Y-90170000D02*
X98171000Y-91948000D01*
X90474800Y-103555800D02*
X87122000Y-106908600D01*
X79337500Y-93534900D02*
X79803000Y-93069400D01*
X91396200Y-99441000D02*
X92336000Y-99441000D01*
X91414600Y-99415600D02*
X92310600Y-99415600D01*
X98171000Y-89154000D02*
X98171000Y-88138000D01*
X90474800Y-102870000D02*
X90474800Y-103555800D01*
X93660500Y-126448000D02*
X158056500Y-126448000D01*
D10*
X121845750Y-111338500D02*
X121244500Y-111338500D01*
D11*
X79337500Y-101117800D02*
X79337500Y-93534900D01*
X97409000Y-84455000D02*
X98214250Y-83649750D01*
X90474800Y-102870000D02*
X90474800Y-100355400D01*
X109347000Y-83058000D02*
X110617000Y-81788000D01*
D10*
X100711000Y-116078000D02*
X99949000Y-116840000D01*
X101674000Y-115443000D02*
X100965000Y-115443000D01*
X100965000Y-115443000D02*
X100711000Y-115697000D01*
X103251000Y-123444000D02*
X104979000Y-125172000D01*
X99949000Y-118237000D02*
X103251000Y-121539000D01*
X99949000Y-116840000D02*
X99949000Y-117475000D01*
X99949000Y-117475000D02*
X99949000Y-118237000D01*
X103251000Y-121539000D02*
X103251000Y-123444000D01*
X104979000Y-125172000D02*
X106436000Y-125172000D01*
X100711000Y-115697000D02*
X100711000Y-116078000D01*
X93676000Y-125172000D02*
X95006000Y-125172000D01*
X92075000Y-123571000D02*
X93676000Y-125172000D01*
X92075000Y-120142000D02*
X92075000Y-123571000D01*
X90471000Y-115570000D02*
X90471000Y-118444000D01*
X90424000Y-118491000D02*
X92075000Y-120142000D01*
X90471000Y-118444000D02*
X90424000Y-118491000D01*
X111250750Y-84074000D02*
X106172000Y-84074000D01*
X98345000Y-93044000D02*
X96012000Y-93044000D01*
X112601250Y-82723500D02*
X111250750Y-84074000D01*
X98933000Y-87967270D02*
X98933000Y-92456000D01*
X88646000Y-111760000D02*
X88646000Y-115570000D01*
X104394000Y-85852000D02*
X102108000Y-85852000D01*
X98933000Y-92456000D02*
X98345000Y-93044000D01*
X102108000Y-85852000D02*
X101048270Y-85852000D01*
X101048270Y-85852000D02*
X98933000Y-87967270D01*
X106172000Y-84074000D02*
X104394000Y-85852000D01*
X113616000Y-82723500D02*
X112601250Y-82723500D01*
X96012000Y-91948000D02*
X96012000Y-93044000D01*
X92767000Y-82169000D02*
X93236789Y-82169000D01*
X89776000Y-79588500D02*
X89776000Y-79324500D01*
X91313000Y-82169000D02*
X91567000Y-82169000D01*
X92647000Y-82169000D02*
X92767000Y-82169000D01*
X92407000Y-81777238D02*
X92407000Y-81929000D01*
X94300000Y-82362000D02*
X94300000Y-83185000D01*
X92047000Y-81537238D02*
X92167000Y-81537238D01*
X89776000Y-79324500D02*
X90626000Y-78474500D01*
X90626000Y-78474500D02*
X90626000Y-78238500D01*
X89776000Y-80632000D02*
X91313000Y-82169000D01*
X89776000Y-79588500D02*
X89776000Y-80632000D01*
X91807000Y-81929000D02*
X91807000Y-81777238D01*
X93236789Y-82169000D02*
X94107000Y-82169000D01*
X94107000Y-82169000D02*
X94300000Y-82362000D01*
X92167000Y-81537238D02*
G75*
G02*
X92406962Y-81777238I0J-239962D01*
G01*
X91567000Y-82169000D02*
G75*
G03*
X91807000Y-81929000I0J240000D01*
G01*
X91807000Y-81777238D02*
G75*
G02*
X92047000Y-81537200I240000J38D01*
G01*
X92407000Y-81929000D02*
G75*
G03*
X92647000Y-82169000I240000J0D01*
G01*
D11*
X201042500Y-109268500D02*
X200471000Y-109268500D01*
X201676000Y-116459000D02*
X201676000Y-109902000D01*
X201676000Y-109902000D02*
X201042500Y-109268500D01*
X202913000Y-117696000D02*
X201676000Y-116459000D01*
X205740000Y-117696000D02*
X202913000Y-117696000D01*
X183796000Y-109268500D02*
X184723000Y-110195500D01*
X184723000Y-115212000D02*
X187207000Y-117696000D01*
X184723000Y-110195500D02*
X184723000Y-115212000D01*
X187207000Y-117696000D02*
X188279000Y-117696000D01*
X183250500Y-109268500D02*
X183796000Y-109268500D01*
X202405000Y-98646000D02*
X203526500Y-98646000D01*
X201233000Y-91272500D02*
X201233000Y-97474000D01*
X201233000Y-97474000D02*
X202405000Y-98646000D01*
X200186000Y-90225500D02*
X201233000Y-91272500D01*
X199604750Y-90225500D02*
X200186000Y-90225500D01*
X92326000Y-77795250D02*
X92326000Y-78238500D01*
X88076000Y-78238500D02*
X88076000Y-77810500D01*
X92326000Y-79588500D02*
X92326000Y-78238500D01*
X88076000Y-78238500D02*
X88076000Y-81026000D01*
X86995000Y-83185000D02*
X86995000Y-82107000D01*
X91960250Y-77429500D02*
X92326000Y-77795250D01*
X88457000Y-77429500D02*
X91960250Y-77429500D01*
X88076000Y-77810500D02*
X88457000Y-77429500D01*
X86995000Y-82107000D02*
X88076000Y-81026000D01*
D10*
X86824750Y-121495750D02*
X86824750Y-123598500D01*
X86824750Y-123598500D02*
X86824750Y-123471500D01*
X86824750Y-123471500D02*
X86806000Y-123452750D01*
X84963000Y-119634000D02*
X86824750Y-121495750D01*
X84963000Y-118872000D02*
X84963000Y-119634000D01*
X161620200Y-125933200D02*
X190677800Y-125933200D01*
X158561000Y-120228500D02*
X158561000Y-122874000D01*
X113616000Y-96693500D02*
X113616000Y-98270500D01*
X134212000Y-108452500D02*
X136844000Y-111084500D01*
X155498800Y-114503200D02*
X155498800Y-117166300D01*
X155498800Y-117166300D02*
X158561000Y-120228500D01*
X123798000Y-108452500D02*
X134212000Y-108452500D01*
X152080100Y-111084500D02*
X155498800Y-114503200D01*
X113616000Y-98270500D02*
X123798000Y-108452500D01*
X190677800Y-125933200D02*
X194739500Y-121871500D01*
X158561000Y-122874000D02*
X161620200Y-125933200D01*
X136844000Y-111084500D02*
X152080100Y-111084500D01*
X194739500Y-121871500D02*
X195261000Y-121871500D01*
D11*
X198645500Y-121555500D02*
X199137000Y-122047000D01*
X201742000Y-120228500D02*
X201742000Y-117816500D01*
X198645500Y-120883500D02*
X201087000Y-120883500D01*
X199137000Y-122047000D02*
X200280000Y-122047000D01*
X201087000Y-120883500D02*
X201742000Y-120228500D01*
X201742000Y-117816500D02*
X200471000Y-116545500D01*
X198645500Y-120883500D02*
X198645500Y-121555500D01*
X200471000Y-116545500D02*
X200471000Y-115268500D01*
X200787000Y-122554000D02*
X200787000Y-123571000D01*
X200280000Y-122047000D02*
X200787000Y-122554000D01*
D10*
X133201000Y-94153500D02*
X131116000Y-94153500D01*
X193102000Y-101723000D02*
X193102000Y-103075500D01*
X133796000Y-93558500D02*
X133201000Y-94153500D01*
X193103389Y-103074111D02*
X193102000Y-103075500D01*
D11*
X199604750Y-101410750D02*
X199604750Y-96225500D01*
X196438000Y-102711000D02*
X196978000Y-103251000D01*
X198121000Y-103251000D02*
X198628000Y-103758000D01*
X196978000Y-103251000D02*
X198121000Y-103251000D01*
X196438000Y-102083000D02*
X198932500Y-102083000D01*
X198628000Y-103758000D02*
X198628000Y-104775000D01*
X198932500Y-102083000D02*
X199604750Y-101410750D01*
X196438000Y-102083000D02*
X196438000Y-102711000D01*
D10*
X176435000Y-122693864D02*
X176435000Y-122682000D01*
X158889000Y-122694000D02*
X161798000Y-125603000D01*
X135066000Y-93558500D02*
X134391000Y-92883500D01*
X153111200Y-111338500D02*
X155825800Y-114053100D01*
X134391000Y-92883500D02*
X131116000Y-92883500D01*
X158889000Y-120092638D02*
X158889000Y-122694000D01*
X177245500Y-121871500D02*
X177766000Y-121871500D01*
X173525864Y-125603000D02*
X176435000Y-122693864D01*
X155826800Y-117030438D02*
X158889000Y-120092638D01*
X155825800Y-114366338D02*
X155826800Y-114367338D01*
X176435000Y-122682000D02*
X177245500Y-121871500D01*
X155825800Y-114053100D02*
X155825800Y-114366338D01*
X161798000Y-125603000D02*
X173525864Y-125603000D01*
X155826800Y-114367338D02*
X155826800Y-117030438D01*
D11*
X182785000Y-122047000D02*
X183292000Y-122554000D01*
X183444650Y-120858500D02*
X181102000Y-120858500D01*
X181102000Y-120858500D02*
X181102000Y-121634000D01*
X183292000Y-122554000D02*
X183292000Y-123571000D01*
X183515000Y-116967000D02*
X184182000Y-117634000D01*
X184182000Y-120121150D02*
X183444650Y-120858500D01*
D10*
X183326000Y-115395500D02*
X183274500Y-115344000D01*
D11*
X183250500Y-116702500D02*
X183515000Y-116967000D01*
X184182000Y-117634000D02*
X184182000Y-120121150D01*
X183250500Y-115268500D02*
X183250500Y-116702500D01*
X181515000Y-122047000D02*
X182785000Y-122047000D01*
X181102000Y-121634000D02*
X181515000Y-122047000D01*
D10*
X147302002Y-85557500D02*
X147302002Y-86299115D01*
X141902002Y-85317500D02*
X141902002Y-84815885D01*
X152935155Y-87147155D02*
X152935155Y-86645546D01*
X140781000Y-84668500D02*
X140781000Y-86446500D01*
X142502002Y-85317500D02*
X142502002Y-85557500D01*
X154135155Y-87387155D02*
X154135155Y-86645546D01*
X145502002Y-86299115D02*
X145502002Y-85557500D01*
X145742002Y-84575860D02*
X145862002Y-84575860D01*
X147902002Y-86299115D02*
X147902002Y-85557500D01*
X152045155Y-87387155D02*
X152695155Y-87387155D01*
X143702002Y-85557500D02*
X143702002Y-86299115D01*
X147542002Y-86539115D02*
X147662002Y-86539115D01*
X153535155Y-86645546D02*
X153535155Y-87147155D01*
X151058637Y-85662424D02*
X151143489Y-85747276D01*
X153775155Y-88368770D02*
X153895155Y-88368770D01*
X155935155Y-86645546D02*
X155935155Y-87387155D01*
X159912083Y-86467915D02*
X159956500Y-86423500D01*
X146342002Y-86539115D02*
X146462002Y-86539115D01*
X151143489Y-86086688D02*
X150788792Y-86441382D01*
X148142002Y-84575860D02*
X148262002Y-84575860D01*
X155935155Y-87627155D02*
X155935155Y-88128770D01*
X151297908Y-87289908D02*
X151395155Y-87387155D01*
X150094668Y-87474916D02*
X150179520Y-87559768D01*
X146942002Y-84575860D02*
X147062002Y-84575860D01*
X154735155Y-86645546D02*
X154735155Y-87387155D01*
X143702002Y-84815885D02*
X143702002Y-85557500D01*
X142502002Y-85557500D02*
X142502002Y-86299115D01*
X154975155Y-88368770D02*
X155095155Y-88368770D01*
X143342002Y-84575885D02*
X143462002Y-84575885D01*
X142742002Y-86539115D02*
X142862002Y-86539115D01*
X147302002Y-84815860D02*
X147302002Y-85557500D01*
X154735155Y-87387155D02*
X154735155Y-88128770D01*
X143942002Y-86539115D02*
X144062002Y-86539115D01*
X153175155Y-86405546D02*
X153295155Y-86405546D01*
X146102002Y-85557500D02*
X146102002Y-86299115D01*
X149565500Y-85557500D02*
X150025119Y-86017119D01*
X155935155Y-87387155D02*
X155935155Y-87627155D01*
X155575155Y-86405546D02*
X155695155Y-86405546D01*
X151213056Y-87205054D02*
X151297908Y-87289908D01*
X144902002Y-84815885D02*
X144902002Y-85557500D01*
X147902002Y-85317500D02*
X147902002Y-84815860D01*
X151395155Y-87387155D02*
X152045155Y-87387155D01*
X150449381Y-86780792D02*
X150094668Y-87135505D01*
X148862002Y-85557500D02*
X149565500Y-85557500D01*
X140781000Y-85557500D02*
X141662002Y-85557500D01*
X160528000Y-85852000D02*
X161663000Y-85852000D01*
X142502002Y-84815885D02*
X142502002Y-85317500D01*
X148502002Y-84815860D02*
X148502002Y-85317500D01*
X144542002Y-84575885D02*
X144662002Y-84575885D01*
X153535155Y-87147155D02*
X153535155Y-87387155D01*
X153535155Y-87387155D02*
X153535155Y-88128770D01*
X150788792Y-86441382D02*
X150449381Y-86780792D01*
X144302002Y-85557500D02*
X144302002Y-84815885D01*
X150364531Y-86017120D02*
X150719225Y-85662423D01*
X156535155Y-88128770D02*
X156535155Y-87627155D01*
X155335155Y-88128770D02*
X155335155Y-87387155D01*
X144302002Y-86299115D02*
X144302002Y-85557500D01*
X142142002Y-84575885D02*
X142262002Y-84575885D01*
X156775155Y-87387155D02*
X156895155Y-87387155D01*
X146102002Y-84815860D02*
X146102002Y-85557500D01*
X146702002Y-85557500D02*
X146702002Y-84815860D01*
X156895155Y-87387155D02*
X158992845Y-87387155D01*
X145142002Y-86539115D02*
X145262002Y-86539115D01*
X148742002Y-85557500D02*
X148862002Y-85557500D01*
X145502002Y-85557500D02*
X145502002Y-84815860D01*
X150518932Y-87559768D02*
X150873645Y-87205054D01*
X143102002Y-85557500D02*
X143102002Y-84815885D01*
X154375155Y-86405546D02*
X154495155Y-86405546D01*
X155335155Y-87387155D02*
X155335155Y-86645546D01*
X156175155Y-88368770D02*
X156295155Y-88368770D01*
X144902002Y-85557500D02*
X144902002Y-86299115D01*
X147902002Y-85557500D02*
X147902002Y-85317500D01*
X159956500Y-86423500D02*
X160528000Y-85852000D01*
X154135155Y-88128770D02*
X154135155Y-87387155D01*
X143102002Y-86299115D02*
X143102002Y-85557500D01*
X146702002Y-86299115D02*
X146702002Y-85557500D01*
X158992845Y-87387155D02*
X159912083Y-86467915D01*
X150094668Y-87135505D02*
G75*
G03*
X150094678Y-87474906I169732J-169695D01*
G01*
X146702002Y-84815860D02*
G75*
G02*
X146942002Y-84575902I239998J-40D01*
G01*
X155695155Y-86405546D02*
G75*
G02*
X155935154Y-86645546I45J-239954D01*
G01*
X141662002Y-85557500D02*
G75*
G03*
X141902000Y-85317500I-2J240000D01*
G01*
X145862002Y-84575860D02*
G75*
G02*
X146102040Y-84815860I-2J-240040D01*
G01*
X142502002Y-86299115D02*
G75*
G03*
X142742002Y-86539098I239998J15D01*
G01*
X146462002Y-86539115D02*
G75*
G03*
X146702015Y-86299115I-2J240015D01*
G01*
X152935155Y-86645546D02*
G75*
G02*
X153175155Y-86405455I240045J46D01*
G01*
X146102002Y-86299115D02*
G75*
G03*
X146342002Y-86539098I239998J15D01*
G01*
X143102002Y-84815885D02*
G75*
G02*
X143342002Y-84575902I239998J-15D01*
G01*
X147662002Y-86539115D02*
G75*
G03*
X147902015Y-86299115I-2J240015D01*
G01*
X154495155Y-86405546D02*
G75*
G02*
X154735154Y-86645546I45J-239954D01*
G01*
X148262002Y-84575860D02*
G75*
G02*
X148502040Y-84815860I-2J-240040D01*
G01*
X150873645Y-87205054D02*
G75*
G02*
X151213056Y-87205053I169706J-169707D01*
G01*
X145502002Y-84815860D02*
G75*
G02*
X145742002Y-84575902I239998J-40D01*
G01*
X144302002Y-84815885D02*
G75*
G02*
X144542002Y-84575902I239998J-15D01*
G01*
X141902002Y-84815885D02*
G75*
G02*
X142142002Y-84575902I239998J-15D01*
G01*
X150179520Y-87559768D02*
G75*
G03*
X150518932Y-87559768I169706J169704D01*
G01*
X147062002Y-84575860D02*
G75*
G02*
X147302040Y-84815860I-2J-240040D01*
G01*
X143462002Y-84575885D02*
G75*
G02*
X143702015Y-84815885I-2J-240015D01*
G01*
X144062002Y-86539115D02*
G75*
G03*
X144302015Y-86299115I-2J240015D01*
G01*
X154735155Y-88128770D02*
G75*
G03*
X154975155Y-88368845I240045J-30D01*
G01*
X153535155Y-88128770D02*
G75*
G03*
X153775155Y-88368845I240045J-30D01*
G01*
X151143489Y-85747276D02*
G75*
G02*
X151143507Y-86086706I-169689J-169724D01*
G01*
X153895155Y-88368770D02*
G75*
G03*
X154135170Y-88128770I45J239970D01*
G01*
X156535155Y-87627155D02*
G75*
G02*
X156775155Y-87387155I240045J-45D01*
G01*
X152695155Y-87387155D02*
G75*
G03*
X152935155Y-87147155I45J239955D01*
G01*
X156295155Y-88368770D02*
G75*
G03*
X156535170Y-88128770I45J239970D01*
G01*
X150025119Y-86017119D02*
G75*
G03*
X150364506Y-86017095I169681J169719D01*
G01*
X142862002Y-86539115D02*
G75*
G03*
X143102015Y-86299115I-2J240015D01*
G01*
X153295155Y-86405546D02*
G75*
G02*
X153535154Y-86645546I45J-239954D01*
G01*
X145262002Y-86539115D02*
G75*
G03*
X145502015Y-86299115I-2J240015D01*
G01*
X144902002Y-86299115D02*
G75*
G03*
X145142002Y-86539098I239998J15D01*
G01*
X155935155Y-88128770D02*
G75*
G03*
X156175155Y-88368845I240045J-30D01*
G01*
X154135155Y-86645546D02*
G75*
G02*
X154375155Y-86405455I240045J46D01*
G01*
X155335155Y-86645546D02*
G75*
G02*
X155575155Y-86405455I240045J46D01*
G01*
X144662002Y-84575885D02*
G75*
G02*
X144902015Y-84815885I-2J-240015D01*
G01*
X142262002Y-84575885D02*
G75*
G02*
X142502015Y-84815885I-2J-240015D01*
G01*
X148502002Y-85317500D02*
G75*
G03*
X148742002Y-85557498I239998J0D01*
G01*
X143702002Y-86299115D02*
G75*
G03*
X143942002Y-86539098I239998J15D01*
G01*
X147902002Y-84815860D02*
G75*
G02*
X148142002Y-84575902I239998J-40D01*
G01*
X150719225Y-85662423D02*
G75*
G02*
X151058606Y-85662454I169675J-169677D01*
G01*
X155095155Y-88368770D02*
G75*
G03*
X155335170Y-88128770I45J239970D01*
G01*
X147302002Y-86299115D02*
G75*
G03*
X147542002Y-86539098I239998J15D01*
G01*
X149686882Y-80437118D02*
X149174532Y-79924768D01*
X142403119Y-82523500D02*
X142403119Y-82038951D01*
X143243119Y-83728049D02*
X143363119Y-83728049D01*
X150114388Y-81373740D02*
X150199240Y-81288887D01*
X146003119Y-83488048D02*
X146003119Y-82763500D01*
X149686881Y-80437116D02*
X149686882Y-80437118D01*
X143003119Y-82038951D02*
X143003119Y-82523500D01*
X153947000Y-78142451D02*
X153947000Y-78627000D01*
X151047743Y-80100922D02*
X150705115Y-79758294D01*
X154307000Y-78867000D02*
X154717418Y-78867000D01*
X140781000Y-82763500D02*
X142163119Y-82763500D01*
X150111146Y-80012854D02*
X150280851Y-80182559D01*
X165735000Y-78867000D02*
X166243000Y-79375000D01*
X145403119Y-82763500D02*
X145403119Y-83488048D01*
X146243119Y-81798951D02*
X146363119Y-81798951D01*
X153347000Y-78627000D02*
X153347000Y-78142451D01*
X149174533Y-79585356D02*
X149259385Y-79500505D01*
X153347000Y-79591547D02*
X153347000Y-78867000D01*
X145043119Y-81798951D02*
X145163119Y-81798951D01*
X152147000Y-78627000D02*
X152147000Y-78142451D01*
X150705115Y-79418882D02*
X150789969Y-79334030D01*
X149262620Y-80861384D02*
X149262618Y-80861382D01*
X145643119Y-83728048D02*
X145763119Y-83728048D01*
X147477507Y-81282446D02*
X147562361Y-81197593D01*
X152387000Y-77902451D02*
X152507000Y-77902451D01*
X152747000Y-78627000D02*
X152747000Y-78867000D01*
X146003119Y-82523500D02*
X146003119Y-82038951D01*
X150962890Y-80525187D02*
X151047743Y-80440333D01*
X145403119Y-82038951D02*
X145403119Y-82763500D01*
X144203119Y-82763500D02*
X144203119Y-83488049D01*
X150789969Y-79334030D02*
X151257000Y-78867000D01*
X143843119Y-81798952D02*
X143963119Y-81798952D01*
X149350652Y-81797943D02*
X148838353Y-81285644D01*
X143603119Y-82763500D02*
X143603119Y-82038952D01*
X148326005Y-80433884D02*
X148410857Y-80349033D01*
X151257000Y-78867000D02*
X151907000Y-78867000D01*
X147820120Y-81964468D02*
X147477508Y-81621856D01*
X147360500Y-82763500D02*
X147820119Y-82303880D01*
X146843119Y-82763500D02*
X146963119Y-82763500D01*
X152987000Y-79831547D02*
X153107000Y-79831547D01*
X150111148Y-80012856D02*
X150111146Y-80012854D01*
X144203119Y-82038952D02*
X144203119Y-82763500D01*
X150280851Y-80182559D02*
X150623479Y-80525187D01*
X144803119Y-83488049D02*
X144803119Y-82763500D01*
X143603119Y-83488049D02*
X143603119Y-82763500D01*
X148244386Y-81540206D02*
X148414091Y-81709911D01*
X148414090Y-81709910D02*
X148926388Y-82222208D01*
X148414091Y-81709911D02*
X148414090Y-81709910D01*
X148838354Y-81285646D02*
X148326004Y-80773296D01*
X153347000Y-78867000D02*
X153347000Y-78627000D01*
X146963119Y-82763500D02*
X147360500Y-82763500D01*
X147901773Y-81197593D02*
X148244386Y-81540206D01*
X153587000Y-77902451D02*
X153707000Y-77902451D01*
X150199240Y-80949475D02*
X149686881Y-80437116D01*
X166243000Y-79375000D02*
X166243000Y-80772000D01*
X144803119Y-82763500D02*
X144803119Y-82038951D01*
X152747000Y-78142451D02*
X152747000Y-78627000D01*
X144443119Y-83728049D02*
X144563119Y-83728049D01*
X146003119Y-82763500D02*
X146003119Y-82523500D01*
X154187000Y-78867000D02*
X154307000Y-78867000D01*
X154717418Y-78867000D02*
X165735000Y-78867000D01*
X148750269Y-80349033D02*
X149262620Y-80861384D01*
X152747000Y-78867000D02*
X152747000Y-79591547D01*
X149598797Y-79500505D02*
X150111148Y-80012856D01*
X148838353Y-81285644D02*
X148838354Y-81285646D01*
X143003119Y-82763500D02*
X143003119Y-83488049D01*
X149265800Y-82222208D02*
X149350652Y-82137355D01*
X143003119Y-82523500D02*
X143003119Y-82763500D01*
X146603119Y-82038951D02*
X146603119Y-82523500D01*
X142643119Y-81798951D02*
X142763119Y-81798951D01*
X149262618Y-80861382D02*
X149774976Y-81373740D01*
X142403119Y-82038951D02*
G75*
G02*
X142643119Y-81798919I239981J51D01*
G01*
X147477508Y-81621856D02*
G75*
G02*
X147477556Y-81282496I169692J169656D01*
G01*
X153107000Y-79831547D02*
G75*
G03*
X153347047Y-79591547I0J240047D01*
G01*
X145763119Y-83728048D02*
G75*
G03*
X146003148Y-83488048I-19J240048D01*
G01*
X152147000Y-78142451D02*
G75*
G02*
X152387000Y-77902400I240000J51D01*
G01*
X148410857Y-80349033D02*
G75*
G02*
X148750269Y-80349033I169706J-169701D01*
G01*
X144203119Y-83488049D02*
G75*
G03*
X144443119Y-83728081I239981J-51D01*
G01*
X149350652Y-82137355D02*
G75*
G03*
X149350701Y-81797894I-169752J169755D01*
G01*
X153947000Y-78627000D02*
G75*
G03*
X154187000Y-78867000I240000J0D01*
G01*
X153707000Y-77902451D02*
G75*
G02*
X153946949Y-78142451I0J-239949D01*
G01*
X148926388Y-82222208D02*
G75*
G03*
X149265800Y-82222208I169706J169704D01*
G01*
X149174532Y-79924768D02*
G75*
G02*
X149174570Y-79585394I169668J169668D01*
G01*
X152747000Y-79591547D02*
G75*
G03*
X152987000Y-79831500I240000J47D01*
G01*
X144803119Y-82038951D02*
G75*
G02*
X145043119Y-81798919I239981J51D01*
G01*
X146603119Y-82523500D02*
G75*
G03*
X146843119Y-82763481I239981J0D01*
G01*
X147562361Y-81197593D02*
G75*
G02*
X147901773Y-81197593I169706J-169708D01*
G01*
X142763119Y-81798951D02*
G75*
G02*
X143003049Y-82038951I-19J-239949D01*
G01*
X147820119Y-82303880D02*
G75*
G03*
X147820094Y-81964494I-169719J169680D01*
G01*
X150623479Y-80525187D02*
G75*
G03*
X150962890Y-80525188I169706J169707D01*
G01*
X143363119Y-83728049D02*
G75*
G03*
X143603049Y-83488049I-19J239949D01*
G01*
X146003119Y-82038951D02*
G75*
G02*
X146243119Y-81798919I239981J51D01*
G01*
X151047743Y-80440333D02*
G75*
G03*
X151047771Y-80100895I-169743J169733D01*
G01*
X143603119Y-82038952D02*
G75*
G02*
X143843119Y-81799019I239981J-48D01*
G01*
X151907000Y-78867000D02*
G75*
G03*
X152147000Y-78627000I0J240000D01*
G01*
X149774976Y-81373740D02*
G75*
G03*
X150114388Y-81373740I169706J169704D01*
G01*
X144563119Y-83728049D02*
G75*
G03*
X144803049Y-83488049I-19J239949D01*
G01*
X145163119Y-81798951D02*
G75*
G02*
X145403049Y-82038951I-19J-239949D01*
G01*
X143003119Y-83488049D02*
G75*
G03*
X143243119Y-83728081I239981J-51D01*
G01*
X143963119Y-81798952D02*
G75*
G02*
X144203148Y-82038952I-19J-240048D01*
G01*
X142163119Y-82763500D02*
G75*
G03*
X142403100Y-82523500I-19J240000D01*
G01*
X146363119Y-81798951D02*
G75*
G02*
X146603049Y-82038951I-19J-239949D01*
G01*
X149259385Y-79500505D02*
G75*
G02*
X149598797Y-79500505I169706J-169701D01*
G01*
X150705115Y-79758294D02*
G75*
G02*
X150705127Y-79418894I169685J169694D01*
G01*
X150199240Y-81288887D02*
G75*
G03*
X150199221Y-80949494I-169740J169687D01*
G01*
X153347000Y-78142451D02*
G75*
G02*
X153587000Y-77902400I240000J51D01*
G01*
X145403119Y-83488048D02*
G75*
G03*
X145643119Y-83727981I239981J48D01*
G01*
X148326004Y-80773296D02*
G75*
G02*
X148326014Y-80433894I169696J169696D01*
G01*
X152507000Y-77902451D02*
G75*
G02*
X152746949Y-78142451I0J-239949D01*
G01*
X147143754Y-89113500D02*
X147143754Y-88379750D01*
X143783754Y-88139747D02*
X143903754Y-88139747D01*
X142943754Y-88379747D02*
X142943754Y-89113500D01*
X150143754Y-89113500D02*
X150143754Y-89847250D01*
X149543754Y-89113500D02*
X149543754Y-88379752D01*
X144743754Y-89113500D02*
X144743754Y-88379750D01*
X151343754Y-89113500D02*
X151343754Y-89353500D01*
X148343754Y-89847249D02*
X148343754Y-89113500D01*
X147743754Y-88379750D02*
X147743754Y-89113500D01*
X150143754Y-88379752D02*
X150143754Y-89113500D01*
X152303754Y-89113500D02*
X155575000Y-89113500D01*
X142343754Y-89847253D02*
X142343754Y-89353500D01*
X141743754Y-89353500D02*
X141743754Y-89847253D01*
X144983754Y-88139750D02*
X145103754Y-88139750D01*
X140781000Y-89113500D02*
X141503754Y-89113500D01*
X146543754Y-89113500D02*
X146543754Y-89847248D01*
X150743754Y-89113500D02*
X150743754Y-88379752D01*
X163957000Y-87757000D02*
X163953000Y-87753000D01*
X150743754Y-89847250D02*
X150743754Y-89113500D01*
X151343754Y-89353500D02*
X151343754Y-89847253D01*
X147983754Y-90087249D02*
X148103754Y-90087249D01*
X150983754Y-88139752D02*
X151103754Y-88139752D01*
X151583754Y-90087253D02*
X151703754Y-90087253D01*
X144383754Y-90087253D02*
X144503754Y-90087253D01*
X147383754Y-88139750D02*
X147503754Y-88139750D01*
X145943754Y-89847250D02*
X145943754Y-89113500D01*
X152183754Y-89113500D02*
X152303754Y-89113500D01*
X149183754Y-90087250D02*
X149303754Y-90087250D01*
X142943754Y-89113500D02*
X142943754Y-89847253D01*
X148583754Y-88139752D02*
X148703754Y-88139752D01*
X146183754Y-88139750D02*
X146303754Y-88139750D01*
X147143754Y-89847248D02*
X147143754Y-89113500D01*
X144743754Y-89847253D02*
X144743754Y-89113500D01*
X163953000Y-87753000D02*
X163953000Y-85852000D01*
X155575000Y-89113500D02*
X162600500Y-89113500D01*
X142343754Y-89113500D02*
X142343754Y-88379747D01*
X148943754Y-89113500D02*
X148943754Y-89847250D01*
X142583754Y-88139747D02*
X142703754Y-88139747D01*
X151943754Y-89847253D02*
X151943754Y-89353500D01*
X162600500Y-89113500D02*
X163957000Y-87757000D01*
X143543754Y-89113500D02*
X143543754Y-88379747D01*
X141983754Y-90087253D02*
X142103754Y-90087253D01*
X151343754Y-88379752D02*
X151343754Y-89113500D01*
X144143754Y-88379747D02*
X144143754Y-89113500D01*
X148343754Y-89113500D02*
X148343754Y-88379752D01*
X145343754Y-88379750D02*
X145343754Y-89113500D01*
X145943754Y-89113500D02*
X145943754Y-88379750D01*
X148943754Y-88379752D02*
X148943754Y-89113500D01*
X150383754Y-90087250D02*
X150503754Y-90087250D01*
X149783754Y-88139752D02*
X149903754Y-88139752D01*
X143543754Y-89847253D02*
X143543754Y-89113500D01*
X146783754Y-90087248D02*
X146903754Y-90087248D01*
X145343754Y-89113500D02*
X145343754Y-89847250D01*
X145583754Y-90087250D02*
X145703754Y-90087250D01*
X140781000Y-88224500D02*
X140781000Y-90002500D01*
X149543754Y-89847250D02*
X149543754Y-89113500D01*
X144143754Y-89113500D02*
X144143754Y-89847253D01*
X147743754Y-89113500D02*
X147743754Y-89847249D01*
X146543754Y-88379750D02*
X146543754Y-89113500D01*
X142343754Y-89353500D02*
X142343754Y-89113500D01*
X143183754Y-90087253D02*
X143303754Y-90087253D01*
X148103754Y-90087249D02*
G75*
G03*
X148343749Y-89847249I46J239949D01*
G01*
X151103754Y-88139752D02*
G75*
G02*
X151343848Y-88379752I46J-240048D01*
G01*
X149903754Y-88139752D02*
G75*
G02*
X150143848Y-88379752I46J-240048D01*
G01*
X147743754Y-89847249D02*
G75*
G03*
X147983754Y-90087346I240046J-51D01*
G01*
X145103754Y-88139750D02*
G75*
G02*
X145343750Y-88379750I46J-239950D01*
G01*
X146903754Y-90087248D02*
G75*
G03*
X147143848Y-89847248I46J240048D01*
G01*
X147503754Y-88139750D02*
G75*
G02*
X147743750Y-88379750I46J-239950D01*
G01*
X144743754Y-88379750D02*
G75*
G02*
X144983754Y-88139654I240046J50D01*
G01*
X151703754Y-90087253D02*
G75*
G03*
X151943753Y-89847253I46J239953D01*
G01*
X144143754Y-89847253D02*
G75*
G03*
X144383754Y-90087346I240046J-47D01*
G01*
X147143754Y-88379750D02*
G75*
G02*
X147383754Y-88139654I240046J50D01*
G01*
X144503754Y-90087253D02*
G75*
G03*
X144743753Y-89847253I46J239953D01*
G01*
X142703754Y-88139747D02*
G75*
G02*
X142943753Y-88379747I46J-239953D01*
G01*
X151343754Y-89847253D02*
G75*
G03*
X151583754Y-90087346I240046J-47D01*
G01*
X149543754Y-88379752D02*
G75*
G02*
X149783754Y-88139754I240046J-48D01*
G01*
X145943754Y-88379750D02*
G75*
G02*
X146183754Y-88139654I240046J50D01*
G01*
X142103754Y-90087253D02*
G75*
G03*
X142343753Y-89847253I46J239953D01*
G01*
X142943754Y-89847253D02*
G75*
G03*
X143183754Y-90087346I240046J-47D01*
G01*
X148943754Y-89847250D02*
G75*
G03*
X149183754Y-90087346I240046J-50D01*
G01*
X143303754Y-90087253D02*
G75*
G03*
X143543753Y-89847253I46J239953D01*
G01*
X148703754Y-88139752D02*
G75*
G02*
X148943848Y-88379752I46J-240048D01*
G01*
X141743754Y-89847253D02*
G75*
G03*
X141983754Y-90087346I240046J-47D01*
G01*
X145343754Y-89847250D02*
G75*
G03*
X145583754Y-90087346I240046J-50D01*
G01*
X142343754Y-88379747D02*
G75*
G02*
X142583754Y-88139654I240046J47D01*
G01*
X146303754Y-88139750D02*
G75*
G02*
X146543750Y-88379750I46J-239950D01*
G01*
X150143754Y-89847250D02*
G75*
G03*
X150383754Y-90087346I240046J-50D01*
G01*
X150503754Y-90087250D02*
G75*
G03*
X150743750Y-89847250I46J239950D01*
G01*
X146543754Y-89847248D02*
G75*
G03*
X146783754Y-90087246I240046J48D01*
G01*
X141503754Y-89113500D02*
G75*
G02*
X141743800Y-89353500I46J-240000D01*
G01*
X149303754Y-90087250D02*
G75*
G03*
X149543750Y-89847250I46J239950D01*
G01*
X151943754Y-89353500D02*
G75*
G02*
X152183754Y-89113454I240046J0D01*
G01*
X143543754Y-88379747D02*
G75*
G02*
X143783754Y-88139654I240046J47D01*
G01*
X148343754Y-88379752D02*
G75*
G02*
X148583754Y-88139754I240046J-48D01*
G01*
X145703754Y-90087250D02*
G75*
G03*
X145943750Y-89847250I46J239950D01*
G01*
X150743754Y-88379752D02*
G75*
G02*
X150983754Y-88139754I240046J-48D01*
G01*
X143903754Y-88139747D02*
G75*
G02*
X144143753Y-88379747I46J-239953D01*
G01*
X146623000Y-80834000D02*
X150114000Y-77343000D01*
X166370000Y-77343000D02*
X168533000Y-79506000D01*
X140781000Y-80858500D02*
X146623000Y-80858500D01*
X150114000Y-77343000D02*
X166370000Y-77343000D01*
X168533000Y-79506000D02*
X168533000Y-80772000D01*
X146623000Y-80858500D02*
X146623000Y-80834000D01*
X147989500Y-91781890D02*
X147989500Y-91059000D01*
X148229500Y-90446135D02*
X148349500Y-90446135D01*
X147989500Y-91059000D02*
X147989500Y-90686135D01*
X145589500Y-91059000D02*
X145589500Y-90686135D01*
X144029500Y-92021890D02*
X144149500Y-92021890D01*
X153029500Y-90096135D02*
X153149500Y-90096135D01*
X142492013Y-91466486D02*
X142899500Y-91059000D01*
X150989500Y-90686135D02*
X150989500Y-91059000D01*
X154229500Y-91059000D02*
X154349500Y-91059000D01*
X153389500Y-90336135D02*
X153389500Y-91059000D01*
X157734000Y-91059000D02*
X162941000Y-91059000D01*
X142748587Y-92232178D02*
X142407158Y-91890749D01*
X144629500Y-90446135D02*
X144749500Y-90446135D01*
X144389500Y-91781890D02*
X144389500Y-91299000D01*
X145589500Y-91781890D02*
X145589500Y-91059000D01*
X153989500Y-91781890D02*
X153989500Y-91299000D01*
X147029500Y-90446135D02*
X147149500Y-90446135D01*
X152189500Y-90686135D02*
X152189500Y-91059000D01*
X142663735Y-92656443D02*
X142748587Y-92571590D01*
X144389500Y-91299000D02*
X144389500Y-91059000D01*
X154349500Y-91059000D02*
X157734000Y-91059000D01*
X146429500Y-92021890D02*
X146549500Y-92021890D01*
X145229500Y-92021890D02*
X145349500Y-92021890D01*
X162941000Y-91059000D02*
X166243000Y-87757000D01*
X145829500Y-90446135D02*
X145949500Y-90446135D01*
X146789500Y-91781890D02*
X146789500Y-91059000D01*
X150629500Y-90446135D02*
X150749500Y-90446135D01*
X153389500Y-91299000D02*
X153389500Y-91781890D01*
X146189500Y-90686135D02*
X146189500Y-91059000D01*
X144389500Y-91059000D02*
X144389500Y-90686135D01*
X144989500Y-91059000D02*
X144989500Y-91781890D01*
X146189500Y-91059000D02*
X146189500Y-91781890D01*
X140781000Y-92669500D02*
X141289000Y-92669500D01*
X151589500Y-91781890D02*
X151589500Y-91059000D01*
X142899500Y-91059000D02*
X143549500Y-91059000D01*
X153629500Y-92021890D02*
X153749500Y-92021890D01*
X149789500Y-90686135D02*
X149789500Y-91059000D01*
X150989500Y-91059000D02*
X150989500Y-91781890D01*
X149189500Y-91059000D02*
X149189500Y-90686135D01*
X142407158Y-91551338D02*
X142492013Y-91466486D01*
X144989500Y-90686135D02*
X144989500Y-91059000D01*
X151229500Y-92021890D02*
X151349500Y-92021890D01*
X149789500Y-91059000D02*
X149789500Y-91781890D01*
X152189500Y-91059000D02*
X152189500Y-91781890D01*
X146789500Y-91059000D02*
X146789500Y-90686135D01*
X141982896Y-92315015D02*
X142324324Y-92656443D01*
X149429500Y-90446135D02*
X149549500Y-90446135D01*
X148589500Y-90686135D02*
X148589500Y-91059000D01*
X151829500Y-90446135D02*
X151949500Y-90446135D01*
X141289000Y-92669500D02*
X141643485Y-92315015D01*
X166243000Y-87757000D02*
X166243000Y-85852000D01*
X148829500Y-92021890D02*
X148949500Y-92021890D01*
X147629500Y-92021890D02*
X147749500Y-92021890D01*
X149189500Y-91781890D02*
X149189500Y-91059000D01*
X150029500Y-92021890D02*
X150149500Y-92021890D01*
X152789500Y-91059000D02*
X152789500Y-90336135D01*
X143789500Y-91299000D02*
X143789500Y-91781890D01*
X150389500Y-91059000D02*
X150389500Y-90686135D01*
X147389500Y-90686135D02*
X147389500Y-91059000D01*
X147389500Y-91059000D02*
X147389500Y-91781890D01*
X148589500Y-91059000D02*
X148589500Y-91781890D01*
X152789500Y-91781890D02*
X152789500Y-91059000D01*
X150389500Y-91781890D02*
X150389500Y-91059000D01*
X140781000Y-91780500D02*
X140781000Y-93558500D01*
X152429500Y-92021890D02*
X152549500Y-92021890D01*
X151589500Y-91059000D02*
X151589500Y-90686135D01*
X153389500Y-91059000D02*
X153389500Y-91299000D01*
X145349500Y-92021890D02*
G75*
G03*
X145589490Y-91781890I0J239990D01*
G01*
X144749500Y-90446135D02*
G75*
G02*
X144989465Y-90686135I0J-239965D01*
G01*
X146189500Y-91781890D02*
G75*
G03*
X146429500Y-92021900I240000J-10D01*
G01*
X150389500Y-90686135D02*
G75*
G02*
X150629500Y-90446100I240000J35D01*
G01*
X143549500Y-91059000D02*
G75*
G02*
X143789500Y-91299000I0J-240000D01*
G01*
X152549500Y-92021890D02*
G75*
G03*
X152789490Y-91781890I0J239990D01*
G01*
X150989500Y-91781890D02*
G75*
G03*
X151229500Y-92021900I240000J-10D01*
G01*
X144989500Y-91781890D02*
G75*
G03*
X145229500Y-92021900I240000J-10D01*
G01*
X147749500Y-92021890D02*
G75*
G03*
X147989490Y-91781890I0J239990D01*
G01*
X143789500Y-91781890D02*
G75*
G03*
X144029500Y-92021900I240000J-10D01*
G01*
X145949500Y-90446135D02*
G75*
G02*
X146189465Y-90686135I0J-239965D01*
G01*
X146789500Y-90686135D02*
G75*
G02*
X147029500Y-90446100I240000J35D01*
G01*
X152789500Y-90336135D02*
G75*
G02*
X153029500Y-90096100I240000J35D01*
G01*
X146549500Y-92021890D02*
G75*
G03*
X146789490Y-91781890I0J239990D01*
G01*
X153989500Y-91299000D02*
G75*
G02*
X154229500Y-91059000I240000J0D01*
G01*
X141643485Y-92315015D02*
G75*
G02*
X141982896Y-92315014I169706J-169707D01*
G01*
X151589500Y-90686135D02*
G75*
G02*
X151829500Y-90446100I240000J35D01*
G01*
X142748587Y-92571590D02*
G75*
G03*
X142748571Y-92232194I-169687J169690D01*
G01*
X144389500Y-90686135D02*
G75*
G02*
X144629500Y-90446100I240000J35D01*
G01*
X147389500Y-91781890D02*
G75*
G03*
X147629500Y-92021900I240000J-10D01*
G01*
X147989500Y-90686135D02*
G75*
G02*
X148229500Y-90446100I240000J35D01*
G01*
X142324324Y-92656443D02*
G75*
G03*
X142663735Y-92656444I169706J169707D01*
G01*
X153749500Y-92021890D02*
G75*
G03*
X153989490Y-91781890I0J239990D01*
G01*
X150149500Y-92021890D02*
G75*
G03*
X150389490Y-91781890I0J239990D01*
G01*
X153389500Y-91781890D02*
G75*
G03*
X153629500Y-92021900I240000J-10D01*
G01*
X148949500Y-92021890D02*
G75*
G03*
X149189490Y-91781890I0J239990D01*
G01*
X150749500Y-90446135D02*
G75*
G02*
X150989465Y-90686135I0J-239965D01*
G01*
X153149500Y-90096135D02*
G75*
G02*
X153389465Y-90336135I0J-239965D01*
G01*
X142407158Y-91890749D02*
G75*
G02*
X142407114Y-91551295I169742J169749D01*
G01*
X152189500Y-91781890D02*
G75*
G03*
X152429500Y-92021900I240000J-10D01*
G01*
X151349500Y-92021890D02*
G75*
G03*
X151589490Y-91781890I0J239990D01*
G01*
X147149500Y-90446135D02*
G75*
G02*
X147389465Y-90686135I0J-239965D01*
G01*
X151949500Y-90446135D02*
G75*
G02*
X152189465Y-90686135I0J-239965D01*
G01*
X149789500Y-91781890D02*
G75*
G03*
X150029500Y-92021900I240000J-10D01*
G01*
X145589500Y-90686135D02*
G75*
G02*
X145829500Y-90446100I240000J35D01*
G01*
X144149500Y-92021890D02*
G75*
G03*
X144389490Y-91781890I0J239990D01*
G01*
X149549500Y-90446135D02*
G75*
G02*
X149789465Y-90686135I0J-239965D01*
G01*
X148589500Y-91781890D02*
G75*
G03*
X148829500Y-92021900I240000J-10D01*
G01*
X149189500Y-90686135D02*
G75*
G02*
X149429500Y-90446100I240000J35D01*
G01*
X148349500Y-90446135D02*
G75*
G02*
X148589465Y-90686135I0J-239965D01*
G01*
X123571000Y-112188000D02*
X125603000Y-112188000D01*
X125603000Y-113030000D02*
X126365000Y-113792000D01*
X128716000Y-115021500D02*
X128716000Y-116158500D01*
X127486500Y-113792000D02*
X128716000Y-115021500D01*
X126365000Y-113792000D02*
X127486500Y-113792000D01*
X125603000Y-112188000D02*
X125603000Y-113030000D01*
X119507000Y-112188000D02*
X121539000Y-112188000D01*
X121539000Y-112188000D02*
X121539000Y-112903000D01*
X121539000Y-112903000D02*
X126616000Y-117980000D01*
X126616000Y-117980000D02*
X126616000Y-118958500D01*
X131699000Y-112188000D02*
X133731000Y-112188000D01*
X133731000Y-113051500D02*
X134050000Y-113370500D01*
X133731000Y-113051500D02*
X133731000Y-112188000D01*
X134050000Y-113370500D02*
X146877000Y-113370500D01*
X151217000Y-117710500D02*
X151217000Y-118958500D01*
X146877000Y-113370500D02*
X151217000Y-117710500D01*
X154618000Y-116158500D02*
X153317000Y-116158500D01*
X139170500Y-113792000D02*
X145988000Y-120609500D01*
X154878000Y-119466500D02*
X154878000Y-116418500D01*
X129667000Y-113116500D02*
X130342500Y-113792000D01*
X130342500Y-113792000D02*
X139170500Y-113792000D01*
X127635000Y-112188000D02*
X129667000Y-112188000D01*
X129667000Y-112188000D02*
X129667000Y-113116500D01*
X145988000Y-120609500D02*
X153735000Y-120609500D01*
X154878000Y-116418500D02*
X154618000Y-116158500D01*
X153735000Y-120609500D02*
X154878000Y-119466500D01*
X191135000Y-96266000D02*
X191964250Y-96266000D01*
X191964250Y-96266000D02*
X192004750Y-96225500D01*
X196404750Y-91631250D02*
X196404750Y-90225500D01*
X189357000Y-103712191D02*
X189611000Y-103458191D01*
X210693000Y-98044000D02*
X209550000Y-98044000D01*
X200365500Y-88859500D02*
X196534000Y-88859500D01*
X190881000Y-97790000D02*
X194818000Y-97790000D01*
X189611000Y-103358362D02*
X189632000Y-103337362D01*
X213360000Y-100711000D02*
X210693000Y-98044000D01*
X189611000Y-103458191D02*
X189611000Y-103358362D01*
X189632000Y-99039000D02*
X190881000Y-97790000D01*
X195072000Y-97536000D02*
X195072000Y-92964000D01*
X189632000Y-103337362D02*
X189632000Y-99039000D01*
X209550000Y-98044000D02*
X200365500Y-88859500D01*
X213360000Y-100833500D02*
X213360000Y-100711000D01*
X196534000Y-88859500D02*
X196404750Y-88988750D01*
X189357000Y-109474000D02*
X189357000Y-103712191D01*
X194818000Y-97790000D02*
X195072000Y-97536000D01*
X196404750Y-88988750D02*
X196404750Y-90225500D01*
X195072000Y-92964000D02*
X196404750Y-91631250D01*
X210520000Y-102218500D02*
X210520000Y-102281000D01*
X192851000Y-113307000D02*
X194184500Y-111973500D01*
X197271000Y-111363500D02*
X197271000Y-110012052D01*
X194184500Y-111973500D02*
X196661000Y-111973500D01*
X192871000Y-115268500D02*
X192851000Y-115248500D01*
X197271000Y-107934500D02*
X197271000Y-109268500D01*
X192851000Y-115248500D02*
X192851000Y-113307000D01*
X204470000Y-106807000D02*
X198398500Y-106807000D01*
X210520000Y-102218500D02*
X209058500Y-102218500D01*
X209058500Y-102218500D02*
X204470000Y-106807000D01*
X206375000Y-109474000D02*
X206375000Y-108077000D01*
X198398500Y-106807000D02*
X197271000Y-107934500D01*
X210520000Y-102281000D02*
X210439000Y-102362000D01*
X196661000Y-111973500D02*
X197271000Y-111363500D01*
X196402137Y-98171000D02*
X196402137Y-97749863D01*
X190373000Y-112649000D02*
X189357000Y-113665000D01*
X191135000Y-98171000D02*
X189992000Y-99314000D01*
X189992000Y-99314000D02*
X189992000Y-108331000D01*
X190373000Y-108712000D02*
X190373000Y-112649000D01*
X189992000Y-108331000D02*
X190373000Y-108712000D01*
X196404750Y-97747250D02*
X196404750Y-96225500D01*
X196402137Y-98171000D02*
X191135000Y-98171000D01*
X196402137Y-97749863D02*
X196404750Y-97747250D01*
X207391000Y-113665000D02*
X206375000Y-113665000D01*
X208280000Y-106045000D02*
X208280000Y-112776000D01*
X198566000Y-108036500D02*
X198566000Y-111338500D01*
X191835000Y-112501500D02*
X191835000Y-116164500D01*
X208534000Y-103505000D02*
X207137000Y-104902000D01*
X208280000Y-112776000D02*
X207391000Y-113665000D01*
X211589500Y-99448500D02*
X210520000Y-99448500D01*
X211201000Y-103505000D02*
X208534000Y-103505000D01*
X198566000Y-111338500D02*
X197271000Y-112633500D01*
X208534000Y-103505000D02*
X204851000Y-107188000D01*
X211589500Y-99448500D02*
X211963000Y-99822000D01*
X191835000Y-116164500D02*
X192343000Y-116672500D01*
X199414500Y-107188000D02*
X198566000Y-108036500D01*
X193994000Y-113878500D02*
X195239000Y-112633500D01*
X204851000Y-107188000D02*
X199414500Y-107188000D01*
X211963000Y-99822000D02*
X211963000Y-102743000D01*
X197271000Y-115268500D02*
X197271000Y-112633500D01*
X192871000Y-109268500D02*
X192871000Y-111465500D01*
X211963000Y-102743000D02*
X211201000Y-103505000D01*
X195239000Y-112633500D02*
X197271000Y-112633500D01*
X193486000Y-116672500D02*
X193994000Y-116164500D01*
X207137000Y-104902000D02*
X208280000Y-106045000D01*
X193994000Y-116164500D02*
X193994000Y-113878500D01*
X192871000Y-111465500D02*
X191835000Y-112501500D01*
X192343000Y-116672500D02*
X193486000Y-116672500D01*
X194581000Y-91828500D02*
X193772750Y-91828500D01*
X195264000Y-88986500D02*
X195264000Y-91145500D01*
X202320000Y-88478500D02*
X195772000Y-88478500D01*
X210520000Y-96678500D02*
X202320000Y-88478500D01*
X195264000Y-91145500D02*
X194581000Y-91828500D01*
X192804750Y-90225500D02*
X192004750Y-90225500D01*
X195772000Y-88478500D02*
X195264000Y-88986500D01*
X193772750Y-91828500D02*
X193137750Y-91193500D01*
X193137750Y-91193500D02*
X193137750Y-90558500D01*
X193137750Y-90558500D02*
X192804750Y-90225500D01*
X184404000Y-105664000D02*
X164951500Y-105664000D01*
X164951500Y-105664000D02*
X164276000Y-104988500D01*
X158434000Y-102067500D02*
X157226000Y-102067500D01*
X164276000Y-104988500D02*
X160720000Y-104988500D01*
X205105000Y-113635000D02*
X205075000Y-113665000D01*
X160720000Y-104988500D02*
X158688000Y-102956500D01*
X158688000Y-102956500D02*
X158688000Y-102321500D01*
X158688000Y-102321500D02*
X158434000Y-102067500D01*
X205105000Y-112268000D02*
X205105000Y-113635000D01*
X158434000Y-103337500D02*
X157226000Y-103337500D01*
X164194552Y-105369500D02*
X160466000Y-105369500D01*
X160466000Y-105369500D02*
X158434000Y-103337500D01*
X185293000Y-105664000D02*
X184658000Y-106299000D01*
X205075000Y-108126000D02*
X205105000Y-108096000D01*
X165124052Y-106299000D02*
X164194552Y-105369500D01*
X205075000Y-109474000D02*
X205075000Y-108126000D01*
X184658000Y-106299000D02*
X165124052Y-106299000D01*
X180583500Y-107401500D02*
X184555276Y-107401500D01*
X179440500Y-111973500D02*
X180050500Y-111363500D01*
X188976000Y-91210500D02*
X191327000Y-88859500D01*
X194121000Y-88859500D02*
X194204750Y-88943250D01*
X180050500Y-111363500D02*
X180050500Y-107934500D01*
X194204750Y-88943250D02*
X194204750Y-90225500D01*
X180050500Y-107934500D02*
X180583500Y-107401500D01*
X175650500Y-113223500D02*
X176900500Y-111973500D01*
X175650500Y-115268500D02*
X175650500Y-113223500D01*
X184555276Y-107401500D02*
X188976000Y-102980776D01*
X176900500Y-111973500D02*
X179440500Y-111973500D01*
X188976000Y-102980776D02*
X188976000Y-91210500D01*
X191327000Y-88859500D02*
X194121000Y-88859500D01*
X181726500Y-107782500D02*
X184723000Y-107782500D01*
X176773500Y-113243500D02*
X177408500Y-112608500D01*
X175122500Y-116672500D02*
X176265500Y-116672500D01*
X180050500Y-115268500D02*
X180050500Y-112710500D01*
X193994000Y-94828500D02*
X194204750Y-95039250D01*
X176773500Y-116164500D02*
X176773500Y-113243500D01*
X180075500Y-112608500D02*
X181345500Y-111338500D01*
X189304000Y-96641836D02*
X191117336Y-94828500D01*
X180050500Y-112710500D02*
X179948500Y-112608500D01*
X174614500Y-112481500D02*
X174614500Y-116164500D01*
X175650500Y-109268500D02*
X175650500Y-111445500D01*
X189304000Y-103201500D02*
X189304000Y-96641836D01*
X177408500Y-112608500D02*
X179948500Y-112608500D01*
X175650500Y-111445500D02*
X174614500Y-112481500D01*
X184723000Y-107782500D02*
X189304000Y-103201500D01*
X181345500Y-111338500D02*
X181345500Y-108163500D01*
X174614500Y-116164500D02*
X175122500Y-116672500D01*
X191117336Y-94828500D02*
X193994000Y-94828500D01*
X194204750Y-95039250D02*
X194204750Y-96225500D01*
X179948500Y-112608500D02*
X180075500Y-112608500D01*
X181345500Y-108163500D02*
X181726500Y-107782500D01*
X176265500Y-116672500D02*
X176773500Y-116164500D01*
X152276000Y-108417500D02*
X150687000Y-108417500D01*
X179197000Y-107334000D02*
X178708000Y-107334000D01*
X187960000Y-112141000D02*
X187960000Y-113568000D01*
X179070000Y-107315000D02*
X178689000Y-107315000D01*
X187960000Y-113568000D02*
X188057000Y-113665000D01*
X178708000Y-107334000D02*
X178689000Y-107315000D01*
X178689000Y-107315000D02*
X161949500Y-107315000D01*
X161949500Y-107315000D02*
X161736000Y-107528500D01*
X150687000Y-108417500D02*
X150306000Y-108798500D01*
X164619690Y-106258500D02*
X165168190Y-106807000D01*
X153989000Y-107528500D02*
X153608000Y-107147500D01*
X188087000Y-107950000D02*
X188087000Y-109093000D01*
X161736000Y-106258500D02*
X164619690Y-106258500D01*
X188057000Y-109123000D02*
X188087000Y-109093000D01*
X154116000Y-107528500D02*
X153989000Y-107528500D01*
X188087000Y-109093000D02*
X188087000Y-109317000D01*
X165168190Y-106807000D02*
X184023000Y-106807000D01*
X153608000Y-107147500D02*
X152276000Y-107147500D01*
X188087000Y-109317000D02*
X188057000Y-109347000D01*
X188057000Y-109474000D02*
X188057000Y-109123000D01*
X184023000Y-106807000D02*
X184023000Y-106826000D01*
X90521000Y-112649000D02*
X93599000Y-112649000D01*
X90521000Y-110393000D02*
X91059000Y-109855000D01*
X92394153Y-109855000D02*
X93091000Y-109158153D01*
X96730200Y-101981000D02*
X97536000Y-101981000D01*
X93091000Y-109158153D02*
X93091000Y-105620200D01*
X89408000Y-112268000D02*
X89408000Y-113030000D01*
X91059000Y-109855000D02*
X92394153Y-109855000D01*
X90521000Y-110749000D02*
X90521000Y-111155000D01*
X90521000Y-110749000D02*
X90521000Y-110393000D01*
X92028000Y-115650000D02*
X93599000Y-115650000D01*
X90521000Y-111155000D02*
X89408000Y-112268000D01*
X89408000Y-113030000D02*
X92028000Y-115650000D01*
X93091000Y-105620200D02*
X96730200Y-101981000D01*
X97440000Y-117475000D02*
X97506000Y-117409000D01*
X93599000Y-117475000D02*
X97440000Y-117475000D01*
X97536000Y-102616000D02*
X96559062Y-102616000D01*
X96559062Y-102616000D02*
X93599000Y-105576062D01*
X93599000Y-110824000D02*
X93599000Y-111496602D01*
X93599000Y-111496602D02*
X94488000Y-112385602D01*
X94488000Y-113411000D02*
X96586000Y-115509000D01*
X93599000Y-105576062D02*
X93599000Y-110824000D01*
X96586000Y-115509000D02*
X97506000Y-115509000D01*
X94488000Y-112385602D02*
X94488000Y-113411000D01*
X98171000Y-116459000D02*
X99187000Y-115443000D01*
X95631000Y-116459000D02*
X98171000Y-116459000D01*
X133796000Y-96098500D02*
X134431000Y-96733500D01*
X135701000Y-96733500D02*
X131356000Y-96733500D01*
X99187000Y-115443000D02*
X99849000Y-115443000D01*
X131356000Y-96733500D02*
X131356000Y-96693500D01*
X134431000Y-96733500D02*
X135701000Y-96733500D01*
X95631000Y-115316000D02*
X95631000Y-116459000D01*
X135574000Y-86446500D02*
X138956000Y-86446500D01*
X134418185Y-86446500D02*
X134418185Y-86660364D01*
X131116000Y-86446500D02*
X133483185Y-86446500D01*
X133910883Y-86018802D02*
X134204336Y-86018802D01*
X134418185Y-86232651D02*
X134418185Y-86446500D01*
X135322049Y-86446500D02*
X135553185Y-86446500D01*
X135553185Y-86446500D02*
X135574000Y-86446500D01*
X134632049Y-86874228D02*
X134894321Y-86874228D01*
X133697034Y-86232651D02*
G75*
G02*
X133910883Y-86018834I213866J-49D01*
G01*
X133483185Y-86446500D02*
G75*
G03*
X133697000Y-86232651I15J213800D01*
G01*
X135108185Y-86660364D02*
G75*
G02*
X135322049Y-86446585I213815J-36D01*
G01*
X134894321Y-86874228D02*
G75*
G03*
X135108128Y-86660364I-21J213828D01*
G01*
X134204336Y-86018802D02*
G75*
G02*
X134418198Y-86232651I-36J-213898D01*
G01*
X134418185Y-86660364D02*
G75*
G03*
X134632049Y-86874215I213815J-36D01*
G01*
X134797081Y-82723500D02*
X136169000Y-82723500D01*
X138869000Y-84755500D02*
X138956000Y-84668500D01*
X131116000Y-82723500D02*
X133524629Y-82723500D01*
X133835077Y-82413052D02*
X134124629Y-82413052D01*
X134435077Y-82723500D02*
X134724629Y-82723500D01*
X138114000Y-84668500D02*
X138956000Y-84668500D01*
X134724629Y-82723500D02*
X134797081Y-82723500D01*
X136169000Y-82723500D02*
X138114000Y-84668500D01*
X133679853Y-82568276D02*
G75*
G02*
X133835077Y-82413053I155247J-24D01*
G01*
X134279853Y-82568276D02*
G75*
G03*
X134435077Y-82723547I155247J-24D01*
G01*
X134124629Y-82413052D02*
G75*
G02*
X134279848Y-82568276I-29J-155248D01*
G01*
X133524629Y-82723500D02*
G75*
G03*
X133679800Y-82568276I-29J155200D01*
G01*
X135236783Y-90256500D02*
X135318589Y-90256500D01*
X135026249Y-90256500D02*
X135236783Y-90256500D01*
X134231783Y-90256500D02*
X134231783Y-90450966D01*
X134426249Y-90645432D02*
X134637317Y-90645432D01*
X137860000Y-90256500D02*
X138114000Y-90002500D01*
X131116000Y-90256500D02*
X133436783Y-90256500D01*
X134231783Y-90062049D02*
X134231783Y-90256500D01*
X138114000Y-90002500D02*
X138956000Y-90002500D01*
X133825685Y-89867598D02*
X134037332Y-89867598D01*
X135318589Y-90256500D02*
X137860000Y-90256500D01*
X133631234Y-90062049D02*
G75*
G02*
X133825685Y-89867534I194466J49D01*
G01*
X134637317Y-90645432D02*
G75*
G03*
X134831732Y-90450966I-17J194432D01*
G01*
X134231783Y-90450966D02*
G75*
G03*
X134426249Y-90645417I194417J-34D01*
G01*
X134831783Y-90450966D02*
G75*
G02*
X135026249Y-90256583I194417J-34D01*
G01*
X133436783Y-90256500D02*
G75*
G03*
X133631200Y-90062049I17J194400D01*
G01*
X134037332Y-89867598D02*
G75*
G02*
X134231702Y-90062049I-32J-194402D01*
G01*
X138114000Y-88224500D02*
X138956000Y-88224500D01*
X134419762Y-89297768D02*
X134708494Y-89297768D01*
X137352000Y-88986500D02*
X138114000Y-88224500D01*
X134264128Y-88986500D02*
X134264128Y-89142134D01*
X131116000Y-88986500D02*
X133484128Y-88986500D01*
X135320000Y-88986500D02*
X137352000Y-88986500D01*
X134264128Y-88830851D02*
X134264128Y-88986500D01*
X135019762Y-88986500D02*
X135284128Y-88986500D01*
X133795426Y-88675202D02*
X134108479Y-88675202D01*
X135284128Y-88986500D02*
X135320000Y-88986500D01*
X134864128Y-89142134D02*
G75*
G02*
X135019762Y-88986428I155672J34D01*
G01*
X134108479Y-88675202D02*
G75*
G02*
X134264198Y-88830851I21J-155698D01*
G01*
X134708494Y-89297768D02*
G75*
G03*
X134864168Y-89142134I6J155668D01*
G01*
X134264128Y-89142134D02*
G75*
G03*
X134419762Y-89297772I155672J34D01*
G01*
X133484128Y-88986500D02*
G75*
G03*
X133639800Y-88830851I-28J155700D01*
G01*
X133639777Y-88830851D02*
G75*
G02*
X133795426Y-88675277I155623J-49D01*
G01*
X134029530Y-95423500D02*
X134050000Y-95423500D01*
X133953530Y-95423500D02*
X134029530Y-95423500D01*
X134050000Y-95423500D02*
X134725000Y-95423500D01*
X133573530Y-95099234D02*
X133649530Y-95099234D01*
X133421530Y-95271500D02*
X133421530Y-95251234D01*
X131116000Y-95423500D02*
X133269530Y-95423500D01*
X136590000Y-93558500D02*
X138956000Y-93558500D01*
X133801530Y-95251234D02*
X133801530Y-95271500D01*
X134725000Y-95423500D02*
X136590000Y-93558500D01*
X133421530Y-95251234D02*
G75*
G02*
X133573530Y-95099230I151970J34D01*
G01*
X133649530Y-95099234D02*
G75*
G02*
X133801466Y-95251234I-30J-151966D01*
G01*
X133269530Y-95423500D02*
G75*
G03*
X133421500Y-95271500I-30J152000D01*
G01*
X133801530Y-95271500D02*
G75*
G03*
X133953530Y-95423470I151970J0D01*
G01*
X134902016Y-91526500D02*
X135102591Y-91526500D01*
X138114000Y-91780500D02*
X138956000Y-91780500D01*
X137860000Y-91526500D02*
X138114000Y-91780500D01*
X134107591Y-91526500D02*
X134107591Y-91720925D01*
X131116000Y-91526500D02*
X133302591Y-91526500D01*
X133691453Y-91137638D02*
X133913160Y-91137638D01*
X135193000Y-91526500D02*
X137860000Y-91526500D01*
X135102591Y-91526500D02*
X135193000Y-91526500D01*
X134107591Y-91332069D02*
X134107591Y-91526500D01*
X134302016Y-91915350D02*
X134513166Y-91915350D01*
X134707591Y-91720925D02*
G75*
G02*
X134902016Y-91526491I194409J25D01*
G01*
X134513166Y-91915350D02*
G75*
G03*
X134707650Y-91720925I34J194450D01*
G01*
X133497022Y-91332069D02*
G75*
G02*
X133691453Y-91137622I194478J-31D01*
G01*
X133302591Y-91526500D02*
G75*
G03*
X133497000Y-91332069I9J194400D01*
G01*
X134107591Y-91720925D02*
G75*
G03*
X134302016Y-91915309I194409J25D01*
G01*
X133913160Y-91137638D02*
G75*
G02*
X134107662Y-91332069I40J-194462D01*
G01*
X134326291Y-81110378D02*
X134326291Y-81122500D01*
X134570291Y-81366500D02*
X134692291Y-81366500D01*
X131116000Y-81366500D02*
X133472291Y-81366500D01*
X136844000Y-81366500D02*
X138241000Y-82763500D01*
X134958241Y-81366500D02*
X136844000Y-81366500D01*
X134692291Y-81366500D02*
X134958241Y-81366500D01*
X138241000Y-82763500D02*
X138956000Y-82763500D01*
X133716291Y-81122500D02*
X133716291Y-81110378D01*
X131356000Y-81493500D02*
X131356000Y-81453500D01*
X133960291Y-80866378D02*
X134082291Y-80866378D01*
X134326291Y-81122500D02*
G75*
G03*
X134570291Y-81366509I244009J0D01*
G01*
X133472291Y-81366500D02*
G75*
G03*
X133716300Y-81122500I9J244000D01*
G01*
X134082291Y-80866378D02*
G75*
G02*
X134326322Y-81110378I9J-244022D01*
G01*
X133716291Y-81110378D02*
G75*
G02*
X133960291Y-80866391I244009J-22D01*
G01*
X126816000Y-98876000D02*
X128473200Y-100533200D01*
X128473200Y-100533200D02*
X137591800Y-100533200D01*
X126816000Y-98103500D02*
X126816000Y-98876000D01*
X139892000Y-98233000D02*
X139892000Y-81794500D01*
X137591800Y-100533200D02*
X139892000Y-98233000D01*
X139892000Y-81794500D02*
X138956000Y-80858500D01*
X111116000Y-97273000D02*
X111116000Y-91830000D01*
X125603000Y-109601000D02*
X125476000Y-109474000D01*
X125603000Y-110363000D02*
X125603000Y-109601000D01*
X111116000Y-91830000D02*
X112602500Y-90343500D01*
X112602500Y-90343500D02*
X113376000Y-90343500D01*
X125476000Y-109474000D02*
X123317000Y-109474000D01*
X123317000Y-109474000D02*
X111116000Y-97273000D01*
X112602500Y-89073500D02*
X113376000Y-89073500D01*
X110788000Y-97453000D02*
X110788000Y-90888000D01*
X121539000Y-110363000D02*
X121539000Y-108204000D01*
X121539000Y-108204000D02*
X110788000Y-97453000D01*
X110788000Y-90888000D02*
X112602500Y-89073500D01*
X111444000Y-93876000D02*
X112436500Y-92883500D01*
X112436500Y-92883500D02*
X113376000Y-92883500D01*
X123481552Y-109106500D02*
X111444000Y-97068948D01*
X129667000Y-110363000D02*
X129667000Y-109601000D01*
X111444000Y-97068948D02*
X111444000Y-93876000D01*
X129172500Y-109106500D02*
X123481552Y-109106500D01*
X129667000Y-109601000D02*
X129172500Y-109106500D01*
X132909500Y-108779500D02*
X133731000Y-109601000D01*
X133731000Y-109601000D02*
X133731000Y-110363000D01*
X111825000Y-94828500D02*
X112500000Y-94153500D01*
X112500000Y-94153500D02*
X113376000Y-94153500D01*
X123617000Y-108779500D02*
X111825000Y-96987500D01*
X111825000Y-96987500D02*
X111825000Y-94828500D01*
X132909500Y-108779500D02*
X123617000Y-108779500D01*
X134876806Y-97663000D02*
X134114806Y-98425000D01*
X166176000Y-93833685D02*
X166152500Y-93857185D01*
X142875000Y-95758000D02*
X163446419Y-95758000D01*
X138176000Y-97663000D02*
X134876806Y-97663000D01*
X130683000Y-98425000D02*
X123784500Y-91526500D01*
X123784500Y-91526500D02*
X113616000Y-91526500D01*
X165347234Y-93857185D02*
X166152500Y-93857185D01*
X134114806Y-98425000D02*
X130683000Y-98425000D01*
X163446419Y-95758000D02*
X165347234Y-93857185D01*
X108265000Y-98298000D02*
X106106000Y-98298000D01*
X106106000Y-98298000D02*
X105090000Y-99314000D01*
X105090000Y-99314000D02*
X105090000Y-100582000D01*
X98111602Y-101346000D02*
X98679000Y-101913398D01*
X94164800Y-98806000D02*
X92336000Y-98806000D01*
X99134000Y-103579000D02*
X99822000Y-103579000D01*
X96704800Y-101346000D02*
X94164800Y-98806000D01*
X97536000Y-101346000D02*
X96704800Y-101346000D01*
X98679000Y-103124000D02*
X99134000Y-103579000D01*
X97536000Y-101346000D02*
X98111602Y-101346000D01*
X92336000Y-98806000D02*
X92336000Y-98171000D01*
X98679000Y-101913398D02*
X98679000Y-103124000D01*
X104206000Y-99182000D02*
X103820000Y-99568000D01*
X103820000Y-99568000D02*
X103820000Y-100582000D01*
X104206000Y-98298000D02*
X104206000Y-99182000D01*
X102042000Y-98298000D02*
X104206000Y-98298000D01*
X160285000Y-105823500D02*
X160285000Y-111203052D01*
X164911000Y-114326991D02*
X164470491Y-114767500D01*
X161863000Y-114767500D02*
X161609000Y-114513500D01*
X158434000Y-103972500D02*
X160285000Y-105823500D01*
X155956000Y-105867200D02*
X155956000Y-105812500D01*
X155956000Y-105812500D02*
X155956000Y-104149184D01*
X136336000Y-108036500D02*
X137860000Y-109560500D01*
X157226000Y-105877500D02*
X155966300Y-105877500D01*
X136336000Y-107528500D02*
X136336000Y-108036500D01*
X155956000Y-104149184D02*
X156132684Y-103972500D01*
X153100000Y-109560500D02*
X155956000Y-106704500D01*
X155966300Y-105877500D02*
X155956000Y-105867200D01*
X155956000Y-106704500D02*
X155956000Y-105867200D01*
X164470491Y-114767500D02*
X161863000Y-114767500D01*
X128086000Y-98876000D02*
X128086000Y-97943500D01*
X160285000Y-111203052D02*
X161617448Y-112535500D01*
X161609000Y-114513500D02*
X161609000Y-113878500D01*
X133985000Y-99949000D02*
X129159000Y-99949000D01*
X156132684Y-103972500D02*
X158434000Y-103972500D01*
X161617448Y-112535500D02*
X164330000Y-112535500D01*
X137860000Y-109560500D02*
X153100000Y-109560500D01*
X164330000Y-112535500D02*
X164911000Y-113116500D01*
X129159000Y-99949000D02*
X128086000Y-98876000D01*
X164911000Y-113116500D02*
X164911000Y-114326991D01*
X108077000Y-108966000D02*
X108077000Y-106177000D01*
X107694000Y-116586000D02*
X109984000Y-116586000D01*
X108331000Y-100965000D02*
X108331000Y-101780000D01*
X106995000Y-102108000D02*
X106360000Y-101473000D01*
X106360000Y-101473000D02*
X106360000Y-100582000D01*
X107948000Y-100582000D02*
X108331000Y-100965000D01*
X106360000Y-100582000D02*
X107948000Y-100582000D01*
X106995000Y-105095000D02*
X106995000Y-102108000D01*
X107694000Y-109349000D02*
X108077000Y-108966000D01*
X107694000Y-116586000D02*
X107694000Y-109349000D01*
X108077000Y-106177000D02*
X106995000Y-105095000D01*
X129667000Y-107823000D02*
X134217500Y-107823000D01*
X134217500Y-107823000D02*
X137098000Y-110703500D01*
X137098000Y-110703500D02*
X159958000Y-110703500D01*
X110132000Y-97724724D02*
X110132000Y-88901500D01*
X159958000Y-110559790D02*
X159941290Y-110576500D01*
X158434000Y-104607500D02*
X159958000Y-106131500D01*
X119233000Y-107422000D02*
X119233000Y-106825724D01*
X159958000Y-111338500D02*
X161482000Y-112862500D01*
X120396000Y-107823000D02*
X119634000Y-107823000D01*
X164149000Y-113116500D02*
X164149000Y-113878500D01*
X161482000Y-112862500D02*
X163895000Y-112862500D01*
X110132000Y-88901500D02*
X112500000Y-86533500D01*
X163895000Y-112862500D02*
X164149000Y-113116500D01*
X159958000Y-106131500D02*
X159958000Y-110559790D01*
X119634000Y-107823000D02*
X119233000Y-107422000D01*
X119233000Y-106825724D02*
X110132000Y-97724724D01*
X157226000Y-104607500D02*
X158434000Y-104607500D01*
X159958000Y-110559790D02*
X159958000Y-111338500D01*
X112500000Y-86533500D02*
X113616000Y-86533500D01*
X92336000Y-102616000D02*
X93453600Y-102616000D01*
X133096000Y-84668500D02*
X132501000Y-85263500D01*
X132501000Y-85263500D02*
X131116000Y-85263500D01*
X84074000Y-106426000D02*
X84266000Y-106618000D01*
X113616000Y-85176500D02*
X112308500Y-85176500D01*
X94003500Y-91948000D02*
X94003500Y-93020500D01*
X112308500Y-85176500D02*
X112268000Y-85217000D01*
X94003500Y-93020500D02*
X93980000Y-93044000D01*
X113616000Y-85176500D02*
X113616000Y-85263500D01*
X84266000Y-106618000D02*
X84266000Y-107528500D01*
X99996000Y-91948000D02*
X101092000Y-91948000D01*
X113575500Y-95377000D02*
X113616000Y-95336500D01*
X102743000Y-101854000D02*
X102743000Y-104521000D01*
X99996000Y-99107000D02*
X102743000Y-101854000D01*
X103251000Y-105029000D02*
X104521000Y-105029000D01*
X112352000Y-95377000D02*
X113575500Y-95377000D01*
X102743000Y-104521000D02*
X103251000Y-105029000D01*
X104521000Y-105029000D02*
X105090000Y-104460000D01*
X105090000Y-104460000D02*
X105090000Y-103632000D01*
X99996000Y-91948000D02*
X99996000Y-99107000D01*
X122533500Y-106680000D02*
X131059943Y-106680000D01*
X158815000Y-107147500D02*
X159196000Y-107528500D01*
X168213000Y-114767500D02*
X167959000Y-114513500D01*
X157226000Y-107147500D02*
X158815000Y-107147500D01*
X117926000Y-97943500D02*
X117926000Y-102072500D01*
X134325500Y-106661000D02*
X137606000Y-109941500D01*
X153227000Y-109941500D02*
X156021000Y-107147500D01*
X131078943Y-106661000D02*
X134325500Y-106661000D01*
X159196000Y-107528500D02*
X159196000Y-108796210D01*
X171261000Y-113116500D02*
X171261000Y-114390491D01*
X170883991Y-114767500D02*
X168213000Y-114767500D01*
X131059943Y-106680000D02*
X131078943Y-106661000D01*
X137606000Y-109941500D02*
X153227000Y-109941500D01*
X164840290Y-111900500D02*
X170045000Y-111900500D01*
X171261000Y-114390491D02*
X170883991Y-114767500D01*
X161736000Y-108796210D02*
X164840290Y-111900500D01*
X167959000Y-114513500D02*
X167959000Y-113878500D01*
X170045000Y-111900500D02*
X171261000Y-113116500D01*
X117926000Y-102072500D02*
X122533500Y-106680000D01*
X156021000Y-107147500D02*
X157226000Y-107147500D01*
X158031000Y-110049500D02*
X157226000Y-109244500D01*
X169610000Y-112227500D02*
X170499000Y-113116500D01*
X164484448Y-112227500D02*
X169610000Y-112227500D01*
X156148000Y-110322500D02*
X157226000Y-109244500D01*
X110460000Y-97588862D02*
X110460000Y-89081500D01*
X163876000Y-112208500D02*
X164465448Y-112208500D01*
X170499000Y-113116500D02*
X170499000Y-113878500D01*
X159196000Y-110049500D02*
X158031000Y-110049500D01*
X119761000Y-107188000D02*
X119761000Y-106889862D01*
X130304434Y-107207000D02*
X130323434Y-107188000D01*
X134217500Y-107188000D02*
X137352000Y-110322500D01*
X137352000Y-110322500D02*
X156148000Y-110322500D01*
X123317000Y-107207000D02*
X130304434Y-107207000D01*
X161736000Y-110068500D02*
X163876000Y-112208500D01*
X119761000Y-106889862D02*
X110460000Y-97588862D01*
X157226000Y-109244500D02*
X157226000Y-108417500D01*
X164465448Y-112208500D02*
X164484448Y-112227500D01*
X130323434Y-107188000D02*
X134217500Y-107188000D01*
X111738000Y-87803500D02*
X113616000Y-87803500D01*
X110460000Y-89081500D02*
X111738000Y-87803500D01*
X132526000Y-83525500D02*
X132058000Y-83993500D01*
X132058000Y-83993500D02*
X131116000Y-83993500D01*
X132526000Y-83398500D02*
X132526000Y-83525500D01*
X98686000Y-100711000D02*
X97536000Y-100711000D01*
X92075000Y-88212000D02*
X92075000Y-89027000D01*
X90297000Y-90805000D02*
X90297000Y-92202000D01*
X96200000Y-86553000D02*
X96200000Y-85460000D01*
X94541000Y-88212000D02*
X96200000Y-86553000D01*
X92075000Y-89027000D02*
X90297000Y-90805000D01*
X92075000Y-88212000D02*
X94541000Y-88212000D01*
X90043000Y-89027000D02*
X88392000Y-90678000D01*
X93218000Y-87376000D02*
X94300000Y-86294000D01*
X90043000Y-88212000D02*
X90043000Y-89027000D01*
X91540500Y-87376000D02*
X93218000Y-87376000D01*
X88392000Y-90678000D02*
X88392000Y-92202000D01*
X94300000Y-86294000D02*
X94300000Y-85460000D01*
X90704500Y-88212000D02*
X91540500Y-87376000D01*
X90043000Y-88212000D02*
X90704500Y-88212000D01*
X91536000Y-101981000D02*
X91186000Y-102331000D01*
X91186000Y-102331000D02*
X91186000Y-104470200D01*
X92336000Y-101981000D02*
X91536000Y-101981000D01*
X92336000Y-97536000D02*
X91536000Y-97536000D01*
X89408000Y-94361000D02*
X89074000Y-94027000D01*
X89408000Y-95408000D02*
X89408000Y-94361000D01*
X91536000Y-97536000D02*
X89408000Y-95408000D01*
X89074000Y-94027000D02*
X88392000Y-94027000D01*
X92010189Y-94243360D02*
X92066757Y-94299928D01*
X92336000Y-95384000D02*
X92336000Y-96901000D01*
X90297000Y-94027000D02*
X90979000Y-94027000D01*
X91659340Y-94933615D02*
X91478200Y-95114755D01*
X91602774Y-94424500D02*
X91783915Y-94243360D01*
X92066757Y-94526202D02*
X91885615Y-94707341D01*
X90979000Y-94027000D02*
X91376500Y-94424500D01*
X92168456Y-95216456D02*
X92225026Y-95273026D01*
X91885615Y-94707341D02*
X91659340Y-94933615D01*
X92225026Y-95273026D02*
X92336000Y-95384000D01*
X91761042Y-95397597D02*
X91942182Y-95216456D01*
X91478200Y-95341029D02*
X91534768Y-95397597D01*
X91534768Y-95397597D02*
G75*
G03*
X91761042Y-95397597I113137J113137D01*
G01*
X91942182Y-95216456D02*
G75*
G02*
X92168456Y-95216456I113137J-113137D01*
G01*
X91376500Y-94424500D02*
G75*
G03*
X91602774Y-94424500I113137J113137D01*
G01*
X91478200Y-95114755D02*
G75*
G03*
X91478192Y-95341037I113100J-113145D01*
G01*
X91783915Y-94243360D02*
G75*
G02*
X92010189Y-94243360I113137J-113137D01*
G01*
X92066757Y-94299928D02*
G75*
G02*
X92066792Y-94526237I-113157J-113172D01*
G01*
X162498000Y-119696000D02*
X162498000Y-120988500D01*
X164149000Y-115703500D02*
X164149000Y-116418500D01*
X164149000Y-116418500D02*
X163768000Y-116799500D01*
X163768000Y-118426000D02*
X162498000Y-119696000D01*
X163768000Y-116799500D02*
X163768000Y-118426000D01*
X161609000Y-116418500D02*
X160974000Y-117053500D01*
X161609000Y-115703500D02*
X161609000Y-116418500D01*
X160974000Y-117053500D02*
X160974000Y-123255000D01*
X160974000Y-123255000D02*
X161247500Y-123528500D01*
X161247500Y-123528500D02*
X162498000Y-123528500D01*
X167324000Y-117053500D02*
X167324000Y-123382000D01*
X167470500Y-123528500D02*
X168848000Y-123528500D01*
X167959000Y-115703500D02*
X167959000Y-116418500D01*
X167324000Y-123382000D02*
X167470500Y-123528500D01*
X167959000Y-116418500D02*
X167324000Y-117053500D01*
X170118000Y-116799500D02*
X170118000Y-118426000D01*
X170499000Y-116418500D02*
X170118000Y-116799500D01*
X170118000Y-118426000D02*
X168848000Y-119696000D01*
X170499000Y-115703500D02*
X170499000Y-116418500D01*
X168848000Y-119696000D02*
X168848000Y-120988500D01*
D11*
X194287500Y-119911500D02*
X193361000Y-120838000D01*
X199899000Y-117983000D02*
X200520500Y-118604500D01*
X194287500Y-118260500D02*
X194565000Y-117983000D01*
X205732312Y-123103688D02*
X203286312Y-123103688D01*
X197359000Y-120396000D02*
X197821500Y-119933500D01*
X194565000Y-117983000D02*
X199899000Y-117983000D01*
X200520500Y-118604500D02*
X200520500Y-119933500D01*
X193361000Y-120838000D02*
X193361000Y-121871500D01*
X198950353Y-123122647D02*
X197359000Y-121531294D01*
X194287500Y-118999000D02*
X194287500Y-118260500D01*
X197821500Y-119933500D02*
X200520500Y-119933500D01*
X201549000Y-124841000D02*
X199788500Y-124841000D01*
X205740000Y-123096000D02*
X205732312Y-123103688D01*
X194287500Y-118999000D02*
X194287500Y-119911500D01*
X197359000Y-121531294D02*
X197359000Y-120396000D01*
X199788500Y-124841000D02*
X198950353Y-124002853D01*
X203286312Y-123103688D02*
X201549000Y-124841000D01*
X198950353Y-124002853D02*
X198950353Y-123122647D01*
X180351500Y-119908500D02*
X179864000Y-120396000D01*
X182977000Y-118683000D02*
X182977000Y-119908500D01*
X182277000Y-117983000D02*
X182977000Y-118683000D01*
X177070000Y-117983000D02*
X182277000Y-117983000D01*
X175866000Y-121871500D02*
X175866000Y-120838000D01*
X187165000Y-123096000D02*
X188279000Y-123096000D01*
X181356000Y-123952000D02*
X182245000Y-124841000D01*
X181356000Y-123031000D02*
X181356000Y-123952000D01*
X179864000Y-120396000D02*
X179864000Y-121539000D01*
X185420000Y-124841000D02*
X187165000Y-123096000D01*
X176792500Y-118999000D02*
X176792500Y-118260500D01*
X179864000Y-121539000D02*
X181356000Y-123031000D01*
X176792500Y-119911500D02*
X176792500Y-118999000D01*
X176792500Y-118260500D02*
X177070000Y-117983000D01*
X182977000Y-119908500D02*
X180351500Y-119908500D01*
X182245000Y-124841000D02*
X185420000Y-124841000D01*
X175866000Y-120838000D02*
X176792500Y-119911500D01*
X198313000Y-101133000D02*
X195794000Y-101133000D01*
X197359000Y-106045000D02*
X200406000Y-106045000D01*
X196851000Y-105537000D02*
X197359000Y-106045000D01*
X192128500Y-100203000D02*
X192128500Y-100988500D01*
X191202000Y-101915000D02*
X191202000Y-103075500D01*
X195794000Y-101133000D02*
X195200000Y-101727000D01*
X195200000Y-102528457D02*
X196851000Y-104179457D01*
X192128500Y-99464500D02*
X192406000Y-99187000D01*
X202405000Y-104046000D02*
X203581000Y-104046000D01*
X197486000Y-99187000D02*
X198313000Y-100014000D01*
X192128500Y-100203000D02*
X192128500Y-99464500D01*
X196851000Y-104179457D02*
X196851000Y-105537000D01*
X192128500Y-100988500D02*
X191202000Y-101915000D01*
X195200000Y-101727000D02*
X195200000Y-102528457D01*
X200406000Y-106045000D02*
X202405000Y-104046000D01*
X192406000Y-99187000D02*
X197486000Y-99187000D01*
X198313000Y-100014000D02*
X198313000Y-101133000D01*
D10*
X90626000Y-80161200D02*
X91567000Y-81102200D01*
X91567000Y-81102200D02*
X95072200Y-81102200D01*
X95072200Y-81102200D02*
X96200000Y-82230000D01*
X96200000Y-82230000D02*
X96200000Y-83185000D01*
X90626000Y-79588500D02*
X90626000Y-80161200D01*
X84266000Y-112608500D02*
X84266000Y-109353500D01*
X79059000Y-108798500D02*
X77916000Y-108798500D01*
X79614000Y-109353500D02*
X79059000Y-108798500D01*
X84266000Y-109353500D02*
X79614000Y-109353500D01*
D11*
X188295200Y-84582000D02*
X191617600Y-84582000D01*
X195236000Y-80963600D02*
X195236000Y-77693000D01*
D10*
X186740800Y-89854900D02*
X172313600Y-89854900D01*
D11*
X191617600Y-84582000D02*
X195236000Y-80963600D01*
X186749815Y-88036400D02*
X186749815Y-87519385D01*
D10*
X172313600Y-89854900D02*
X171856400Y-90312100D01*
D11*
X186749815Y-92841184D02*
X186667499Y-92923500D01*
X186749815Y-88036400D02*
X186749815Y-92841184D01*
X188295200Y-85974000D02*
X188295200Y-84582000D01*
D10*
X171856400Y-90312100D02*
X171856400Y-91044100D01*
D11*
X186749815Y-87519385D02*
X188295200Y-85974000D01*
D10*
X113616000Y-83906500D02*
X112562500Y-83906500D01*
X99261000Y-90985000D02*
X99261000Y-98835862D01*
X112014000Y-84455000D02*
X106299000Y-84455000D01*
X105410000Y-105410000D02*
X106360000Y-104460000D01*
X112562500Y-83906500D02*
X112014000Y-84455000D01*
X99261000Y-98835862D02*
X102362000Y-101936862D01*
X99996000Y-88472000D02*
X99996000Y-89154000D01*
X103886000Y-86868000D02*
X101600000Y-86868000D01*
X103124000Y-105410000D02*
X105410000Y-105410000D01*
X99996000Y-89154000D02*
X99996000Y-90250000D01*
X102362000Y-104648000D02*
X103124000Y-105410000D01*
X101600000Y-86868000D02*
X99996000Y-88472000D01*
X106360000Y-104460000D02*
X106360000Y-103632000D01*
X99996000Y-90250000D02*
X99261000Y-90985000D01*
X102362000Y-101936862D02*
X102362000Y-104648000D01*
X106299000Y-84455000D02*
X103886000Y-86868000D01*
X111379000Y-113411000D02*
X111379000Y-111760000D01*
X113284000Y-115316000D02*
X111379000Y-113411000D01*
X113284000Y-116586000D02*
X113284000Y-115316000D01*
X169037000Y-100457000D02*
X168191000Y-100457000D01*
X170586400Y-92344100D02*
X169392600Y-93537900D01*
X169392600Y-93537900D02*
X169392600Y-100101400D01*
X169392600Y-100101400D02*
X169037000Y-100457000D01*
X171856400Y-92344100D02*
X170586400Y-92344100D01*
X203775000Y-109474000D02*
X202438000Y-109474000D01*
X195149500Y-109347000D02*
X195071000Y-109268500D01*
X196088000Y-109347000D02*
X195149500Y-109347000D01*
X195892000Y-115268500D02*
X195071000Y-115268500D01*
X203775000Y-113665000D02*
X202565000Y-113665000D01*
X177929000Y-109347000D02*
X177850500Y-109268500D01*
X178816000Y-109347000D02*
X177929000Y-109347000D01*
X186757000Y-109474000D02*
X185420000Y-109474000D01*
X186757000Y-113665000D02*
X185420000Y-113665000D01*
X178816000Y-115316000D02*
X177898000Y-115316000D01*
X177898000Y-115316000D02*
X177850500Y-115268500D01*
X170607200Y-93644100D02*
X171750200Y-93644100D01*
X169037000Y-102616000D02*
X168068000Y-102616000D01*
X170027600Y-97703500D02*
X170027600Y-101625400D01*
X170027600Y-94223700D02*
X170607200Y-93644100D01*
X171778499Y-97790000D02*
X170114100Y-97790000D01*
X170114100Y-97790000D02*
X170027600Y-97703500D01*
X170027600Y-97703500D02*
X170027600Y-94223700D01*
X170027600Y-101625400D02*
X169037000Y-102616000D01*
G04 #@! TA.AperFunction,Conductor*
G36*
X102677000Y-95504000D02*
G01*
X107757000Y-95504000D01*
X107757000Y-95377000D01*
X107757001Y-95377000D01*
X109436000Y-95377000D01*
X109494191Y-95395907D01*
X109530155Y-95445407D01*
X109535000Y-95476000D01*
X109535000Y-99596000D01*
X109516093Y-99654191D01*
X109466593Y-99690155D01*
X109436000Y-99695000D01*
X105852000Y-99695000D01*
X105852000Y-99695001D01*
X105852000Y-102517000D01*
X105833093Y-102575191D01*
X105783593Y-102611155D01*
X105753000Y-102616000D01*
X104582000Y-102616000D01*
X104596886Y-104456865D01*
X104578450Y-104515207D01*
X104571143Y-104524260D01*
X104372659Y-104742594D01*
X104319526Y-104772934D01*
X104299405Y-104775000D01*
X103419920Y-104775000D01*
X103361729Y-104756093D01*
X103348827Y-104744897D01*
X103085907Y-104473596D01*
X103058988Y-104418650D01*
X103058000Y-104404699D01*
X103058000Y-103782001D01*
X103355000Y-103782001D01*
X103355000Y-104203460D01*
X103361375Y-104251886D01*
X103361375Y-104251887D01*
X103410928Y-104358152D01*
X103493847Y-104441071D01*
X103600113Y-104490624D01*
X103648539Y-104496999D01*
X103648542Y-104497000D01*
X103669999Y-104497000D01*
X103670000Y-104496999D01*
X103670000Y-103782001D01*
X103970000Y-103782001D01*
X103970000Y-104496999D01*
X103970001Y-104497000D01*
X103991458Y-104497000D01*
X103991460Y-104496999D01*
X104039886Y-104490624D01*
X104039887Y-104490624D01*
X104146152Y-104441071D01*
X104229071Y-104358152D01*
X104278624Y-104251887D01*
X104278624Y-104251886D01*
X104284999Y-104203460D01*
X104285000Y-104203457D01*
X104285000Y-103782001D01*
X104284999Y-103782000D01*
X103970001Y-103782000D01*
X103970000Y-103782001D01*
X103670000Y-103782001D01*
X103669999Y-103782000D01*
X103355001Y-103782000D01*
X103355000Y-103782001D01*
X103058000Y-103782001D01*
X103058000Y-103060539D01*
X103355000Y-103060539D01*
X103355000Y-103481999D01*
X103355001Y-103482000D01*
X103669999Y-103482000D01*
X103670000Y-103481999D01*
X103670000Y-102767001D01*
X103970000Y-102767001D01*
X103970000Y-103481999D01*
X103970001Y-103482000D01*
X104284999Y-103482000D01*
X104285000Y-103481999D01*
X104285000Y-103060542D01*
X104284999Y-103060539D01*
X104278624Y-103012113D01*
X104278624Y-103012112D01*
X104229071Y-102905847D01*
X104146152Y-102822928D01*
X104039886Y-102773375D01*
X103991460Y-102767000D01*
X103970001Y-102767000D01*
X103970000Y-102767001D01*
X103670000Y-102767001D01*
X103669999Y-102767000D01*
X103648539Y-102767000D01*
X103600113Y-102773375D01*
X103600112Y-102773375D01*
X103493847Y-102822928D01*
X103410928Y-102905847D01*
X103361375Y-103012112D01*
X103361375Y-103012113D01*
X103355000Y-103060539D01*
X103058000Y-103060539D01*
X103058000Y-100584001D01*
X103058000Y-100584000D01*
X103057999Y-100584000D01*
X101835742Y-100584000D01*
X101777551Y-100565093D01*
X101765738Y-100555004D01*
X100800996Y-99590262D01*
X100773219Y-99535745D01*
X100772000Y-99520258D01*
X100772000Y-97945233D01*
X101366500Y-97945233D01*
X101366500Y-98650766D01*
X101369274Y-98680344D01*
X101369276Y-98680352D01*
X101412884Y-98804976D01*
X101467885Y-98879500D01*
X101491289Y-98911211D01*
X101491292Y-98911213D01*
X101491293Y-98911214D01*
X101597523Y-98989615D01*
X101597524Y-98989615D01*
X101597525Y-98989616D01*
X101722151Y-99033225D01*
X101749441Y-99035784D01*
X101751733Y-99035999D01*
X101751738Y-99036000D01*
X101751744Y-99036000D01*
X102332262Y-99036000D01*
X102332265Y-99035999D01*
X102361849Y-99033225D01*
X102486475Y-98989616D01*
X102592711Y-98911211D01*
X102671116Y-98804975D01*
X102714725Y-98680349D01*
X102717500Y-98650756D01*
X102717500Y-98624500D01*
X102736407Y-98566309D01*
X102785907Y-98530345D01*
X102816500Y-98525500D01*
X103475868Y-98525500D01*
X103534059Y-98544407D01*
X103567332Y-98586614D01*
X103585224Y-98629810D01*
X103599220Y-98650756D01*
X103661886Y-98744542D01*
X103759458Y-98842114D01*
X103815410Y-98879500D01*
X103874182Y-98918771D01*
X103874186Y-98918773D01*
X103874189Y-98918775D01*
X103917385Y-98936667D01*
X103937830Y-98954127D01*
X103959593Y-98969939D01*
X103960840Y-98973778D01*
X103963910Y-98976400D01*
X103978500Y-99028130D01*
X103978500Y-99046759D01*
X103959593Y-99104950D01*
X103949504Y-99116763D01*
X103691132Y-99375135D01*
X103691131Y-99375134D01*
X103627138Y-99439128D01*
X103627136Y-99439130D01*
X103627135Y-99439132D01*
X103593531Y-99520258D01*
X103592500Y-99522747D01*
X103592500Y-99663304D01*
X103573593Y-99721495D01*
X103535340Y-99753028D01*
X103493555Y-99772512D01*
X103493553Y-99772514D01*
X103410514Y-99855553D01*
X103360885Y-99961984D01*
X103354500Y-100010482D01*
X103354500Y-101153518D01*
X103360885Y-101202016D01*
X103410514Y-101308447D01*
X103493553Y-101391486D01*
X103599984Y-101441115D01*
X103648482Y-101447500D01*
X103648483Y-101447500D01*
X103991516Y-101447500D01*
X103991518Y-101447500D01*
X104040016Y-101441115D01*
X104146447Y-101391486D01*
X104229486Y-101308447D01*
X104279115Y-101202016D01*
X104285500Y-101153518D01*
X104285500Y-100010482D01*
X104624500Y-100010482D01*
X104624500Y-101153518D01*
X104630885Y-101202016D01*
X104680514Y-101308447D01*
X104763553Y-101391486D01*
X104869984Y-101441115D01*
X104918482Y-101447500D01*
X104918483Y-101447500D01*
X105261516Y-101447500D01*
X105261518Y-101447500D01*
X105310016Y-101441115D01*
X105416447Y-101391486D01*
X105499486Y-101308447D01*
X105549115Y-101202016D01*
X105555500Y-101153518D01*
X105555500Y-100010482D01*
X105549115Y-99961984D01*
X105499486Y-99855553D01*
X105416447Y-99772514D01*
X105416445Y-99772513D01*
X105416444Y-99772512D01*
X105374660Y-99753028D01*
X105329912Y-99711300D01*
X105317500Y-99663304D01*
X105317500Y-99449239D01*
X105336407Y-99391048D01*
X105346490Y-99379242D01*
X105750586Y-98975145D01*
X105805101Y-98947369D01*
X105858471Y-98953685D01*
X105901672Y-98971580D01*
X106037007Y-98998500D01*
X106037008Y-98998500D01*
X106174992Y-98998500D01*
X106174993Y-98998500D01*
X106310328Y-98971580D01*
X106437811Y-98918775D01*
X106552542Y-98842114D01*
X106650114Y-98744542D01*
X106726775Y-98629811D01*
X106744668Y-98586614D01*
X106784405Y-98540088D01*
X106836132Y-98525500D01*
X107490500Y-98525500D01*
X107548691Y-98544407D01*
X107584655Y-98593907D01*
X107589500Y-98624500D01*
X107589500Y-98650766D01*
X107592274Y-98680344D01*
X107592276Y-98680352D01*
X107635884Y-98804976D01*
X107690885Y-98879500D01*
X107714289Y-98911211D01*
X107714292Y-98911213D01*
X107714293Y-98911214D01*
X107820523Y-98989615D01*
X107820524Y-98989615D01*
X107820525Y-98989616D01*
X107945151Y-99033225D01*
X107972441Y-99035784D01*
X107974733Y-99035999D01*
X107974738Y-99036000D01*
X107974744Y-99036000D01*
X108555262Y-99036000D01*
X108555265Y-99035999D01*
X108584849Y-99033225D01*
X108709475Y-98989616D01*
X108815711Y-98911211D01*
X108894116Y-98804975D01*
X108937725Y-98680349D01*
X108940500Y-98650756D01*
X108940500Y-97945244D01*
X108940500Y-97945238D01*
X108940499Y-97945233D01*
X108937725Y-97915655D01*
X108937725Y-97915651D01*
X108894116Y-97791025D01*
X108866706Y-97753886D01*
X108815714Y-97684793D01*
X108815713Y-97684792D01*
X108815711Y-97684789D01*
X108815706Y-97684785D01*
X108709476Y-97606384D01*
X108584852Y-97562776D01*
X108584851Y-97562775D01*
X108584849Y-97562775D01*
X108584847Y-97562774D01*
X108584844Y-97562774D01*
X108555266Y-97560000D01*
X108555256Y-97560000D01*
X107974744Y-97560000D01*
X107974733Y-97560000D01*
X107945155Y-97562774D01*
X107945147Y-97562776D01*
X107820523Y-97606384D01*
X107714293Y-97684785D01*
X107714285Y-97684793D01*
X107635884Y-97791023D01*
X107592276Y-97915647D01*
X107592274Y-97915655D01*
X107589500Y-97945233D01*
X107589500Y-97971500D01*
X107570593Y-98029691D01*
X107521093Y-98065655D01*
X107490500Y-98070500D01*
X106836132Y-98070500D01*
X106777941Y-98051593D01*
X106744668Y-98009386D01*
X106726775Y-97966189D01*
X106712776Y-97945238D01*
X106650114Y-97851458D01*
X106552542Y-97753886D01*
X106552541Y-97753885D01*
X106437817Y-97677228D01*
X106437806Y-97677222D01*
X106310328Y-97624420D01*
X106174995Y-97597500D01*
X106174993Y-97597500D01*
X106037007Y-97597500D01*
X106037004Y-97597500D01*
X105901672Y-97624420D01*
X105901670Y-97624420D01*
X105774193Y-97677222D01*
X105774182Y-97677228D01*
X105659458Y-97753885D01*
X105561885Y-97851458D01*
X105485228Y-97966182D01*
X105485222Y-97966193D01*
X105432420Y-98093670D01*
X105432420Y-98093672D01*
X105405500Y-98229004D01*
X105405500Y-98366995D01*
X105432420Y-98502327D01*
X105432420Y-98502329D01*
X105450312Y-98545524D01*
X105455112Y-98606521D01*
X105428852Y-98653412D01*
X104961132Y-99121134D01*
X104897138Y-99185128D01*
X104897136Y-99185130D01*
X104897135Y-99185132D01*
X104897135Y-99185133D01*
X104862500Y-99268747D01*
X104862500Y-99663304D01*
X104843593Y-99721495D01*
X104805340Y-99753028D01*
X104763555Y-99772512D01*
X104763553Y-99772514D01*
X104680514Y-99855553D01*
X104630885Y-99961984D01*
X104624500Y-100010482D01*
X104285500Y-100010482D01*
X104279115Y-99961984D01*
X104229486Y-99855553D01*
X104146447Y-99772514D01*
X104146445Y-99772513D01*
X104146444Y-99772512D01*
X104131894Y-99765727D01*
X104087147Y-99723998D01*
X104075474Y-99663936D01*
X104101334Y-99608484D01*
X104103704Y-99606028D01*
X104398865Y-99310868D01*
X104429931Y-99235868D01*
X104433500Y-99227253D01*
X104433500Y-99028130D01*
X104452407Y-98969939D01*
X104494614Y-98936667D01*
X104537811Y-98918775D01*
X104652542Y-98842114D01*
X104750114Y-98744542D01*
X104826775Y-98629811D01*
X104879580Y-98502328D01*
X104906500Y-98366993D01*
X104906500Y-98229007D01*
X104879580Y-98093672D01*
X104826775Y-97966189D01*
X104826774Y-97966187D01*
X104826771Y-97966182D01*
X104750114Y-97851458D01*
X104652541Y-97753885D01*
X104537817Y-97677228D01*
X104537806Y-97677222D01*
X104410328Y-97624420D01*
X104274995Y-97597500D01*
X104274993Y-97597500D01*
X104137007Y-97597500D01*
X104137004Y-97597500D01*
X104001672Y-97624420D01*
X104001670Y-97624420D01*
X103874193Y-97677222D01*
X103874182Y-97677228D01*
X103759458Y-97753885D01*
X103661889Y-97851454D01*
X103661886Y-97851458D01*
X103585224Y-97966189D01*
X103567332Y-98009386D01*
X103527595Y-98055912D01*
X103475868Y-98070500D01*
X102816500Y-98070500D01*
X102758309Y-98051593D01*
X102722345Y-98002093D01*
X102717500Y-97971500D01*
X102717500Y-97945238D01*
X102717499Y-97945233D01*
X102714725Y-97915655D01*
X102714725Y-97915651D01*
X102671116Y-97791025D01*
X102643706Y-97753886D01*
X102592714Y-97684793D01*
X102592713Y-97684792D01*
X102592711Y-97684789D01*
X102592706Y-97684785D01*
X102486476Y-97606384D01*
X102361852Y-97562776D01*
X102361851Y-97562775D01*
X102361849Y-97562775D01*
X102361847Y-97562774D01*
X102361844Y-97562774D01*
X102332266Y-97560000D01*
X102332256Y-97560000D01*
X101751744Y-97560000D01*
X101751733Y-97560000D01*
X101722155Y-97562774D01*
X101722147Y-97562776D01*
X101597523Y-97606384D01*
X101491293Y-97684785D01*
X101491285Y-97684793D01*
X101412884Y-97791023D01*
X101369276Y-97915647D01*
X101369274Y-97915655D01*
X101366500Y-97945233D01*
X100772000Y-97945233D01*
X100772000Y-96723001D01*
X101367000Y-96723001D01*
X101367000Y-96925701D01*
X101369771Y-96955258D01*
X101369772Y-96955259D01*
X101413330Y-97079740D01*
X101491641Y-97185848D01*
X101491651Y-97185858D01*
X101597759Y-97264169D01*
X101722240Y-97307727D01*
X101722241Y-97307728D01*
X101751799Y-97310500D01*
X101891999Y-97310500D01*
X101892000Y-97310499D01*
X101892000Y-96723001D01*
X102192000Y-96723001D01*
X102192000Y-97310499D01*
X102192001Y-97310500D01*
X102332201Y-97310500D01*
X102361758Y-97307728D01*
X102361759Y-97307727D01*
X102486240Y-97264169D01*
X102592348Y-97185858D01*
X102592358Y-97185848D01*
X102670669Y-97079740D01*
X102714227Y-96955259D01*
X102714228Y-96955258D01*
X102717000Y-96925701D01*
X102717000Y-96723001D01*
X107590000Y-96723001D01*
X107590000Y-96925701D01*
X107592771Y-96955258D01*
X107592772Y-96955259D01*
X107636330Y-97079740D01*
X107714641Y-97185848D01*
X107714651Y-97185858D01*
X107820759Y-97264169D01*
X107945240Y-97307727D01*
X107945241Y-97307728D01*
X107974799Y-97310500D01*
X108114999Y-97310500D01*
X108115000Y-97310499D01*
X108115000Y-96723001D01*
X108415000Y-96723001D01*
X108415000Y-97310499D01*
X108415001Y-97310500D01*
X108555201Y-97310500D01*
X108584758Y-97307728D01*
X108584759Y-97307727D01*
X108709240Y-97264169D01*
X108815348Y-97185858D01*
X108815358Y-97185848D01*
X108893669Y-97079740D01*
X108937227Y-96955259D01*
X108937228Y-96955258D01*
X108940000Y-96925701D01*
X108940000Y-96723001D01*
X108939999Y-96723000D01*
X108415001Y-96723000D01*
X108415000Y-96723001D01*
X108115000Y-96723001D01*
X108114999Y-96723000D01*
X107590001Y-96723000D01*
X107590000Y-96723001D01*
X102717000Y-96723001D01*
X102716999Y-96723000D01*
X102192001Y-96723000D01*
X102192000Y-96723001D01*
X101892000Y-96723001D01*
X101891999Y-96723000D01*
X101367001Y-96723000D01*
X101367000Y-96723001D01*
X100772000Y-96723001D01*
X100772000Y-96220298D01*
X101367000Y-96220298D01*
X101367000Y-96422999D01*
X101367001Y-96423000D01*
X101891999Y-96423000D01*
X101892000Y-96422999D01*
X101892000Y-95835501D01*
X102192000Y-95835501D01*
X102192000Y-96422999D01*
X102192001Y-96423000D01*
X102716999Y-96423000D01*
X102717000Y-96422999D01*
X102717000Y-96220298D01*
X107590000Y-96220298D01*
X107590000Y-96422999D01*
X107590001Y-96423000D01*
X108114999Y-96423000D01*
X108115000Y-96422999D01*
X108115000Y-95835501D01*
X108415000Y-95835501D01*
X108415000Y-96422999D01*
X108415001Y-96423000D01*
X108939999Y-96423000D01*
X108940000Y-96422999D01*
X108940000Y-96220298D01*
X108937228Y-96190741D01*
X108937227Y-96190740D01*
X108893669Y-96066259D01*
X108815358Y-95960151D01*
X108815348Y-95960141D01*
X108709240Y-95881830D01*
X108584759Y-95838272D01*
X108584758Y-95838271D01*
X108555201Y-95835500D01*
X108415001Y-95835500D01*
X108415000Y-95835501D01*
X108115000Y-95835501D01*
X108114999Y-95835500D01*
X107974799Y-95835500D01*
X107945241Y-95838271D01*
X107945240Y-95838272D01*
X107820759Y-95881830D01*
X107714651Y-95960141D01*
X107714641Y-95960151D01*
X107636330Y-96066259D01*
X107592772Y-96190740D01*
X107592771Y-96190741D01*
X107590000Y-96220298D01*
X102717000Y-96220298D01*
X102714228Y-96190741D01*
X102714227Y-96190740D01*
X102670669Y-96066259D01*
X102592358Y-95960151D01*
X102592348Y-95960141D01*
X102486240Y-95881830D01*
X102361759Y-95838272D01*
X102361758Y-95838271D01*
X102332201Y-95835500D01*
X102192001Y-95835500D01*
X102192000Y-95835501D01*
X101892000Y-95835501D01*
X101891999Y-95835500D01*
X101751799Y-95835500D01*
X101722241Y-95838271D01*
X101722240Y-95838272D01*
X101597759Y-95881830D01*
X101491651Y-95960141D01*
X101491641Y-95960151D01*
X101413330Y-96066259D01*
X101369772Y-96190740D01*
X101369771Y-96190741D01*
X101367000Y-96220298D01*
X100772000Y-96220298D01*
X100772000Y-95476000D01*
X100790907Y-95417809D01*
X100840407Y-95381845D01*
X100871000Y-95377000D01*
X102676999Y-95377000D01*
X102677000Y-95377000D01*
X102677000Y-95504000D01*
G37*
G04 #@! TD.AperFunction*
G04 #@! TA.AperFunction,Conductor*
G36*
X107716191Y-87267907D02*
G01*
X107752155Y-87317407D01*
X107757000Y-87348000D01*
X107757000Y-95504000D01*
X102677000Y-95504000D01*
X102677000Y-87348000D01*
X102695907Y-87289809D01*
X102745407Y-87253845D01*
X102776000Y-87249000D01*
X107658000Y-87249000D01*
X107716191Y-87267907D01*
G37*
G04 #@! TD.AperFunction*
M02*
