G04 #@! TF.GenerationSoftware,KiCad,Pcbnew,9.0.2*
G04 #@! TF.CreationDate,2025-06-23T14:50:53+02:00*
G04 #@! TF.ProjectId,nTerm2-S FT231,6e546572-6d32-42d5-9320-46543233312e,0.10*
G04 #@! TF.SameCoordinates,Original*
G04 #@! TF.FileFunction,Paste,Top*
G04 #@! TF.FilePolarity,Positive*
%FSLAX46Y46*%
G04 Gerber Fmt 4.6, Leading zero omitted, Abs format (unit mm)*
G04 Created by KiCad (PCBNEW 9.0.2) date 2025-06-23 14:50:53*
%MOMM*%
%LPD*%
G01*
G04 APERTURE LIST*
G04 Aperture macros list*
%AMRoundRect*
0 Rectangle with rounded corners*
0 $1 Rounding radius*
0 $2 $3 $4 $5 $6 $7 $8 $9 X,Y pos of 4 corners*
0 Add a 4 corners polygon primitive as box body*
4,1,4,$2,$3,$4,$5,$6,$7,$8,$9,$2,$3,0*
0 Add four circle primitives for the rounded corners*
1,1,$1+$1,$2,$3*
1,1,$1+$1,$4,$5*
1,1,$1+$1,$6,$7*
1,1,$1+$1,$8,$9*
0 Add four rect primitives between the rounded corners*
20,1,$1+$1,$2,$3,$4,$5,0*
20,1,$1+$1,$4,$5,$6,$7,0*
20,1,$1+$1,$6,$7,$8,$9,0*
20,1,$1+$1,$8,$9,$2,$3,0*%
G04 Aperture macros list end*
%ADD10RoundRect,0.237500X-0.237500X0.250000X-0.237500X-0.250000X0.237500X-0.250000X0.237500X0.250000X0*%
%ADD11RoundRect,0.237500X-0.250000X-0.237500X0.250000X-0.237500X0.250000X0.237500X-0.250000X0.237500X0*%
%ADD12RoundRect,0.132500X0.132500X-0.532500X0.132500X0.532500X-0.132500X0.532500X-0.132500X-0.532500X0*%
%ADD13RoundRect,0.225000X-0.225000X-0.375000X0.225000X-0.375000X0.225000X0.375000X-0.225000X0.375000X0*%
%ADD14R,0.700000X2.000000*%
%ADD15R,1.500000X0.900000*%
%ADD16R,0.900000X1.500000*%
%ADD17R,1.050000X1.050000*%
%ADD18RoundRect,0.237500X0.237500X-0.250000X0.237500X0.250000X-0.237500X0.250000X-0.237500X-0.250000X0*%
%ADD19RoundRect,0.237500X-0.237500X0.300000X-0.237500X-0.300000X0.237500X-0.300000X0.237500X0.300000X0*%
%ADD20RoundRect,0.250000X0.550000X-1.500000X0.550000X1.500000X-0.550000X1.500000X-0.550000X-1.500000X0*%
%ADD21RoundRect,0.237500X0.237500X-0.300000X0.237500X0.300000X-0.237500X0.300000X-0.237500X-0.300000X0*%
%ADD22RoundRect,0.150000X-0.825000X-0.150000X0.825000X-0.150000X0.825000X0.150000X-0.825000X0.150000X0*%
%ADD23RoundRect,0.237500X0.250000X0.237500X-0.250000X0.237500X-0.250000X-0.237500X0.250000X-0.237500X0*%
%ADD24RoundRect,0.250000X-0.425000X0.537500X-0.425000X-0.537500X0.425000X-0.537500X0.425000X0.537500X0*%
%ADD25RoundRect,0.250000X0.425000X-0.537500X0.425000X0.537500X-0.425000X0.537500X-0.425000X-0.537500X0*%
%ADD26RoundRect,0.237500X0.300000X0.237500X-0.300000X0.237500X-0.300000X-0.237500X0.300000X-0.237500X0*%
%ADD27RoundRect,0.225000X0.225000X0.375000X-0.225000X0.375000X-0.225000X-0.375000X0.225000X-0.375000X0*%
%ADD28RoundRect,0.375000X-0.375000X0.625000X-0.375000X-0.625000X0.375000X-0.625000X0.375000X0.625000X0*%
%ADD29RoundRect,0.500000X-1.400000X0.500000X-1.400000X-0.500000X1.400000X-0.500000X1.400000X0.500000X0*%
%ADD30RoundRect,0.250000X0.875000X0.925000X-0.875000X0.925000X-0.875000X-0.925000X0.875000X-0.925000X0*%
%ADD31RoundRect,0.250000X1.025000X-0.875000X1.025000X0.875000X-1.025000X0.875000X-1.025000X-0.875000X0*%
%ADD32RoundRect,0.150000X-0.587500X-0.150000X0.587500X-0.150000X0.587500X0.150000X-0.587500X0.150000X0*%
%ADD33RoundRect,0.237500X-0.300000X-0.237500X0.300000X-0.237500X0.300000X0.237500X-0.300000X0.237500X0*%
%ADD34RoundRect,0.150000X-0.150000X0.587500X-0.150000X-0.587500X0.150000X-0.587500X0.150000X0.587500X0*%
%ADD35RoundRect,0.150000X0.587500X0.150000X-0.587500X0.150000X-0.587500X-0.150000X0.587500X-0.150000X0*%
%ADD36RoundRect,0.250001X0.924999X-0.499999X0.924999X0.499999X-0.924999X0.499999X-0.924999X-0.499999X0*%
%ADD37RoundRect,0.150000X0.150000X-0.512500X0.150000X0.512500X-0.150000X0.512500X-0.150000X-0.512500X0*%
%ADD38RoundRect,0.250000X-1.250000X-0.550000X1.250000X-0.550000X1.250000X0.550000X-1.250000X0.550000X0*%
%ADD39RoundRect,0.250000X-1.500000X-0.550000X1.500000X-0.550000X1.500000X0.550000X-1.500000X0.550000X0*%
%ADD40RoundRect,0.250000X-0.337500X-0.475000X0.337500X-0.475000X0.337500X0.475000X-0.337500X0.475000X0*%
%ADD41RoundRect,0.250000X0.537500X0.425000X-0.537500X0.425000X-0.537500X-0.425000X0.537500X-0.425000X0*%
%ADD42RoundRect,0.250000X0.925000X-0.875000X0.925000X0.875000X-0.925000X0.875000X-0.925000X-0.875000X0*%
%ADD43R,1.200000X0.400000*%
%ADD44R,1.200000X1.200000*%
G04 APERTURE END LIST*
D10*
X84266000Y-107528500D03*
X84266000Y-109353500D03*
D11*
X138956000Y-84668500D03*
X140781000Y-84668500D03*
D10*
X96012000Y-90123000D03*
X96012000Y-91948000D03*
D11*
X176792500Y-118999000D03*
X178617500Y-118999000D03*
D10*
X88392000Y-92202000D03*
X88392000Y-94027000D03*
D12*
X103820000Y-103632000D03*
X105090000Y-103632000D03*
X106360000Y-103632000D03*
X106360000Y-100582000D03*
X105090000Y-100582000D03*
X103820000Y-100582000D03*
D10*
X177088800Y-92140900D03*
X177088800Y-93965900D03*
D13*
X179992000Y-123571000D03*
X183292000Y-123571000D03*
D14*
X200471000Y-109268500D03*
X197271000Y-109268500D03*
X195071000Y-109268500D03*
X192871000Y-109268500D03*
X192871000Y-115268500D03*
X195071000Y-115268500D03*
X197271000Y-115268500D03*
X200471000Y-115268500D03*
D10*
X174436000Y-102997000D03*
X174436000Y-104822000D03*
D15*
X113616000Y-80096500D03*
X113616000Y-81366500D03*
X113616000Y-82636500D03*
X113616000Y-83906500D03*
X113616000Y-85176500D03*
X113616000Y-86446500D03*
X113616000Y-87716500D03*
X113616000Y-88986500D03*
X113616000Y-90256500D03*
X113616000Y-91526500D03*
X113616000Y-92796500D03*
X113616000Y-94066500D03*
X113616000Y-95336500D03*
X113616000Y-96606500D03*
D16*
X116656000Y-97856500D03*
X117926000Y-97856500D03*
X119196000Y-97856500D03*
X120466000Y-97856500D03*
X121736000Y-97856500D03*
X123006000Y-97856500D03*
X124276000Y-97856500D03*
X125546000Y-97856500D03*
X126816000Y-97856500D03*
X128086000Y-97856500D03*
D15*
X131116000Y-96606500D03*
X131116000Y-95336500D03*
X131116000Y-94066500D03*
X131116000Y-92796500D03*
X131116000Y-91526500D03*
X131116000Y-90256500D03*
X131116000Y-88986500D03*
X131116000Y-87716500D03*
X131116000Y-86446500D03*
X131116000Y-85176500D03*
X131116000Y-83906500D03*
X131116000Y-82636500D03*
X131116000Y-81366500D03*
X131116000Y-80096500D03*
D17*
X120161000Y-85911500D03*
X120161000Y-87436500D03*
X120161000Y-88961500D03*
X121686000Y-85911500D03*
X121686000Y-87436500D03*
X121686000Y-88961500D03*
X123211000Y-85911500D03*
X123211000Y-87436500D03*
X123211000Y-88961500D03*
D18*
X127635000Y-112188000D03*
X127635000Y-110363000D03*
D11*
X192128500Y-100203000D03*
X193953500Y-100203000D03*
D19*
X176976000Y-103047000D03*
X176976000Y-104772000D03*
D20*
X205740000Y-123096000D03*
X205740000Y-117696000D03*
D11*
X138956000Y-88224500D03*
X140781000Y-88224500D03*
D21*
X90043000Y-88212000D03*
X90043000Y-86487000D03*
D11*
X194287500Y-118999000D03*
X196112500Y-118999000D03*
D21*
X92075000Y-88212000D03*
X92075000Y-86487000D03*
D20*
X188279000Y-123096000D03*
X188279000Y-117696000D03*
D10*
X170499000Y-113878500D03*
X170499000Y-115703500D03*
D22*
X171778499Y-96520000D03*
X171778499Y-97790000D03*
X171778499Y-99060000D03*
X171778499Y-100330000D03*
X176728499Y-100330000D03*
X176728499Y-99060000D03*
X176728499Y-97790000D03*
X176728499Y-96520000D03*
D23*
X140781000Y-80858500D03*
X138956000Y-80858500D03*
D19*
X85344000Y-93093200D03*
X85344000Y-94818200D03*
D18*
X121539000Y-112188000D03*
X121539000Y-110363000D03*
D24*
X147574000Y-105369500D03*
X147574000Y-108244500D03*
D18*
X92202000Y-107743000D03*
X92202000Y-105918000D03*
D25*
X87045800Y-88671400D03*
X87045800Y-85796400D03*
D10*
X94003500Y-90123000D03*
X94003500Y-91948000D03*
D26*
X90424000Y-118491000D03*
X88699000Y-118491000D03*
D27*
X107694000Y-116586000D03*
X104394000Y-116586000D03*
D28*
X81637500Y-94817800D03*
X79337500Y-94817800D03*
D29*
X79337500Y-101117800D03*
D28*
X77037500Y-94817800D03*
D30*
X104498050Y-81788000D03*
X99398050Y-81788000D03*
D11*
X88646000Y-115570000D03*
X90471000Y-115570000D03*
D21*
X108265000Y-98298000D03*
X108265000Y-96573000D03*
D11*
X166143000Y-96052500D03*
X167968000Y-96052500D03*
D22*
X152276000Y-99527500D03*
X152276000Y-100797500D03*
X152276000Y-102067500D03*
X152276000Y-103337500D03*
X152276000Y-104607500D03*
X152276000Y-105877500D03*
X152276000Y-107147500D03*
X152276000Y-108417500D03*
X157226000Y-108417500D03*
X157226000Y-107147500D03*
X157226000Y-105877500D03*
X157226000Y-104607500D03*
X157226000Y-103337500D03*
X157226000Y-102067500D03*
X157226000Y-100797500D03*
X157226000Y-99527500D03*
D10*
X90297000Y-92202000D03*
X90297000Y-94027000D03*
D31*
X77901800Y-89966800D03*
X77901800Y-83566800D03*
D24*
X144526000Y-105369500D03*
X144526000Y-108244500D03*
D32*
X196438000Y-100183000D03*
X196438000Y-102083000D03*
X198313000Y-101133000D03*
D33*
X99949000Y-117475000D03*
X101674000Y-117475000D03*
D14*
X183250500Y-109268500D03*
X180050500Y-109268500D03*
X177850500Y-109268500D03*
X175650500Y-109268500D03*
X175650500Y-115268500D03*
X177850500Y-115268500D03*
X180050500Y-115268500D03*
X183250500Y-115268500D03*
D25*
X88823800Y-102874800D03*
X88823800Y-99999800D03*
D34*
X195261000Y-121871500D03*
X193361000Y-121871500D03*
X194311000Y-123746500D03*
D35*
X97506000Y-117409000D03*
X97506000Y-115509000D03*
X95631000Y-116459000D03*
D11*
X98171000Y-91948000D03*
X99996000Y-91948000D03*
D34*
X177766000Y-121871500D03*
X175866000Y-121871500D03*
X176816000Y-123746500D03*
D24*
X161355000Y-100503000D03*
X161355000Y-103378000D03*
D19*
X108331000Y-101780000D03*
X108331000Y-103505000D03*
D36*
X85293200Y-102919600D03*
X85293200Y-99669600D03*
D10*
X90170000Y-105918000D03*
X90170000Y-107743000D03*
D21*
X174675800Y-93865900D03*
X174675800Y-92140900D03*
D11*
X138956000Y-93558500D03*
X140781000Y-93558500D03*
D37*
X94300000Y-85460000D03*
X95250000Y-85460000D03*
X96200000Y-85460000D03*
X96200000Y-83185000D03*
X95250000Y-83185000D03*
X94300000Y-83185000D03*
D38*
X181767499Y-101178500D03*
X186167499Y-101178500D03*
D11*
X138956000Y-90002500D03*
X140781000Y-90002500D03*
D39*
X181267499Y-92923500D03*
X186667499Y-92923500D03*
D24*
X144526000Y-99781500D03*
X144526000Y-102656500D03*
D23*
X167977500Y-93857185D03*
X166152500Y-93857185D03*
D10*
X167959000Y-113878500D03*
X167959000Y-115703500D03*
X164149000Y-113878500D03*
X164149000Y-115703500D03*
D18*
X93599000Y-112649000D03*
X93599000Y-110824000D03*
D20*
X203581000Y-104046000D03*
X203581000Y-98646000D03*
D18*
X129667000Y-112188000D03*
X129667000Y-110363000D03*
D33*
X166243000Y-98211500D03*
X167968000Y-98211500D03*
D18*
X119507000Y-112188000D03*
X119507000Y-110363000D03*
D14*
X199604750Y-90225500D03*
X196404750Y-90225500D03*
X194204750Y-90225500D03*
X192004750Y-90225500D03*
X192004750Y-96225500D03*
X194204750Y-96225500D03*
X196404750Y-96225500D03*
X199604750Y-96225500D03*
D21*
X99822000Y-103579000D03*
X99822000Y-101854000D03*
D24*
X147574000Y-99781500D03*
X147574000Y-102656500D03*
D13*
X197487000Y-123571000D03*
X200787000Y-123571000D03*
D40*
X166116000Y-100457000D03*
X168191000Y-100457000D03*
D18*
X131699000Y-112188000D03*
X131699000Y-110363000D03*
D41*
X110617000Y-81788000D03*
X107742000Y-81788000D03*
D35*
X90521000Y-112649000D03*
X90521000Y-110749000D03*
X88646000Y-111699000D03*
D21*
X171896000Y-104772000D03*
X171896000Y-103047000D03*
D42*
X82996000Y-88656000D03*
X82996000Y-83556000D03*
D43*
X97536000Y-102616000D03*
X97536000Y-101981000D03*
X97536000Y-101346000D03*
X97536000Y-100711000D03*
X97536000Y-100076000D03*
X97536000Y-99441000D03*
X97536000Y-98806000D03*
X97536000Y-98171000D03*
X97536000Y-97536000D03*
X97536000Y-96901000D03*
X92336000Y-96901000D03*
X92336000Y-97536000D03*
X92336000Y-98171000D03*
X92336000Y-98806000D03*
X92336000Y-99441000D03*
X92336000Y-100076000D03*
X92336000Y-100711000D03*
X92336000Y-101346000D03*
X92336000Y-101981000D03*
X92336000Y-102616000D03*
D19*
X84266000Y-112608500D03*
X84266000Y-114333500D03*
D32*
X198645500Y-118983500D03*
X198645500Y-120883500D03*
X200520500Y-119933500D03*
D18*
X93599000Y-117475000D03*
X93599000Y-115650000D03*
D11*
X138956000Y-91780500D03*
X140781000Y-91780500D03*
X98171000Y-89154000D03*
X99996000Y-89154000D03*
D18*
X135701000Y-98558500D03*
X135701000Y-96733500D03*
D10*
X161609000Y-113878500D03*
X161609000Y-115703500D03*
D18*
X133731000Y-112188000D03*
X133731000Y-110363000D03*
X123571000Y-112188000D03*
X123571000Y-110363000D03*
D23*
X140781000Y-82763500D03*
X138956000Y-82763500D03*
D44*
X89795000Y-83185000D03*
X86995000Y-83185000D03*
D11*
X138956000Y-86446500D03*
X140781000Y-86446500D03*
D10*
X84963000Y-117047000D03*
X84963000Y-118872000D03*
D11*
X166243000Y-102616000D03*
X168068000Y-102616000D03*
D41*
X102108000Y-85852000D03*
X99233000Y-85852000D03*
D21*
X102042000Y-98298000D03*
X102042000Y-96573000D03*
D34*
X193102000Y-103075500D03*
X191202000Y-103075500D03*
X192152000Y-104950500D03*
D11*
X99849000Y-115443000D03*
X101674000Y-115443000D03*
D13*
X195328000Y-104775000D03*
X198628000Y-104775000D03*
D18*
X125603000Y-112188000D03*
X125603000Y-110363000D03*
D13*
X109984000Y-116586000D03*
X113284000Y-116586000D03*
D32*
X181102000Y-118958500D03*
X181102000Y-120858500D03*
X182977000Y-119908500D03*
M02*
